Seventy-Regular.ufo
<glyph name="plus" format="2">
  <advance height="1024" width="527"/>
  <unicode hex="002B"/>
  <outline>
    <contour>
      <point x="35.836653" y="346.08798" type="line"/>
      <point x="511.90583000000004" y="348.40228" type="line" smooth="yes"/>
      <point x="516.2031672765595" y="348.42317054205444"/>
      <point x="520.29164989709" y="346.5505872258807"/>
      <point x="523.0828403574274" y="343.2830499426389" type="curve" smooth="yes"/>
      <point x="525.8740308177648" y="340.0155126593969"/>
      <point x="527.0846696162009" y="335.6846222066018"/>
      <point x="526.39246" y="331.44334999999995" type="curve" smooth="yes"/>
      <point x="515.4320200000001" y="264.2871" type="line" smooth="yes"/>
      <point x="513.8243275573582" y="254.4365265610536"/>
      <point x="505.3633850317653" y="247.17052104638174"/>
      <point x="495.38299000000006" y="247.06959000000018" type="curve" smooth="yes"/>
      <point x="16.129746" y="242.22277999999994" type="line" smooth="yes"/>
      <point x="11.88882531705633" y="242.17989025936936"/>
      <point x="7.8521061749541445" y="244.04074820042808"/>
      <point x="5.130335770263969" y="247.29331851220059" type="curve" smooth="yes"/>
      <point x="2.408565365573793" y="250.5458888239732"/>
      <point x="1.288535324430029" y="254.84744975181684"/>
      <point x="2.078434100000095" y="259.01437999999996" type="curve" smooth="yes"/>
      <point x="15.352312" y="329.0378" type="line" smooth="yes"/>
      <point x="17.220126319109937" y="338.89106728820155"/>
      <point x="25.808032469218546" y="346.0392272257098"/>
      <point x="35.83665300000001" y="346.08798" type="curve"/>
    </contour>
    <contour>
      <point x="237.99424" y="580.95625" type="line"/>
      <point x="316.91008" y="596.63495" type="line" smooth="yes"/>
      <point x="320.9943885337081" y="597.446404635153"/>
      <point x="325.22515589530906" y="596.338099601411"/>
      <point x="328.38705348386657" y="593.6284061754112" type="curve" smooth="yes"/>
      <point x="331.548951072424" y="590.9187127494114"/>
      <point x="333.29201374854466" y="586.9075452107861"/>
      <point x="333.11553" y="582.74715" type="curve" smooth="yes"/>
      <point x="310.47339" y="48.99288999999999" type="line" smooth="yes"/>
      <point x="310.0354490300471" y="38.669094815263406"/>
      <point x="303.09469697794646" y="29.760626903413822"/>
      <point x="293.19141999999994" y="26.81145000000015" type="curve" smooth="yes"/>
      <point x="219.70918" y="4.928589999999986" type="line" smooth="yes"/>
      <point x="215.87220753381854" y="3.7859490605931114"/>
      <point x="211.7199094801275" y="4.5559939631659745"/>
      <point x="208.54779830310878" y="6.998471537940304" type="curve" smooth="yes"/>
      <point x="205.37568712608999" y="9.440949112714861"/>
      <point x="203.5699332816995" y="13.258513955927583"/>
      <point x="203.69392999999997" y="17.26008999999999" type="curve" smooth="yes"/>
      <point x="220.52206999999999" y="560.33111" type="line" smooth="yes"/>
      <point x="220.83515667328814" y="570.4350413514338"/>
      <point x="228.07924850085797" y="578.9863780266426"/>
      <point x="237.99424000000002" y="580.95625" type="curve"/>
    </contour>
  </outline>
</glyph>
<glyph name="hyphen" format="2">
	<unicode hex="002D"/>
	<advance height="1024" width="509"/>
	<outline>
		<contour>
			<point x="34.919479" y="407.83442" type="line"/>
			<point x="479.83912" y="409.96655" type="line" smooth="yes"/>
			<point x="484.2545207452" y="409.9877105402"/>
			<point x="488.4628885357" y="408.0964140277"/>
			<point x="491.3785898812" y="404.7805586066" type="curve" smooth="yes"/>
			<point x="494.2942912266" y="401.4647031856"/>
			<point x="495.6318004404" y="397.0490004033"/>
			<point x="495.04608" y="392.67257" type="curve" smooth="yes"/>
			<point x="484.16503" y="311.37098" type="line" smooth="yes"/>
			<point x="482.8301309013" y="301.3968073374"/>
			<point x="474.3697646115" y="293.9185111853"/>
			<point x="464.30716" y="293.81819" type="curve" smooth="yes"/>
			<point x="16.394339" y="289.35274" type="line" smooth="yes"/>
			<point x="12.0282168199" y="289.309212199"/>
			<point x="7.8640279097" y="291.1886698381"/>
			<point x="5.0083272936" y="294.4916823347" type="curve" smooth="yes"/>
			<point x="2.1526266776" y="297.7946948314"/>
			<point x="0.8946161169" y="302.1867603735"/>
			<point x="1.5685883" y="306.50077" type="curve" smooth="yes"/>
			<point x="14.6804" y="390.42758" type="line" smooth="yes"/>
			<point x="16.2400782871" y="400.4108508438"/>
			<point x="24.8152250191" y="407.7859990479"/>
			<point x="34.919479" y="407.83442" type="curve" smooth="yes"/>
		</contour>
	</outline>
</glyph>
<glyph name="four" format="2">
  <advance height="1024" width="496"/>
  <unicode hex="0034"/>
  <outline>
    <contour>
      <point x="249.18079" y="444.5953" type="line"/>
      <point x="254.38502" y="384.17226"/>
      <point x="256.32248" y="323.46796"/>
      <point x="254.98108" y="262.83604" type="curve" smooth="yes"/>
      <point x="253.08665" y="177.20659999999998"/>
      <point x="244.64592" y="91.72281999999996"/>
      <point x="229.759" y="7.376140000000078" type="curve" smooth="yes"/>
      <point x="229.03972" y="3.3008000000000948"/>
      <point x="231.77113" y="0.3992000000000644"/>
      <point x="235.88006" y="0.8916500000000269" type="curve" smooth="yes"/>
      <point x="348.96254" y="14.444280000000049" type="line" smooth="yes"/>
      <point x="353.07147" y="14.936730000000011"/>
      <point x="355.53623999999996" y="18.5770500000001"/>
      <point x="354.50798" y="22.585590000000025" type="curve" smooth="yes"/>
      <point x="338.17010999999997" y="86.27660000000003"/>
      <point x="329.36681999999996" y="151.89772000000005"/>
      <point x="328.34853999999996" y="217.64318000000003" type="curve" smooth="yes"/>
      <point x="327.10824999999994" y="297.72257"/>
      <point x="337.44404999999995" y="377.97137000000004"/>
      <point x="358.92100999999997" y="455.12642000000005" type="curve" smooth="yes"/>
      <point x="360.03076" y="459.11317"/>
      <point x="357.62203" y="462.03060000000005"/>
      <point x="353.50086999999996" y="461.65395000000007" type="curve" smooth="yes"/>
      <point x="255.98318999999998" y="452.74131000000006" type="line" smooth="yes"/>
      <point x="251.86202999999998" y="452.3646600000001"/>
      <point x="248.82566999999997" y="448.7183600000001"/>
      <point x="249.18078999999997" y="444.59530000000007" type="curve"/>
    </contour>
    <contour>
      <point x="369.67151" y="612.94984" type="line"/>
      <point x="289.61688" y="694.64801" type="line" smooth="yes"/>
      <point x="286.72051999999996" y="697.60383"/>
      <point x="282.22713" y="697.42089"/>
      <point x="279.58945" y="694.2321" type="curve" smooth="yes"/>
      <point x="230.83524" y="635.29138"/>
      <point x="184.31747000000001" y="574.50079"/>
      <point x="140.17007" y="512.0349" type="curve" smooth="yes"/>
      <point x="103.78898000000001" y="460.55787"/>
      <point x="68.940881" y="407.81376"/>
      <point x="40.070418000000004" y="351.77837" type="curve" smooth="yes"/>
      <point x="27.360703000000004" y="327.10976999999997"/>
      <point x="15.827483000000004" y="301.83508"/>
      <point x="5.5225626000000005" y="276.06912" type="curve" smooth="yes"/>
      <point x="3.9858166000000006" y="272.22671"/>
      <point x="4.0946014" y="266.01777000000004"/>
      <point x="5.728679400000001" y="262.21570999999994" type="curve" smooth="yes"/>
      <point x="41.88366" y="178.09297000000004" type="line" smooth="yes"/>
      <point x="43.517738" y="174.29091000000005"/>
      <point x="47.961248999999995" y="172.44564000000003"/>
      <point x="51.839424" y="173.88961000000006" type="curve" smooth="yes"/>
      <point x="78.179255" y="183.6968300000001"/>
      <point x="105.5622" y="190.70122000000003"/>
      <point x="133.37698" y="194.74030000000005" type="curve" smooth="yes"/>
      <point x="221.59354000000002" y="207.55054000000007"/>
      <point x="312.18045" y="190.47483"/>
      <point x="400.2992" y="203.94148000000007" type="curve" smooth="yes"/>
      <point x="422.30039" y="207.30379000000005"/>
      <point x="444.0114" y="212.5619200000001"/>
      <point x="465.11397" y="219.63555000000008" type="curve" smooth="yes"/>
      <point x="469.03768" y="220.9507900000001"/>
      <point x="472.63369" y="225.41150000000005"/>
      <point x="473.17467999999997" y="229.5143300000001" type="curve" smooth="yes"/>
      <point x="487.61100999999996" y="338.9983700000001" type="line" smooth="yes"/>
      <point x="488.152" y="343.10120000000006"/>
      <point x="485.61107" y="344.8850900000001"/>
      <point x="481.91216" y="343.0293700000001" type="curve" smooth="yes"/>
      <point x="421.51969999999994" y="312.7309200000001"/>
      <point x="356.51050999999995" y="291.6510100000001"/>
      <point x="289.82651999999996" y="280.76156000000015" type="curve" smooth="yes"/>
      <point x="205.31590999999997" y="266.96104000000014"/>
      <point x="118.15208999999996" y="269.5998000000002"/>
      <point x="34.63107099999996" y="288.48724000000016" type="curve"/>
      <point x="75.82653799999997" y="201.1155600000002" type="line"/>
      <point x="90.504943" y="274.65054999999995"/>
      <point x="119.03346" y="345.3965"/>
      <point x="159.47246" y="408.54345" type="curve" smooth="yes"/>
      <point x="194.74637" y="463.62493"/>
      <point x="239.09572000000003" y="512.9632300000001"/>
      <point x="290.64749" y="553.22031" type="curve" smooth="yes"/>
      <point x="315.06249" y="572.28613"/>
      <point x="341.06806" y="589.31432"/>
      <point x="368.30394" y="604.07241" type="curve" smooth="yes"/>
      <point x="371.94242" y="606.04396"/>
      <point x="372.56787" y="609.99402"/>
      <point x="369.67151" y="612.94984" type="curve"/>
    </contour>
  </outline>
</glyph>
<glyph name="seven" format="2">
  <advance height="1024" width="402"/>
  <unicode hex="0037"/>
  <outline>
    <contour>
      <point x="28.3595" y="677.77197" type="line"/>
      <point x="60.411415" y="685.27306"/>
      <point x="92.794914" y="691.35729"/>
      <point x="125.38383" y="696.0" type="curve" smooth="yes"/>
      <point x="217.04127" y="709.057781"/>
      <point x="310.32423" y="710.660481"/>
      <point x="402.3768" y="700.767864" type="curve" smooth="yes"/>
      <point x="406.21093" y="700.355821"/>
      <point x="408.46802" y="696.9913300000001"/>
      <point x="407.41501" y="693.28168" type="curve" smooth="yes"/>
      <point x="394.15847" y="646.58055"/>
      <point x="380.18636" y="600.0825500000001"/>
      <point x="365.5052" y="553.8095000000001" type="curve" smooth="yes"/>
      <point x="341.64003" y="478.58968000000004"/>
      <point x="315.81818" y="403.64034000000004"/>
      <point x="301.92198" y="325.95853" type="curve" smooth="yes"/>
      <point x="284.78643" y="230.16827"/>
      <point x="286.22563" y="131.09643000000005"/>
      <point x="306.06311" y="35.83258999999998" type="curve" smooth="yes"/>
      <point x="307.88814" y="27.068399999999997"/>
      <point x="302.34505" y="19.033879999999954"/>
      <point x="293.47236" y="17.842109999999934" type="curve" smooth="yes"/>
      <point x="176.70362" y="2.157889999999952" type="line" smooth="yes"/>
      <point x="167.83093" y="0.9661199999999326"/>
      <point x="161.96468" y="7.135069999999928"/>
      <point x="163.60978" y="15.93498999999997" type="curve" smooth="yes"/>
      <point x="182.92294" y="119.24397999999997"/>
      <point x="203.1369" y="222.38457999999991"/>
      <point x="224.24858" y="325.34108999999995" type="curve" smooth="yes"/>
      <point x="239.5201" y="399.81656"/>
      <point x="255.26119" y="474.19490999999994"/>
      <point x="270.67074" y="548.64194" type="curve" smooth="yes"/>
      <point x="279.17029" y="589.7051999999999"/>
      <point x="287.56898" y="630.78933"/>
      <point x="295.86669" y="671.8938499999999" type="curve"/>
      <point x="336.81319" y="596.2578299999999" type="line"/>
      <point x="285.68501000000003" y="631.93315"/>
      <point x="217.03582" y="641.05701"/>
      <point x="158.36423000000002" y="619.9746899999999" type="curve" smooth="yes"/>
      <point x="122.20491000000001" y="606.98165"/>
      <point x="90.10753600000002" y="583.0132899999999"/>
      <point x="67.17870900000003" y="552.20209" type="curve" smooth="yes"/>
      <point x="61.83571200000003" y="545.02231"/>
      <point x="55.747896000000026" y="545.68408"/>
      <point x="52.89403800000002" y="554.1693799999999" type="curve" smooth="yes"/>
      <point x="17.770994" y="658.5998099999999" type="line" smooth="yes"/>
      <point x="14.917136000000003" y="667.08511"/>
      <point x="19.642737" y="675.73199"/>
      <point x="28.359500000000004" y="677.77197" type="curve"/>
    </contour>
    <contour>
      <point x="381.07582" y="403.26353" type="line"/>
      <point x="393.97784" y="355.45524" type="line" smooth="yes"/>
      <point x="394.71808747558947" y="352.71226492365923"/>
      <point x="394.24547644799253" y="349.78350295127404"/>
      <point x="392.68000800691004" y="347.4125986608146" type="curve" smooth="yes"/>
      <point x="391.1145395658277" y="345.04169437035523"/>
      <point x="388.60679209395204" y="343.456698947145"/>
      <point x="385.7935099999999" y="343.06006000000014" type="curve" smooth="yes"/>
      <point x="158.27329000000003" y="310.98227" type="line" smooth="yes"/>
      <point x="155.4002092605479" y="310.57719768589936"/>
      <point x="152.48789834518274" y="311.3829935372404"/>
      <point x="150.2316500409956" y="313.2072797277583" type="curve" smooth="yes"/>
      <point x="147.9754017368084" y="315.0315659182762"/>
      <point x="146.5777087537425" y="317.71061727031895"/>
      <point x="146.37226000000013" y="320.60482999999994" type="curve" smooth="yes"/>
      <point x="140.98101000000003" y="396.55331000000007" type="line" smooth="yes"/>
      <point x="140.77365251774296" y="399.4744271964938"/>
      <point x="141.76904283545693" y="402.3534060576287"/>
      <point x="143.736360483372" y="404.52264188466575" type="curve" smooth="yes"/>
      <point x="145.70367813128706" y="406.6918777117029"/>
      <point x="148.47202471901133" y="407.9629317379722"/>
      <point x="151.39945000000003" y="408.0410600000001" type="curve" smooth="yes"/>
      <point x="366.94068000000004" y="413.79352000000006" type="line" smooth="yes"/>
      <point x="373.5187793648647" y="413.96907666345106"/>
      <point x="379.3612945232742" y="409.6166877806455"/>
      <point x="381.07581999999996" y="403.2635300000001" type="curve"/>
    </contour>
  </outline>
</glyph>
<glyph name="eight" format="2">
  <advance height="1024" width="424"/>
  <unicode hex="0038"/>
  <outline>
    <contour>
      <point x="99.85783" y="25.474640000000022" type="line"/>
      <point x="158.74392" y="-11.651359999999954"/>
      <point x="235.72806" y="-18.982309999999984"/>
      <point x="300.06262000000004" y="7.606710000000021" type="curve" smooth="yes"/>
      <point x="336.03143000000006" y="22.47237000000007"/>
      <point x="368.03004000000004" y="47.64106000000004"/>
      <point x="389.05105000000003" y="80.39560000000006" type="curve" smooth="yes"/>
      <point x="410.07207000000005" y="113.15014000000008"/>
      <point x="419.64944" y="153.53413"/>
      <point x="413.34722000000005" y="191.94019000000003" type="curve" smooth="yes"/>
      <point x="406.51789" y="233.55851000000007"/>
      <point x="381.79216" y="270.68298000000004"/>
      <point x="350.63840000000005" y="299.11128" type="curve" smooth="yes"/>
      <point x="319.48465000000004" y="327.53957"/>
      <point x="282.08056000000005" y="348.14892000000003"/>
      <point x="244.26580000000004" y="366.82426000000004" type="curve" smooth="yes"/>
      <point x="211.52470000000005" y="382.99390000000005"/>
      <point x="177.72134000000005" y="398.21451"/>
      <point x="149.92084000000006" y="421.89084" type="curve" smooth="yes"/>
      <point x="136.02059000000006" y="433.72901"/>
      <point x="123.74390000000005" y="447.66148000000004"/>
      <point x="114.98557000000005" y="463.68181000000004" type="curve" smooth="yes"/>
      <point x="106.22725000000005" y="479.70214000000004"/>
      <point x="101.08063000000006" y="497.88072000000005"/>
      <point x="101.55250000000005" y="516.13275" type="curve" smooth="yes"/>
      <point x="102.26707000000005" y="543.7723100000001"/>
      <point x="116.21718000000006" y="570.44641"/>
      <point x="137.45424000000006" y="588.15074" type="curve" smooth="yes"/>
      <point x="158.69130000000007" y="605.8550700000001"/>
      <point x="186.70597000000006" y="614.72778"/>
      <point x="214.35048000000006" y="614.2407400000001" type="curve" smooth="yes"/>
      <point x="239.71676000000005" y="613.7938300000001"/>
      <point x="265.09123000000005" y="605.5358900000001"/>
      <point x="285.07101000000006" y="589.9008000000001" type="curve" smooth="yes"/>
      <point x="305.05080000000004" y="574.2657100000001"/>
      <point x="319.33231000000006" y="551.15724"/>
      <point x="323.1012800000001" y="526.06854" type="curve" smooth="yes"/>
      <point x="325.84075000000007" y="507.83284000000003"/>
      <point x="323.07078000000007" y="488.92038"/>
      <point x="316.01461000000006" y="471.88349000000005" type="curve" smooth="yes"/>
      <point x="308.9584100000001" y="454.8466000000001"/>
      <point x="297.70351000000005" y="439.67150000000004"/>
      <point x="284.0256100000001" y="427.3037800000001" type="curve" smooth="yes"/>
      <point x="254.29259000000008" y="400.41884000000005"/>
      <point x="214.8754700000001" y="387.60647000000006"/>
      <point x="179.06276000000008" y="369.5980800000001" type="curve" smooth="yes"/>
      <point x="147.8725300000001" y="353.9141000000001"/>
      <point x="118.90329000000008" y="333.9268300000001"/>
      <point x="92.67036400000008" y="310.8909500000001" type="curve" smooth="yes"/>
      <point x="73.53482200000008" y="294.0874900000001"/>
      <point x="55.73371300000008" y="275.5313400000001"/>
      <point x="41.74869700000008" y="254.2488400000001" type="curve" smooth="yes"/>
      <point x="27.763681000000076" y="232.96634000000006"/>
      <point x="17.669354000000077" y="208.81941000000006"/>
      <point x="14.749554000000078" y="183.52119000000005" type="curve" smooth="yes"/>
      <point x="11.131471000000078" y="152.1727800000001"/>
      <point x="18.79003300000008" y="119.9512400000001"/>
      <point x="34.36320000000008" y="92.50512000000003" type="curve" smooth="yes"/>
      <point x="49.93636600000008" y="65.05900000000008"/>
      <point x="73.16381700000008" y="42.30446000000006"/>
      <point x="99.85783000000008" y="25.474640000000022" type="curve"/>
    </contour>
    <contour>
      <point x="296.11898" y="349.84412" type="curve" smooth="yes"/>
      <point x="326.72580000000005" y="370.14054"/>
      <point x="352.36421" y="398.02653"/>
      <point x="369.38269" y="430.57023999999996" type="curve" smooth="yes"/>
      <point x="386.40118" y="463.11394999999993"/>
      <point x="394.68881000000005" y="500.27629999999994"/>
      <point x="392.38932" y="536.92919" type="curve" smooth="yes"/>
      <point x="389.69122" y="579.9357699999999"/>
      <point x="372.11424" y="622.0717199999999"/>
      <point x="342.51882" y="653.39195" type="curve" smooth="yes"/>
      <point x="312.9234" y="684.71219"/>
      <point x="271.37405" y="704.757657"/>
      <point x="228.35129" y="707.184176" type="curve" smooth="yes"/>
      <point x="179.12746" y="709.9604400000001"/>
      <point x="129.67104" y="689.53595"/>
      <point x="94.50896" y="654.977" type="curve" smooth="yes"/>
      <point x="59.346881" y="620.41805"/>
      <point x="38.302448" y="572.59766"/>
      <point x="33.388624" y="523.5410899999999" type="curve" smooth="yes"/>
      <point x="30.696237" y="496.66197"/>
      <point x="32.674795" y="469.19486"/>
      <point x="40.485817" y="443.33516" type="curve" smooth="yes"/>
      <point x="48.296839" y="417.47546"/>
      <point x="62.03910499999999" y="393.26408999999995"/>
      <point x="81.194114" y="374.21621" type="curve" smooth="yes"/>
      <point x="99.896396" y="355.61852999999996"/>
      <point x="123.25327" y="342.31045"/>
      <point x="147.45584" y="331.82785" type="curve" smooth="yes"/>
      <point x="171.65842" y="321.34526"/>
      <point x="196.90226" y="313.49815"/>
      <point x="221.65344" y="304.38617" type="curve" smooth="yes"/>
      <point x="248.44087" y="294.52457"/>
      <point x="275.12118" y="282.89986999999996"/>
      <point x="296.87746" y="264.42064000000005" type="curve" smooth="yes"/>
      <point x="307.75559999999996" y="255.18103000000008"/>
      <point x="317.29848" y="244.26250000000005"/>
      <point x="324.27853" y="231.81328000000008" type="curve" smooth="yes"/>
      <point x="331.25858999999997" y="219.3640600000001"/>
      <point x="335.62674" y="205.35208000000011"/>
      <point x="336.13148" y="191.08850000000007" type="curve" smooth="yes"/>
      <point x="336.61513" y="177.42108000000007"/>
      <point x="333.53464" y="163.69159000000002"/>
      <point x="327.63196" y="151.35504000000003" type="curve" smooth="yes"/>
      <point x="321.72927" y="139.01849000000004"/>
      <point x="313.04125" y="128.07258000000002"/>
      <point x="302.63477" y="119.19918000000007" type="curve" smooth="yes"/>
      <point x="281.8218" y="101.45238000000006"/>
      <point x="254.51365" y="92.31380000000001"/>
      <point x="227.20871" y="90.71097000000009" type="curve" smooth="yes"/>
      <point x="198.61889" y="89.03271000000007"/>
      <point x="169.06992" y="95.58503000000007"/>
      <point x="145.65778999999998" y="112.07946000000004" type="curve" smooth="yes"/>
      <point x="133.95171999999997" y="120.32667000000004"/>
      <point x="123.89178999999999" y="130.97892000000002"/>
      <point x="116.70552999999998" y="143.36464" type="curve" smooth="yes"/>
      <point x="109.51927999999998" y="155.75036999999998"/>
      <point x="105.24801999999998" y="169.87412000000006"/>
      <point x="104.80376999999999" y="184.18674" type="curve" smooth="yes"/>
      <point x="104.35895" y="198.51784999999995"/>
      <point x="107.74002999999999" y="212.85635000000002"/>
      <point x="113.80916999999998" y="225.84650999999997" type="curve" smooth="yes"/>
      <point x="119.87831999999997" y="238.8366699999999"/>
      <point x="128.58659999999998" y="250.50609999999995"/>
      <point x="138.74336" y="260.62631" type="curve" smooth="yes"/>
      <point x="159.05689999999998" y="280.86673999999994"/>
      <point x="184.77253" y="294.74169"/>
      <point x="210.75049" y="306.88502" type="curve" smooth="yes"/>
      <point x="239.6416" y="320.39009"/>
      <point x="269.54019" y="332.21882"/>
    </contour>
  </outline>
</glyph>
<glyph name="nine" format="2">
  <advance height="1024" width="419"/>
  <unicode hex="0039"/>
  <outline>
    <contour>
      <point x="183.71003" y="593.97982" type="line"/>
      <point x="151.27508999999998" y="587.50413"/>
      <point x="121.89134999999999" y="566.8797099999999"/>
      <point x="104.92200999999999" y="538.48954" type="curve" smooth="yes"/>
      <point x="87.952677" y="510.09936999999996"/>
      <point x="83.71240599999999" y="474.3753"/>
      <point x="93.72535999999998" y="442.85227999999995" type="curve" smooth="yes"/>
      <point x="99.77765899999999" y="423.79828999999995"/>
      <point x="110.84712999999998" y="406.34394"/>
      <point x="125.59808999999998" y="392.84970999999996" type="curve" smooth="yes"/>
      <point x="140.34903999999997" y="379.35547999999994"/>
      <point x="158.75430999999998" y="369.86780999999996"/>
      <point x="178.33208" y="365.81864999999993" type="curve" smooth="yes"/>
      <point x="196.83704999999998" y="361.99136999999996"/>
      <point x="216.28497" y="363.02270999999996"/>
      <point x="234.37842" y="368.47331999999994" type="curve" smooth="yes"/>
      <point x="252.47186" y="373.9239299999999"/>
      <point x="269.19021" y="383.756"/>
      <point x="282.9747" y="396.6815399999999" type="curve" smooth="yes"/>
      <point x="297.60399" y="410.39924999999994"/>
      <point x="308.9609" y="427.6471899999999"/>
      <point x="315.42672" y="446.6309999999999" type="curve" smooth="yes"/>
      <point x="321.89254999999997" y="465.6147999999999"/>
      <point x="323.41677" y="486.3075799999999"/>
      <point x="319.43487999999996" y="505.9630199999999" type="curve" smooth="yes"/>
      <point x="313.49125999999995" y="535.30197"/>
      <point x="295.05089999999996" y="561.8082099999999"/>
      <point x="269.85247" y="577.9680299999999" type="curve" smooth="yes"/>
      <point x="244.65403999999998" y="594.1278499999999"/>
      <point x="213.06561999999997" y="599.84071"/>
      <point x="183.71003" y="593.9798199999999" type="curve"/>
    </contour>
    <contour>
      <point x="388.55319" y="295.51007000000004" type="curve" smooth="yes"/>
      <point x="366.37955999999997" y="190.07839"/>
      <point x="324.54211" y="88.82227"/>
      <point x="265.89682999999997" y="-1.5518399999999701" type="curve" smooth="yes"/>
      <point x="260.08164999999997" y="-10.513190000000009"/>
      <point x="248.31703999999996" y="-12.387159999999994"/>
      <point x="239.84192999999996" y="-5.8833700000000135" type="curve" smooth="yes"/>
      <point x="163.26834999999994" y="52.87914000000001" type="line" smooth="yes"/>
      <point x="154.79323999999994" y="59.38292999999999"/>
      <point x="155.34347999999994" y="69.13433999999995"/>
      <point x="164.14597999999995" y="75.18545000000006" type="curve" smooth="yes"/>
      <point x="218.01444999999995" y="112.21629000000007"/>
      <point x="261.94095999999996" y="163.6475600000001"/>
      <point x="289.88852999999995" y="222.75616000000002" type="curve" smooth="yes"/>
      <point x="320.9735099999999" y="288.50032"/>
      <point x="332.15894999999995" y="363.49651000000006"/>
      <point x="321.6111399999999" y="435.45007" type="curve"/>
      <point x="363.80145" y="458.85" type="line"/>
      <point x="360.08454" y="401.80778000000004"/>
      <point x="331.91472999999996" y="346.76894000000004"/>
      <point x="287.81883" y="310.39337" type="curve" smooth="yes"/>
      <point x="254.72836999999998" y="283.0964"/>
      <point x="212.06905999999998" y="266.14344000000006"/>
      <point x="169.24716" y="268.67079" type="curve" smooth="yes"/>
      <point x="142.28462" y="270.26212"/>
      <point x="115.92712" y="279.49445000000003"/>
      <point x="93.362993" y="294.33936" type="curve" smooth="yes"/>
      <point x="70.798869" y="309.18426"/>
      <point x="52.014252" y="329.54764"/>
      <point x="38.25315" y="352.78862" type="curve" smooth="yes"/>
      <point x="23.505269" y="377.69616"/>
      <point x="14.50284" y="405.77278"/>
      <point x="10.1369" y="434.38788" type="curve" smooth="yes"/>
      <point x="0.06864799" y="500.37689"/>
      <point x="15.321538" y="570.30139"/>
      <point x="53.803253" y="624.84565" type="curve" smooth="yes"/>
      <point x="71.31639" y="649.6689"/>
      <point x="93.561067" y="671.36884"/>
      <point x="119.78031" y="686.7133699999999" type="curve" smooth="yes"/>
      <point x="145.99956" y="702.057908"/>
      <point x="176.26604" y="710.886323"/>
      <point x="206.6387" y="710.24978" type="curve" smooth="yes"/>
      <point x="254.5663" y="709.245325"/>
      <point x="300.20677" y="684.47893"/>
      <point x="332.2756" y="648.84673" type="curve" smooth="yes"/>
      <point x="364.34443" y="613.21453"/>
      <point x="383.74599" y="567.55243"/>
      <point x="393.92265" y="520.70695" type="curve" smooth="yes"/>
      <point x="409.98227999999995" y="446.7808"/>
      <point x="404.12282999999996" y="369.54097"/>
    </contour>
  </outline>
</glyph>
<glyph name="question" format="2">
  <advance height="1024" width="323"/>
  <unicode hex="003F"/>
  <outline>
    <contour>
      <point x="252.88153" y="82.46713999999997" type="line"/>
      <point x="252.88153051940878" y="37.86882569719489"/>
      <point x="218.8796318178992" y="1.7147464596615691"/>
      <point x="176.93616" y="1.7147400000000061" type="curve"/>
      <point x="134.99268427685774" y="1.7147405872419768"/>
      <point x="100.9907794805915" y="37.868821544767"/>
      <point x="100.99077999999997" y="82.46713999999997" type="curve" smooth="yes"/>
      <point x="100.99077948059151" y="127.06545845523294"/>
      <point x="134.99268427685777" y="163.21953941275808"/>
      <point x="176.93616000000003" y="163.21954000000005" type="curve" smooth="yes"/>
      <point x="218.87963181789928" y="163.2195335403386"/>
      <point x="252.8815305194089" y="127.06545430280516"/>
      <point x="252.88153000000003" y="82.46713999999997" type="curve"/>
    </contour>
    <contour>
      <point x="90.828337" y="485.5979" type="line"/>
      <point x="27.283387000000005" y="451.30658999999997" type="line" smooth="yes"/>
      <point x="18.842605000000006" y="446.75160999999997"/>
      <point x="9.989556800000006" y="450.58345999999995"/>
      <point x="8.290443300000003" y="460.02088999999995" type="curve" smooth="yes"/>
      <point x="2.3764128000000033" y="492.86931999999996"/>
      <point x="3.471746300000003" y="526.97857"/>
      <point x="11.587062000000003" y="559.35816" type="curve" smooth="yes"/>
      <point x="21.787486" y="600.0572"/>
      <point x="43.571408000000005" y="638.4763899999999"/>
      <point x="76.253375" y="664.7889299999999" type="curve" smooth="yes"/>
      <point x="97.06587900000001" y="681.5452599999999"/>
      <point x="122.05146" y="693.1622399999999"/>
      <point x="148.35696000000002" y="697.8478899999999" type="curve" smooth="yes"/>
      <point x="174.66247" y="702.5335379999999"/>
      <point x="202.23604" y="700.230787"/>
      <point x="227.2509" y="690.83975" type="curve" smooth="yes"/>
      <point x="262.94794" y="677.4384299999999"/>
      <point x="292.90539" y="649.33579"/>
      <point x="308.39082" y="614.4921899999999" type="curve" smooth="yes"/>
      <point x="323.87624" y="579.6486"/>
      <point x="324.64275000000004" y="538.5030999999999"/>
      <point x="310.29653" y="503.1751999999999" type="curve" smooth="yes"/>
      <point x="298.55363" y="474.2580399999999"/>
      <point x="277.70618" y="450.1812399999999"/>
      <point x="258.44914" y="425.6198099999999" type="curve" smooth="yes"/>
      <point x="239.19209" y="401.05837999999994"/>
      <point x="220.72587" y="374.3751299999999"/>
      <point x="215.20684" y="343.6564399999999" type="curve" smooth="yes"/>
      <point x="211.42085" y="322.5837899999999"/>
      <point x="214.03258" y="300.6968999999999"/>
      <point x="220.39615" y="280.2544099999999" type="curve" smooth="yes"/>
      <point x="225.35949" y="264.31003999999984"/>
      <point x="232.59398000000002" y="249.07570999999984"/>
      <point x="241.79954" y="235.1437299999999" type="curve" smooth="yes"/>
      <point x="244.604" y="230.89938999999993"/>
      <point x="242.97777000000002" y="227.13009999999986"/>
      <point x="237.92225000000002" y="226.5582599999999" type="curve" smooth="yes"/>
      <point x="130.71206" y="214.43160999999986" type="line" smooth="yes"/>
      <point x="124.69342" y="213.7508399999998"/>
      <point x="117.43232" y="217.50569999999982"/>
      <point x="115.03369" y="223.06539999999984" type="curve" smooth="yes"/>
      <point x="103.62137000000001" y="249.51769999999988"/>
      <point x="101.29737" y="279.8617099999998"/>
      <point x="108.80747000000001" y="307.69482999999985" type="curve" smooth="yes"/>
      <point x="116.23357000000001" y="335.21662999999984"/>
      <point x="132.59568000000002" y="359.4886799999999"/>
      <point x="150.79487" y="381.42919999999987" type="curve" smooth="yes"/>
      <point x="168.99406" y="403.3697099999999"/>
      <point x="189.29442" y="423.56273999999985"/>
      <point x="206.48063000000002" y="446.30544999999984" type="curve" smooth="yes"/>
      <point x="216.47498000000002" y="459.53108999999984"/>
      <point x="225.42935000000003" y="473.67425999999983"/>
      <point x="231.55766000000003" y="489.07712999999984" type="curve" smooth="yes"/>
      <point x="237.68596000000002" y="504.47999999999985"/>
      <point x="240.91752000000002" y="521.2290899999998"/>
      <point x="239.29226000000003" y="537.7264499999999" type="curve" smooth="yes"/>
      <point x="236.95949000000002" y="561.4055099999998"/>
      <point x="224.12923000000004" y="583.9841999999999"/>
      <point x="204.60161000000002" y="597.5787399999998" type="curve" smooth="yes"/>
      <point x="185.07398000000003" y="611.1732899999998"/>
      <point x="159.12706000000003" y="615.3335799999999"/>
      <point x="136.51995000000002" y="607.9134699999998" type="curve" smooth="yes"/>
      <point x="113.86206000000003" y="600.4766899999998"/>
      <point x="95.31815100000003" y="581.5325999999998"/>
      <point x="88.36675300000002" y="558.7211299999999" type="curve" smooth="yes"/>
      <point x="82.52913100000002" y="539.5645799999999"/>
      <point x="84.99850100000002" y="518.1127099999999"/>
      <point x="94.62178900000002" y="500.59117999999984" type="curve" smooth="yes"/>
      <point x="97.66227000000002" y="495.05523999999986"/>
      <point x="96.39252500000002" y="488.6005499999998"/>
      <point x="90.82833700000002" y="485.5978999999998" type="curve"/>
    </contour>
  </outline>
</glyph>
<glyph name="A" format="2">
  <advance height="1024" width="606"/>
  <unicode hex="0041"/>
  <anchor x="265.57419" y="794.2380829" name="top"/>
  <outline>
    <contour>
      <point x="428.35845" y="403.46933" type="line"/>
      <point x="457.81805" y="280.5594" type="line"/>
      <point x="406.48855000000003" y="301.50244"/>
      <point x="352.29557" y="315.41393999999997"/>
      <point x="297.22516" y="321.78407999999996" type="curve" smooth="yes"/>
      <point x="226.15766000000002" y="330.00463999999994"/>
      <point x="153.65273000000002" y="325.58236999999997"/>
      <point x="84.094209" y="308.86995999999994" type="curve" smooth="yes"/>
      <point x="71.112437" y="305.7509099999999"/>
      <point x="61.54837400000001" y="313.54596999999995"/>
      <point x="62.58758100000001" y="326.85756999999995" type="curve" smooth="yes"/>
      <point x="67.64463300000001" y="391.63525999999996" type="line" smooth="yes"/>
      <point x="68.88493000000001" y="407.5227"/>
      <point x="82.80807200000001" y="420.24638999999996"/>
      <point x="98.74117500000001" y="419.9557" type="curve" smooth="yes"/>
      <point x="165.33271000000002" y="418.74075"/>
      <point x="231.90090000000004" y="416.2466"/>
      <point x="298.39664" y="412.47495" type="curve" smooth="yes"/>
      <point x="341.75257" y="410.01579"/>
      <point x="385.07771" y="407.01360999999997"/>
      <point x="428.35845" y="403.46932999999996" type="curve"/>
    </contour>
    <contour>
      <point x="114.30711" y="0.0" type="curve" smooth="yes"/>
      <point x="18.519463" y="0.0" type="line" smooth="yes"/>
      <point x="11.605155" y="0.0"/>
      <point x="7.6537594" y="5.355639999999994"/>
      <point x="9.6815538" y="11.965910000000008" type="curve" smooth="yes"/>
      <point x="37.702874" y="103.31075999999996"/>
      <point x="63.992859" y="195.18670999999995"/>
      <point x="88.532572" y="287.52779999999996" type="curve" smooth="yes"/>
      <point x="130.81981" y="446.65147"/>
      <point x="167.90838" y="607.15664"/>
      <point x="199.71949" y="768.701079" type="curve" smooth="yes"/>
      <point x="200.91569" y="774.775679"/>
      <point x="206.83317" y="780.494968"/>
      <point x="212.94662" y="781.473491" type="curve" smooth="yes"/>
      <point x="320.45406" y="798.6812221" type="line" smooth="yes"/>
      <point x="325.00446000000005" y="799.40956302"/>
      <point x="330.1936" y="796.5787016"/>
      <point x="332.02570000000003" y="792.3502291" type="curve" smooth="yes"/>
      <point x="340.47129" y="772.857961"/>
      <point x="348.62334000000004" y="753.238508"/>
      <point x="356.47814000000005" y="733.500761" type="curve" smooth="yes"/>
      <point x="402.32448000000005" y="618.29682"/>
      <point x="437.94007000000005" y="499.3435"/>
      <point x="475.94815000000006" y="381.32138000000003" type="curve" smooth="yes"/>
      <point x="515.8448800000001" y="257.43462999999997"/>
      <point x="558.43435" y="134.41507000000001"/>
      <point x="603.67623" y="12.378810000000044" type="curve" smooth="yes"/>
      <point x="606.2114300000001" y="5.540320000000065"/>
      <point x="602.36333" y="0.0"/>
      <point x="595.0700300000001" y="0.0" type="curve" smooth="yes"/>
      <point x="481.2815" y="0.0" type="line" smooth="yes"/>
      <point x="474.05987" y="0.0"/>
      <point x="467.61788" y="5.824759999999969"/>
      <point x="466.85074" y="13.005509999999958" type="curve" smooth="yes"/>
      <point x="454.77894" y="126.00383"/>
      <point x="434.96635" y="238.17467"/>
      <point x="407.59515" y="348.47053" type="curve" smooth="yes"/>
      <point x="396.6754" y="392.47309"/>
      <point x="384.52517" y="436.26637"/>
      <point x="368.0939" y="478.52131" type="curve" smooth="yes"/>
      <point x="348.23094" y="529.60126"/>
      <point x="322.26442" y="578.0528899999999"/>
      <point x="296.09034" y="626.20491" type="curve" smooth="yes"/>
      <point x="276.25925" y="662.68785"/>
      <point x="256.26921" y="699.08439"/>
      <point x="236.121" y="735.393159" type="curve"/>
      <point x="309.44546" y="758.760915" type="line"/>
      <point x="258.10554" y="639.1976999999999"/>
      <point x="216.95774" y="515.2600199999999"/>
      <point x="186.59454" y="388.73245" type="curve" smooth="yes"/>
      <point x="157.03785" y="265.56572000000006"/>
      <point x="137.70168" y="139.94816000000003"/>
      <point x="128.84483" y="13.594810000000052" type="curve" smooth="yes"/>
      <point x="128.31865" y="6.088139999999953"/>
      <point x="121.83222" y="0.0"/>
    </contour>
  </outline>
</glyph>
<glyph name="C" format="2">
	<unicode hex="0043"/>
	<advance height="1024" width="560"/>
	<outline>
		<contour>
			<point x="426.49321" y="782.901499" type="line"/>
			<point x="452.25624" y="770.220812"/>
			<point x="473.31361" y="749.250766"/>
			<point x="489.34981" y="725.431156" type="curve" smooth="yes"/>
			<point x="505.38601" y="701.611545"/>
			<point x="516.69536" y="674.93533"/>
			<point x="526.3927" y="647.90766" type="curve" smooth="yes"/>
			<point x="541.16198" y="606.74389"/>
			<point x="552.42309" y="564.32206"/>
			<point x="560.01396" y="521.25274" type="curve"/>
			<point x="414.93183" y="514.96543" type="line"/>
			<point x="419.23045" y="552.73448"/>
			<point x="414.23704" y="591.52685"/>
			<point x="400.51367" y="626.97609" type="curve" smooth="yes"/>
			<point x="396.85913" y="636.41625"/>
			<point x="392.5647" y="645.67769"/>
			<point x="386.73121" y="653.95071" type="curve" smooth="yes"/>
			<point x="377.15771" y="667.52772"/>
			<point x="351.04348" y="681.16725"/>
			<point x="333.77133" y="680.34802" type="curve" smooth="yes"/>
			<point x="325.643" y="679.96247"/>
			<point x="305.19972" y="674.82019"/>
			<point x="289.88399" y="666.47455" type="curve" smooth="yes"/>
			<point x="285.55896" y="664.11781"/>
			<point x="281.32367" y="661.58379"/>
			<point x="277.16357" y="658.97011" type="curve" smooth="yes"/>
			<point x="191.74646" y="605.30471"/>
			<point x="131.72393" y="513.54671"/>
			<point x="114.92429" y="414.07898" type="curve" smooth="yes"/>
			<point x="106.18968" y="362.36286"/>
			<point x="108.68706" y="308.71725"/>
			<point x="122.74657" y="258.18825" type="curve" smooth="yes"/>
			<point x="130.96534" y="228.65051"/>
			<point x="143.25509" y="199.92146"/>
			<point x="161.88831" y="175.57336" type="curve" smooth="yes"/>
			<point x="180.52152" y="151.22527"/>
			<point x="205.8341" y="131.41568"/>
			<point x="235.1403" y="122.40608" type="curve" smooth="yes"/>
			<point x="263.40647" y="113.71621"/>
			<point x="294.19074" y="115.39389"/>
			<point x="322.61516" y="123.55127" type="curve" smooth="yes"/>
			<point x="351.03957" y="131.70866"/>
			<point x="377.33118" y="146.08109"/>
			<point x="401.92145" y="162.50695" type="curve" smooth="yes"/>
			<point x="456.96384" y="199.27427"/>
			<point x="504.68036" y="246.96202"/>
			<point x="541.48087" y="301.98222" type="curve"/>
			<point x="558.71095" y="134.8361" type="line"/>
			<point x="529.66869" y="98.48903"/>
			<point x="493.83817" y="67.58442"/>
			<point x="453.62086" y="44.19361" type="curve" smooth="yes"/>
			<point x="387.71496" y="5.86204"/>
			<point x="307.17502" y="-11.7281"/>
			<point x="233.7982" y="8.97793" type="curve" smooth="yes"/>
			<point x="199.01587" y="18.79307"/>
			<point x="166.86846" y="36.87265"/>
			<point x="139.2537" y="60.26976" type="curve" smooth="yes"/>
			<point x="128.20966" y="69.62702"/>
			<point x="111.74537" y="86.43977"/>
			<point x="102.53088" y="97.604" type="curve" smooth="yes"/>
			<point x="85.117192" y="118.70234"/>
			<point x="70.453212" y="142.06455"/>
			<point x="58.380382" y="166.68794" type="curve" smooth="yes"/>
			<point x="52.006857" y="179.6872"/>
			<point x="43.06523" y="201.42539"/>
			<point x="38.393303" y="215.12872" type="curve" smooth="yes"/>
			<point x="13.486159" y="288.18444"/>
			<point x="8.5111115" y="367.78123"/>
			<point x="21.512152" y="443.95644" type="curve" smooth="yes"/>
			<point x="37.682369" y="538.70037"/>
			<point x="81.914359" y="629.01345"/>
			<point x="149.52145" y="697.33013" type="curve" smooth="yes"/>
			<point x="191.93967" y="740.193568"/>
			<point x="244.08688" y="774.629256"/>
			<point x="302.39915" y="790" type="curve" smooth="yes"/>
			<point x="343.33682" y="800.79091134"/>
			<point x="388.50905" y="801.5974871"/>
			<point x="426.49321" y="782.901499" type="curve"/>
		</contour>
	</outline>
	<anchor name="top" x="353.84598" y="796.9044445"/>
	<anchor name="bottom" x="352.34192" y="3.71344"/>
</glyph>
<glyph name="H" format="2">
  <advance height="1024" width="433"/>
  <unicode hex="0048"/>
  <outline>
    <contour>
      <point x="297.36883" y="675.02753" type="line"/>
      <point x="294.22396" y="712.72792"/>
      <point x="290.93954" y="750.416669"/>
      <point x="287.51566" y="788.092743" type="curve" smooth="yes"/>
      <point x="286.86013" y="795.3061203"/>
      <point x="292.13597" y="800.3239689"/>
      <point x="299.30648" y="799.3010494" type="curve" smooth="yes"/>
      <point x="404.94909" y="784.230444" type="line" smooth="yes"/>
      <point x="413.58409" y="782.998604"/>
      <point x="419.47487" y="775.016551"/>
      <point x="418.16362000000004" y="766.3932580000001" type="curve" smooth="yes"/>
      <point x="413.21860000000004" y="733.872887"/>
      <point x="408.87626000000006" y="701.2608720000001"/>
      <point x="405.13965" y="668.5796" type="curve" smooth="yes"/>
      <point x="385.06968" y="493.04281000000003"/>
      <point x="382.5307" y="315.49315"/>
      <point x="397.83445" y="139.47678000000008" type="curve" smooth="yes"/>
      <point x="401.54456" y="96.80492000000004"/>
      <point x="406.30007" y="54.223960000000034"/>
      <point x="412.09518" y="11.784950000000094" type="curve" smooth="yes"/>
      <point x="412.98422000000005" y="5.274270000000115"/>
      <point x="408.42199000000005" y="0.42836000000011154"/>
      <point x="401.87216" y="0.9567700000001196" type="curve" smooth="yes"/>
      <point x="310.75972" y="8.307320000000118" type="line" smooth="yes"/>
      <point x="299.17204000000004" y="9.242160000000126"/>
      <point x="290.68222000000003" y="19.380770000000098"/>
      <point x="291.76021000000003" y="30.95600000000013" type="curve" smooth="yes"/>
      <point x="294.90601000000004" y="64.73505000000011"/>
      <point x="297.81828" y="98.53584000000012"/>
      <point x="300.49673" y="132.3551500000001" type="curve" smooth="yes"/>
      <point x="307.46203" y="220.30214000000012"/>
      <point x="312.84833000000003" y="308.4526800000001"/>
      <point x="312.427" y="396.6740500000001" type="curve" smooth="yes"/>
      <point x="311.98312000000004" y="489.6179200000001"/>
      <point x="305.09521" y="582.4043000000001"/>
      <point x="297.36883" y="675.0275300000001" type="curve"/>
    </contour>
    <contour>
      <point x="422.86652" y="348.28446" type="line"/>
      <point x="360.70408" y="360.32885"/>
      <point x="296.91263" y="363.94643"/>
      <point x="233.78782" y="358.99" type="curve" smooth="yes"/>
      <point x="157.56561" y="353.00519"/>
      <point x="82.345579" y="334.48036"/>
      <point x="12.044963" y="304.42714" type="curve" smooth="yes"/>
      <point x="3.8425964" y="300.92067"/>
      <point x="-2.68956" y="305.13835"/>
      <point x="-2.6367636" y="314.05883" type="curve" smooth="yes"/>
      <point x="-1.9307694" y="433.34358" type="line" smooth="yes"/>
      <point x="-1.8956823999999999" y="439.27182"/>
      <point x="2.8994225" y="443.46358"/>
      <point x="8.788091399999999" y="442.77918" type="curve" smooth="yes"/>
      <point x="81.437409" y="434.33562"/>
      <point x="155.04275" y="434.13706"/>
      <point x="227.73572000000001" y="442.19879" type="curve" smooth="yes"/>
      <point x="293.21367000000004" y="449.46036"/>
      <point x="357.94668" y="463.41832999999997"/>
      <point x="420.6016" y="483.77574999999996" type="curve" smooth="yes"/>
      <point x="427.56038" y="486.03675999999996"/>
      <point x="433.17326" y="482.02430999999996"/>
      <point x="433.17326" y="474.70736999999997" type="curve" smooth="yes"/>
      <point x="433.17326" y="356.72117" type="line" smooth="yes"/>
      <point x="433.17326" y="350.91438999999997"/>
      <point x="428.56723000000005" y="347.17990999999995"/>
      <point x="422.86652000000004" y="348.28445999999997" type="curve"/>
    </contour>
    <contour>
      <point x="149.13543" y="150.02567999999997" type="curve" smooth="yes"/>
      <point x="152.83927000000003" y="110.92049999999995"/>
      <point x="156.76037000000002" y="71.83588999999995"/>
      <point x="160.89848" y="32.774279999999976" type="curve" smooth="yes"/>
      <point x="162.79578" y="14.86478999999997"/>
      <point x="149.85152" y="1.7547700000000077"/>
      <point x="131.92517" y="3.4856700000000274" type="curve" smooth="yes"/>
      <point x="40.878731" y="12.27678000000003" type="line" smooth="yes"/>
      <point x="31.022239000000003" y="13.228490000000079"/>
      <point x="23.885069" y="21.982020000000034"/>
      <point x="24.887306000000002" y="31.833489999999983" type="curve" smooth="yes"/>
      <point x="27.516691" y="57.678980000000024"/>
      <point x="29.890212000000002" y="83.55048999999997"/>
      <point x="32.007391000000005" y="109.44296999999995" type="curve" smooth="yes"/>
      <point x="45.484111" y="274.25926000000004"/>
      <point x="48.553557" y="440.15236"/>
      <point x="35.33262" y="604.98937" type="curve" smooth="yes"/>
      <point x="30.550746" y="664.60918"/>
      <point x="23.641478" y="724.058329"/>
      <point x="14.62289" y="783.185758" type="curve" smooth="yes"/>
      <point x="13.205737" y="792.4768557"/>
      <point x="19.527791" y="798.8243063"/>
      <point x="28.813792" y="797.3740146" type="curve" smooth="yes"/>
      <point x="135.08039" y="780.77725" type="line" smooth="yes"/>
      <point x="144.9013" y="779.243417"/>
      <point x="151.49314999999999" y="770.058995"/>
      <point x="149.92792" y="760.243102" type="curve" smooth="yes"/>
      <point x="143.8397" y="722.06259"/>
      <point x="139.14596" y="683.65972"/>
      <point x="135.85978" y="645.13675" type="curve" smooth="yes"/>
      <point x="121.80774" y="480.40866"/>
      <point x="133.54632" y="314.61543"/>
    </contour>
  </outline>
</glyph>
<glyph name="L" format="2">
  <advance height="1024" width="403"/>
  <unicode hex="004C"/>
  <outline>
    <contour>
      <point x="34.592248" y="751.960407" type="line"/>
      <point x="39.788769" y="723.864761"/>
      <point x="43.765742" y="695.54355"/>
      <point x="46.50721" y="667.10319" type="curve" smooth="yes"/>
      <point x="63.626322" y="489.5072"/>
      <point x="32.462929" y="311.25574"/>
      <point x="23.014583" y="133.08691999999996" type="curve" smooth="yes"/>
      <point x="21.118581" y="97.33372999999995"/>
      <point x="20.097765" y="61.53413999999998"/>
      <point x="19.953105" y="25.73100999999997" type="curve" smooth="yes"/>
      <point x="19.895688" y="11.520260000000007"/>
      <point x="31.520251" y="0.0"/>
      <point x="45.7312" y="0.0" type="curve" smooth="yes"/>
      <point x="363.45597" y="0.0" type="line" smooth="yes"/>
      <point x="371.6307229167987" y="-1.3180692803871352e-07"/>
      <point x="378.6961675991939" y="5.707086864150597"/>
      <point x="380.41549" y="13.69898999999998" type="curve" smooth="yes"/>
      <point x="398.55215" y="98.00348999999994" type="line" smooth="yes"/>
      <point x="401.54100999999997" y="111.89657999999997"/>
      <point x="393.6185" y="118.0696099999999"/>
      <point x="380.52709999999996" y="112.54501999999991" type="curve" smooth="yes"/>
      <point x="327.73296999999997" y="90.26581999999996"/>
      <point x="271.09309999999994" y="77.10551999999996"/>
      <point x="213.87661999999997" y="73.91106999999988" type="curve" smooth="yes"/>
      <point x="180.11615999999998" y="72.02618999999993"/>
      <point x="146.16470999999996" y="73.5791999999999"/>
      <point x="112.71729999999998" y="78.53828999999985" type="curve"/>
      <point x="110.32104999999999" y="108.97163999999987"/>
      <point x="108.83880999999998" y="139.47695999999985"/>
      <point x="108.27324999999998" y="169.99925999999982" type="curve" smooth="yes"/>
      <point x="106.59135999999998" y="260.7672399999998"/>
      <point x="113.02186999999998" y="351.5655399999998"/>
      <point x="124.34764999999997" y="441.6398499999998" type="curve" smooth="yes"/>
      <point x="134.49357999999998" y="522.3307099999997"/>
      <point x="148.57853999999998" y="602.6551499999998"/>
      <point x="152.97077999999996" y="683.8626799999997" type="curve" smooth="yes"/>
      <point x="154.81852999999995" y="718.0254599999998"/>
      <point x="154.94393999999997" y="752.2813109999997"/>
      <point x="153.34752999999995" y="786.4567459999998" type="curve" smooth="yes"/>
      <point x="152.99801" y="793.9389716"/>
      <point x="146.72842" y="798.5480766"/>
      <point x="139.45526" y="796.7570383" type="curve" smooth="yes"/>
      <point x="48.979077" y="774.477002" type="line" smooth="yes"/>
      <point x="39.087136" y="772.041082"/>
      <point x="32.739447" y="761.977807"/>
      <point x="34.592248" y="751.960407" type="curve"/>
    </contour>
  </outline>
</glyph>
<glyph name="P" format="2">
  <advance height="1024" width="476"/>
  <unicode hex="0050"/>
  <outline>
    <contour>
      <point x="140.87259" y="394.31298" type="line"/>
      <point x="199.83339" y="372.9063"/>
      <point x="269.00649999999996" y="382.13603"/>
      <point x="320.29197999999997" y="418.2528" type="curve" smooth="yes"/>
      <point x="344.00737999999996" y="434.95389"/>
      <point x="364.05814999999996" y="457.19476"/>
      <point x="376.64097" y="483.32939999999996" type="curve" smooth="yes"/>
      <point x="389.22379" y="509.46403"/>
      <point x="394.09923" y="539.53485"/>
      <point x="388.69676" y="568.0332699999999" type="curve" smooth="yes"/>
      <point x="382.86231" y="598.81036"/>
      <point x="365.16807" y="626.84938"/>
      <point x="341.14761" y="646.95629" type="curve" smooth="yes"/>
      <point x="317.12714" y="667.06319"/>
      <point x="287.06435999999997" y="679.41433"/>
      <point x="256.08607" y="684.0636" type="curve" smooth="yes"/>
      <point x="213.21035" y="690.49846"/>
      <point x="168.26316000000003" y="682.21224"/>
      <point x="130.50066" y="660.91135" type="curve" smooth="yes"/>
      <point x="100.71455" y="644.1097599999999"/>
      <point x="75.54629000000001" y="619.2942499999999"/>
      <point x="58.062128000000016" y="589.91929" type="curve" smooth="yes"/>
      <point x="50.310597000000016" y="576.89602"/>
      <point x="41.18224100000002" y="576.8311699999999"/>
      <point x="35.57488100000002" y="590.92502" type="curve" smooth="yes"/>
      <point x="3.6162954" y="671.25151" type="line" smooth="yes"/>
      <point x="0.80638361" y="678.3141"/>
      <point x="2.4881963" y="688.76611"/>
      <point x="7.6712582" y="694.32495" type="curve" smooth="yes"/>
      <point x="61.879855" y="752.463734"/>
      <point x="139.71135" y="788.134544"/>
      <point x="219.2114" y="790.7240056" type="curve" smooth="yes"/>
      <point x="271.91757" y="792.4407421"/>
      <point x="325.59773" y="779.790887"/>
      <point x="369.90569" y="751.195574" type="curve" smooth="yes"/>
      <point x="400.96464" y="731.150858"/>
      <point x="427.09319" y="703.468111"/>
      <point x="445.07225999999997" y="671.16946" type="curve" smooth="yes"/>
      <point x="463.05132" y="638.87082"/>
      <point x="472.82108" y="602.00748"/>
      <point x="472.92413999999997" y="565.04211" type="curve" smooth="yes"/>
      <point x="473.08243" y="508.26813"/>
      <point x="450.46052999999995" y="452.78799"/>
      <point x="415.62832" y="407.95466999999996" type="curve" smooth="yes"/>
      <point x="380.79609999999997" y="363.12134999999995"/>
      <point x="334.31786" y="328.34151999999995"/>
      <point x="284.37771" y="301.33612999999997" type="curve" smooth="yes"/>
      <point x="241.22915999999998" y="278.00333"/>
      <point x="195.14306" y="260.10961"/>
      <point x="147.55452999999997" y="248.21215999999993" type="curve"/>
    </contour>
    <contour>
      <point x="179.1269" y="140.5503" type="curve" smooth="yes"/>
      <point x="184.37243" y="99.16562999999996"/>
      <point x="193.906" y="58.32645000000002"/>
      <point x="207.51201" y="18.89223000000004" type="curve" smooth="yes"/>
      <point x="211.13327" y="8.396759999999972"/>
      <point x="205.38268" y="0.0"/>
      <point x="194.27954" y="0.0" type="curve" smooth="yes"/>
      <point x="86.966208" y="0.0" type="line" smooth="yes"/>
      <point x="78.74005199999999" y="0.0"/>
      <point x="72.319368" y="6.664009999999962"/>
      <point x="72.643639" y="14.883780000000002" type="curve" smooth="yes"/>
      <point x="74.208828" y="54.558880000000045"/>
      <point x="76.092536" y="94.22140999999999"/>
      <point x="78.294525" y="133.86627" type="curve" smooth="yes"/>
      <point x="87.232517" y="294.78691"/>
      <point x="101.35843" y="457.06864"/>
      <point x="77.223244" y="616.41993" type="curve" smooth="yes"/>
      <point x="68.538258" y="673.76209"/>
      <point x="54.92016" y="730.356003"/>
      <point x="36.574751" y="785.374037" type="curve" smooth="yes"/>
      <point x="33.87434" y="793.4725911"/>
      <point x="38.493986" y="800.0"/>
      <point x="47.030977" y="800.0" type="curve" smooth="yes"/>
      <point x="149.89882" y="800.0" type="line" smooth="yes"/>
      <point x="156.40935" y="800.0"/>
      <point x="162.61430000000001" y="794.8041562"/>
      <point x="163.70427" y="788.385536" type="curve" smooth="yes"/>
      <point x="181.8865" y="681.31399"/>
      <point x="188.98358000000002" y="572.36261"/>
      <point x="184.83671" y="463.83722" type="curve" smooth="yes"/>
      <point x="180.71517" y="355.97465"/>
      <point x="165.55387000000002" y="247.63482"/>
    </contour>
  </outline>
</glyph>
<glyph name="W" format="2">
	<unicode hex="0057"/>
	<advance height="1024" width="703"/>
	<outline>
		<contour>
			<point x="113.68554" y="492.10035" type="line"/>
			<point x="96.961417" y="386.01602"/>
			<point x="100.48896" y="275.33286"/>
			<point x="136.39813" y="174.33763" type="curve" smooth="yes"/>
			<point x="138.1897" y="169.29881"/>
			<point x="141.24993" y="161.18513"/>
			<point x="143.23215" y="156.21822" type="curve" smooth="yes"/>
			<point x="147.82341" y="144.71375"/>
			<point x="152.8346" y="133.37687"/>
			<point x="158.25268" y="122.23788" type="curve"/>
			<point x="190.23057" y="201.3994"/>
			<point x="218.49434" y="282.06115"/>
			<point x="242.92025" y="363.86889" type="curve" smooth="yes"/>
			<point x="243.77639" y="366.73631"/>
			<point x="245.15525" y="371.38807"/>
			<point x="246" y="374.25886" type="curve" smooth="yes"/>
			<point x="258.01911" y="415.10416"/>
			<point x="269.08308" y="456.23052"/>
			<point x="279.17988" y="497.59297" type="curve" smooth="yes"/>
			<point x="281.14751" y="505.65352"/>
			<point x="289.01745" y="514.51345"/>
			<point x="296.80742" y="517.37014" type="curve" smooth="yes"/>
			<point x="362.18691" y="541.34576" type="line" smooth="yes"/>
			<point x="369.97688" y="544.20245"/>
			<point x="377.70416" y="539.9418"/>
			<point x="379.52053" y="531.84583" type="curve" smooth="yes"/>
			<point x="396.17581" y="457.60959"/>
			<point x="417.46004" y="384.41206"/>
			<point x="443.21072" y="312.82068" type="curve" smooth="yes"/>
			<point x="466.988" y="246.71569"/>
			<point x="494.57184" y="181.9801"/>
			<point x="525.78006" y="119.04144" type="curve"/>
			<point x="532.30792" y="134.21246"/>
			<point x="538.36827" y="149.58463"/>
			<point x="543.9497" y="165.12878" type="curve" smooth="yes"/>
			<point x="544.961" y="167.94521"/>
			<point x="546.56989" y="172.52257"/>
			<point x="547.54279" y="175.3525" type="curve" smooth="yes"/>
			<point x="576.66071" y="260.04938"/>
			<point x="591.44824" y="349.99513"/>
			<point x="587.11705" y="439.43965" type="curve" smooth="yes"/>
			<point x="582.29385" y="539.04465"/>
			<point x="553.52342" y="637.39587"/>
			<point x="504.01972" y="723.954034" type="curve" smooth="yes"/>
			<point x="499.9006" y="731.156386"/>
			<point x="502.43309" y="739.888428"/>
			<point x="509.86909" y="743.569472" type="curve" smooth="yes"/>
			<point x="610.39924" y="793.3348785" type="line" smooth="yes"/>
			<point x="617.83524" y="797.0159235"/>
			<point x="625.61827" y="793.5065886"/>
			<point x="627.71015" y="785.477395" type="curve" smooth="yes"/>
			<point x="656.34875" y="675.55495"/>
			<point x="674.84143" y="562.99093"/>
			<point x="682.87357" y="449.68333" type="curve" smooth="yes"/>
			<point x="683.25172" y="444.34881"/>
			<point x="683.82006" y="435.69669"/>
			<point x="684.1397" y="430.35834" type="curve" smooth="yes"/>
			<point x="689.31008" y="344.0072"/>
			<point x="687.6498" y="256.17407"/>
			<point x="663.19753" y="173.28874" type="curve" smooth="yes"/>
			<point x="648.95862" y="125.02341"/>
			<point x="627.06903" y="79.02638"/>
			<point x="598.62628" y="37.51538" type="curve" smooth="yes"/>
			<point x="593.9366" y="30.671"/>
			<point x="583.32815" y="24.02767"/>
			<point x="575.17081" y="22.51044" type="curve" smooth="yes"/>
			<point x="468.91445" y="2.74719" type="line" smooth="yes"/>
			<point x="460.75711" y="1.22996"/>
			<point x="451.52945" y="6.19724"/>
			<point x="448.34574" y="13.85936" type="curve" smooth="yes"/>
			<point x="415.84191" y="92.08529"/>
			<point x="386.57463" y="171.65599"/>
			<point x="360.64455" y="252.29981" type="curve" smooth="yes"/>
			<point x="349.39593" y="287.28358"/>
			<point x="338.775" y="322.46918"/>
			<point x="328.7886" y="357.83396" type="curve"/>
			<point x="320.30548" y="331.10999"/>
			<point x="311.71789" y="304.41919"/>
			<point x="303.02608" y="277.76237" type="curve" smooth="yes"/>
			<point x="301.07067" y="271.76534"/>
			<point x="297.89" y="262.04559"/>
			<point x="295.92186" y="256.05272" type="curve" smooth="yes"/>
			<point x="271.53672" y="181.80148"/>
			<point x="246.34244" y="107.81597"/>
			<point x="220.34501" y="34.11377" type="curve" smooth="yes"/>
			<point x="217.58495" y="26.28904"/>
			<point x="208.71254" y="18.78688"/>
			<point x="200.54015" y="17.35291" type="curve" smooth="yes"/>
			<point x="116.44061" y="2.59643" type="line" smooth="yes"/>
			<point x="108.26822" y="1.16246"/>
			<point x="98.341184" y="5.86106"/>
			<point x="94.444028" y="13.18593" type="curve" smooth="yes"/>
			<point x="60.858808" y="76.31084"/>
			<point x="36.993966" y="144.60061"/>
			<point x="23.985336" y="214.91192" type="curve" smooth="yes"/>
			<point x="2.4517508" y="331.30039"/>
			<point x="10.713662" y="451.00765"/>
			<point x="22.859111" y="568.7466" type="curve" smooth="yes"/>
			<point x="30.316802" y="641.04205"/>
			<point x="39.210298" y="713.189387"/>
			<point x="49.532508" y="785.131734" type="curve" smooth="yes"/>
			<point x="50.71092" y="793.3448709"/>
			<point x="58.266573" y="798.6050725"/>
			<point x="66.383432" y="796.8843422" type="curve" smooth="yes"/>
			<point x="190.84941" y="770.498227" type="line" smooth="yes"/>
			<point x="198.96627" y="768.777497"/>
			<point x="202.38493" y="761.444864"/>
			<point x="198.62648" y="754.047796" type="curve" smooth="yes"/>
			<point x="159.80066" y="677.63421"/>
			<point x="132.17582" y="595.5378"/>
			<point x="116.91957" y="511.19452" type="curve" smooth="yes"/>
			<point x="115.96767" y="505.93203"/>
			<point x="114.51834" y="497.383"/>
			<point x="113.68554" y="492.10035" type="curve"/>
		</contour>
	</outline>
	<anchor name="top" x="338.67004" y="794.7139816"/>
</glyph>
<glyph name="b" format="2">
  <advance height="1024" width="511"/>
  <unicode hex="0062"/>
  <outline>
    <contour>
      <point x="31.257533" y="598.82971" type="curve" smooth="yes"/>
      <point x="50.316649" y="405.30061"/>
      <point x="46.183014" y="209.49891000000002"/>
      <point x="18.992303" y="16.944499999999948" type="curve" smooth="yes"/>
      <point x="17.670164" y="7.581609999999955"/>
      <point x="24.154387" y="0.8726999999998952"/>
      <point x="33.54871" y="1.9492199999999684" type="curve" smooth="yes"/>
      <point x="125.81715" y="12.522550000000024" type="line" smooth="yes"/>
      <point x="132.93778" y="13.338520000000017"/>
      <point x="137.87592" y="19.750030000000038"/>
      <point x="136.88518" y="26.84845000000007" type="curve" smooth="yes"/>
      <point x="123.18749" y="124.98874"/>
      <point x="114.93376" y="223.88868000000002"/>
      <point x="112.17605" y="322.94191" type="curve" smooth="yes"/>
      <point x="107.8254" y="479.21162"/>
      <point x="117.17499" y="635.86016"/>
      <point x="140.07827" y="790.5034883" type="curve" smooth="yes"/>
      <point x="140.85525" y="795.7496698"/>
      <point x="137.24935" y="799.3697345"/>
      <point x="132.00323" y="798.5922626" type="curve" smooth="yes"/>
      <point x="22.40286" y="782.349525" type="line" smooth="yes"/>
      <point x="13.647057" y="781.051918"/>
      <point x="7.7891635" y="772.93237"/>
      <point x="9.2550187" y="764.203174" type="curve" smooth="yes"/>
      <point x="18.46624" y="709.350174"/>
      <point x="25.806239" y="654.18296"/>
    </contour>
    <contour>
      <point x="292.96926" y="3.610080000000039" type="curve" smooth="yes"/>
      <point x="332.66546" y="15.548260000000028"/>
      <point x="366.86883" y="41.61855000000003"/>
      <point x="395.08925" y="71.98162000000002" type="curve" smooth="yes"/>
      <point x="446.53505" y="127.33346000000006"/>
      <point x="480.51358" y="198.48153000000002"/>
      <point x="492.32016" y="273.12134000000003" type="curve" smooth="yes"/>
      <point x="502.23278" y="335.78778000000005"/>
      <point x="496.54911" y="401.34625000000005"/>
      <point x="472.49091999999996" y="460.05354" type="curve" smooth="yes"/>
      <point x="459.70062999999993" y="491.26468"/>
      <point x="441.67544999999996" y="520.5780199999999"/>
      <point x="417.76698" y="544.37111" type="curve" smooth="yes"/>
      <point x="393.8585" y="568.16421"/>
      <point x="363.90018" y="586.28232"/>
      <point x="331.07588999999996" y="594.0471299999999" type="curve" smooth="yes"/>
      <point x="302.62137999999993" y="600.77823"/>
      <point x="272.50080999999994" y="599.6184499999999"/>
      <point x="244.28487999999996" y="591.9485099999999" type="curve" smooth="yes"/>
      <point x="216.06894999999997" y="584.27856"/>
      <point x="189.74865999999997" y="570.2065"/>
      <point x="166.86937999999998" y="551.99921" type="curve" smooth="yes"/>
      <point x="124.91211999999999" y="518.60971"/>
      <point x="94.53484699999998" y="470.93960999999996"/>
      <point x="81.99301999999997" y="418.80543" type="curve"/>
      <point x="116.10150999999998" y="264.1177" type="line"/>
      <point x="118.14408999999998" y="285.02387999999996"/>
      <point x="121.59651999999997" y="305.79219"/>
      <point x="126.42756999999997" y="326.23483" type="curve" smooth="yes"/>
      <point x="139.9192" y="383.3248"/>
      <point x="165.94766999999996" y="440.00998"/>
      <point x="212.37095" y="475.87315" type="curve" smooth="yes"/>
      <point x="230.40884" y="489.80788"/>
      <point x="251.30137" y="500.29537"/>
      <point x="273.60935" y="504.97469" type="curve" smooth="yes"/>
      <point x="295.91734" y="509.65402"/>
      <point x="319.65439000000003" y="508.3618"/>
      <point x="340.82076" y="499.90443" type="curve" smooth="yes"/>
      <point x="359.52324" y="492.43154"/>
      <point x="375.85963000000004" y="479.53549"/>
      <point x="388.42456" y="463.79543" type="curve" smooth="yes"/>
      <point x="400.98949" y="448.05538"/>
      <point x="409.86057999999997" y="429.53637000000003"/>
      <point x="415.42641" y="410.18053000000003" type="curve" smooth="yes"/>
      <point x="426.01561999999996" y="373.35529"/>
      <point x="424.72396999999995" y="334.14449"/>
      <point x="420.06825999999995" y="296.1109" type="curve" smooth="yes"/>
      <point x="415.35002999999995" y="257.56653000000006"/>
      <point x="407.12068999999997" y="219.00210000000004"/>
      <point x="390.12251999999995" y="184.08803999999998" type="curve" smooth="yes"/>
      <point x="373.12433999999996" y="149.17396999999994"/>
      <point x="346.71901999999994" y="117.94788999999992"/>
      <point x="312.13722999999993" y="100.28352999999993" type="curve" smooth="yes"/>
      <point x="291.7823399999999" y="89.88625999999988"/>
      <point x="268.1974799999999" y="84.38238999999987"/>
      <point x="245.82555999999994" y="89.06445999999994" type="curve" smooth="yes"/>
      <point x="225.94260999999995" y="93.22562999999991"/>
      <point x="208.27738999999994" y="105.17980999999997"/>
      <point x="194.58768999999995" y="120.18778999999995" type="curve" smooth="yes"/>
      <point x="180.898" y="135.19577000000004"/>
      <point x="170.87073" y="153.17217000000005"/>
      <point x="162.27193" y="171.57618000000002" type="curve" smooth="yes"/>
      <point x="135.5746" y="228.71648000000005"/>
      <point x="121.6073" y="291.76219"/>
      <point x="121.67306" y="354.83165" type="curve"/>
      <point x="88.60052" y="213.32934" type="line"/>
      <point x="97.524555" y="177.62071000000003"/>
      <point x="108.9731" y="142.54323"/>
      <point x="122.83242000000001" y="108.44537000000003" type="curve" smooth="yes"/>
      <point x="130.86709000000002" y="88.67781000000002"/>
      <point x="139.78011" y="69.11589000000004"/>
      <point x="151.93151" y="51.575770000000034" type="curve" smooth="yes"/>
      <point x="164.08292" y="34.03566000000001"/>
      <point x="179.68018" y="18.495859999999993"/>
      <point x="198.71221" y="8.847330000000056" type="curve" smooth="yes"/>
      <point x="227.4715" y="-5.732559999999921"/>
      <point x="262.09148" y="-5.676059999999893"/>
    </contour>
  </outline>
</glyph>
<glyph name="e" format="2">
	<unicode hex="0065"/>
	<advance height="1024" width="438"/>
	<outline>
		<contour>
			<point x="231.85846" y="594.56494" type="line"/>
			<point x="187.37463" y="584.75259"/>
			<point x="147.62118" y="558.72933"/>
			<point x="115.73847" y="526.1934" type="curve" smooth="yes"/>
			<point x="62.766249" y="472.13588"/>
			<point x="30.05189" y="399.85342"/>
			<point x="18.507556" y="325.05368" type="curve" smooth="yes"/>
			<point x="8.8278583" y="262.33557"/>
			<point x="13.769981" y="196.63412"/>
			<point x="38.336796" y="138.12148" type="curve" smooth="yes"/>
			<point x="51.344486" y="107.14008"/>
			<point x="69.836647" y="78.28912"/>
			<point x="93.821808" y="54.75703" type="curve" smooth="yes"/>
			<point x="117.80697" y="31.22494"/>
			<point x="147.37708" y="13.12359"/>
			<point x="179.75183" y="4.12789" type="curve" smooth="yes"/>
			<point x="235.48044" y="-11.35695"/>
			<point x="296.62823" y="1.19262"/>
			<point x="346.72063" y="30.10991" type="curve" smooth="yes"/>
			<point x="366.42963" y="41.4875"/>
			<point x="384.71902" y="55.31802"/>
			<point x="401.05248" y="71.16386" type="curve" smooth="yes"/>
			<point x="409.23821" y="79.10521"/>
			<point x="414.3496" y="95.28359"/>
			<point x="413.14573" y="106.62744" type="curve" smooth="yes"/>
			<point x="405.20758" y="181.42755" type="line" smooth="yes"/>
			<point x="403.56765" y="196.88044"/>
			<point x="394.62048" y="199.34429"/>
			<point x="384.18608" y="187.83441" type="curve" smooth="yes"/>
			<point x="360.85859" y="162.10251"/>
			<point x="333.76427" y="139.78377"/>
			<point x="304.01015" y="121.86479" type="curve" smooth="yes"/>
			<point x="283.88399" y="109.74411"/>
			<point x="262.3408" y="99.54892"/>
			<point x="239.39175" y="94.51758" type="curve" smooth="yes"/>
			<point x="216.4427" y="89.48625"/>
			<point x="191.93749" y="89.84294"/>
			<point x="170.00696" y="98.27059" type="curve" smooth="yes"/>
			<point x="151.19395" y="105.50022"/>
			<point x="134.83426" y="118.46867"/>
			<point x="122.32995" y="134.27497" type="curve" smooth="yes"/>
			<point x="109.82563" y="150.08127"/>
			<point x="101.07188" y="168.65434"/>
			<point x="95.401306" y="187.99449" type="curve" smooth="yes"/>
			<point x="84.607026" y="224.80962"/>
			<point x="84.86528" y="264.15464"/>
			<point x="90.759456" y="302.06412" type="curve" smooth="yes"/>
			<point x="96.875786" y="341.40243"/>
			<point x="109.08977" y="380.05428"/>
			<point x="129.2939" y="414.35742" type="curve" smooth="yes"/>
			<point x="149.49803" y="448.66056"/>
			<point x="177.91615" y="478.5096"/>
			<point x="212.69049" y="497.89149" type="curve" smooth="yes"/>
			<point x="222.78909" y="503.52007"/>
			<point x="233.47812" y="508.28852"/>
			<point x="244.79005" y="510.67658" type="curve" smooth="yes"/>
			<point x="256.10199" y="513.06464"/>
			<point x="268.10746" y="512.97944"/>
			<point x="279.00216" y="509.11056" type="curve" smooth="yes"/>
			<point x="295.03792" y="503.41601"/>
			<point x="307.4875" y="489.83462"/>
			<point x="314.40315" y="474.2864" type="curve" smooth="yes"/>
			<point x="321.05095" y="459.34037"/>
			<point x="323.02815" y="442.5552"/>
			<point x="321.48851" y="426.27004" type="curve" smooth="yes"/>
			<point x="319.94886" y="409.98488"/>
			<point x="314.99624" y="394.15664"/>
			<point x="308.31989" y="379.22334" type="curve" smooth="yes"/>
			<point x="285.71198" y="328.65517"/>
			<point x="243.32961" y="288.37331"/>
			<point x="194.33288" y="262.53578" type="curve" smooth="yes"/>
			<point x="153.21894" y="240.85509"/>
			<point x="107.12334" y="228.69151"/>
			<point x="60.665081" y="227.2639" type="curve"/>
			<point x="99.21944" y="126.72667" type="line"/>
			<point x="155.02398" y="153.20234"/>
			<point x="208.80125" y="183.94973"/>
			<point x="259.92557" y="218.61112" type="curve" smooth="yes"/>
			<point x="321.09499" y="260.08291"/>
			<point x="380.68843" y="310.05137"/>
			<point x="409.13224" y="378.26102" type="curve" smooth="yes"/>
			<point x="424.3101" y="414.65827"/>
			<point x="429.68251" y="456.10817"/>
			<point x="418.35505" y="493.88139" type="curve" smooth="yes"/>
			<point x="405.17107" y="537.84547"/>
			<point x="369.31701" y="573.82647"/>
			<point x="326.11551" y="589.32769" type="curve" smooth="yes"/>
			<point x="296.1039" y="600.09621"/>
			<point x="262.99502" y="601.43312"/>
			<point x="231.85846" y="594.56494" type="curve"/>
		</contour>
	</outline>
	<anchor name="top" x="253.84598" y="656.90445"/>
</glyph>
<glyph name="m" format="2">
  <advance height="1024" width="711"/>
  <unicode hex="006D"/>
  <outline>
    <contour>
      <point x="695.48908" y="21.04830000000004" type="line"/>
      <point x="575.20463" y="4.503520000000094" type="line" smooth="yes"/>
      <point x="566.4324799999999" y="3.2969300000000885"/>
      <point x="559.0062399999999" y="9.490750000000048"/>
      <point x="558.79185" y="18.34279000000015" type="curve" smooth="yes"/>
      <point x="557.45161" y="73.68263000000013"/>
      <point x="561.1596199999999" y="129.14430000000016"/>
      <point x="569.8626899999999" y="183.8121100000002" type="curve" smooth="yes"/>
      <point x="577.7338799999999" y="233.25454000000013"/>
      <point x="589.68788" y="282.13655000000017"/>
      <point x="593.6999299999999" y="332.0405900000002" type="curve" smooth="yes"/>
      <point x="597.0164099999998" y="373.29276000000016"/>
      <point x="594.7003599999999" y="415.6909200000002"/>
      <point x="580.2019399999999" y="454.45349000000016" type="curve" smooth="yes"/>
      <point x="577.43509" y="461.8508600000002"/>
      <point x="574.2129299999999" y="469.12876000000017"/>
      <point x="569.8127499999999" y="475.68733000000014" type="curve" smooth="yes"/>
      <point x="565.41256" y="482.2459000000001"/>
      <point x="559.7763199999999" y="488.08843000000013"/>
      <point x="552.9002099999999" y="491.97374000000013" type="curve" smooth="yes"/>
      <point x="546.9116099999999" y="495.3575700000001"/>
      <point x="540.0933099999999" y="497.18389000000013"/>
      <point x="533.2258599999999" y="497.5734200000001" type="curve" smooth="yes"/>
      <point x="526.3584099999999" y="497.9629500000001"/>
      <point x="519.4435499999998" y="496.9378600000001"/>
      <point x="512.8781799999999" y="494.8861500000001" type="curve" smooth="yes"/>
      <point x="499.74742999999995" y="490.7827400000001"/>
      <point x="488.19298999999995" y="482.6957800000001"/>
      <point x="477.9201299999999" y="473.5457500000001" type="curve" smooth="yes"/>
      <point x="455.1086399999999" y="453.2275700000001"/>
      <point x="437.74950999999993" y="427.3411100000001"/>
      <point x="424.5026299999999" y="399.8145300000001" type="curve" smooth="yes"/>
      <point x="411.2557499999999" y="372.2879400000001"/>
      <point x="401.9553799999999" y="343.0453400000001"/>
      <point x="393.5231499999999" y="313.6839700000001" type="curve" smooth="yes"/>
      <point x="381.52542999999986" y="271.90744000000007"/>
      <point x="371.19264999999984" y="229.6527900000001"/>
      <point x="362.55755999999985" y="187.05398000000014" type="curve"/>
      <point x="347.39038" y="353.10574" type="line"/>
      <point x="358.79652" y="415.08492"/>
      <point x="385.41857" y="474.20679"/>
      <point x="424.26578" y="523.8295" type="curve" smooth="yes"/>
      <point x="441.71752000000004" y="546.12203"/>
      <point x="461.90511000000004" y="566.76259"/>
      <point x="486.36895" y="581.0118200000001" type="curve" smooth="yes"/>
      <point x="510.83279" y="595.26106"/>
      <point x="539.98092" y="602.7307400000001"/>
      <point x="567.8504399999999" y="597.7497800000001" type="curve" smooth="yes"/>
      <point x="590.3686799999999" y="593.72522"/>
      <point x="611.1108099999999" y="581.71573"/>
      <point x="627.11943" y="565.3758300000001" type="curve" smooth="yes"/>
      <point x="643.1280499999999" y="549.03592"/>
      <point x="654.54349" y="528.52262"/>
      <point x="661.73037" y="506.80588000000006" type="curve" smooth="yes"/>
      <point x="676.1041299999999" y="463.3723800000001"/>
      <point x="673.77329" y="416.32281000000006"/>
      <point x="669.12003" y="370.8099500000001" type="curve" smooth="yes"/>
      <point x="663.9998300000001" y="320.73005000000006"/>
      <point x="656.25391" y="270.81765000000007"/>
      <point x="655.1608200000001" y="220.48856" type="curve" smooth="yes"/>
      <point x="654.0677300000001" y="170.15945999999997"/>
      <point x="659.93028" y="118.76518999999996"/>
      <point x="680.82271" y="72.96432000000004" type="curve" smooth="yes"/>
      <point x="686.6992700000001" y="60.08158000000003"/>
      <point x="693.7308" y="47.72637000000009"/>
      <point x="701.79947" y="36.090509999999995" type="curve" smooth="yes"/>
      <point x="706.84424" y="28.815420000000017"/>
      <point x="704.2612300000001" y="22.254890000000046"/>
      <point x="695.4890800000001" y="21.04830000000004" type="curve"/>
    </contour>
    <contour>
      <point x="414.37756999999993" y="25.11036999999999" type="line"/>
      <point x="307.43044999999995" y="3.2156400000000076" type="line" smooth="yes"/>
      <point x="298.75562999999994" y="1.4396900000000414"/>
      <point x="293.65620999999993" y="6.913630000000012"/>
      <point x="295.88721999999996" y="15.482610000000022" type="curve" smooth="yes"/>
      <point x="307.57687999999996" y="60.380859999999984"/>
      <point x="316.14124999999996" y="106.09271000000001"/>
      <point x="321.49420999999995" y="152.17796999999996" type="curve" smooth="yes"/>
      <point x="328.48681999999997" y="212.37946"/>
      <point x="329.99641999999994" y="273.15369"/>
      <point x="327.5642399999999" y="333.7111" type="curve" smooth="yes"/>
      <point x="326.0161099999999" y="372.25707"/>
      <point x="322.4897899999999" y="412.08898"/>
      <point x="303.93488999999994" y="445.91062999999997" type="curve" smooth="yes"/>
      <point x="300.26735999999994" y="452.59574999999995"/>
      <point x="296.01883999999995" y="459.00624999999997"/>
      <point x="290.79144999999994" y="464.55746999999997" type="curve" smooth="yes"/>
      <point x="285.56406999999996" y="470.10869999999994"/>
      <point x="279.32258999999993" y="474.79215"/>
      <point x="272.2613799999999" y="477.66981" type="curve" smooth="yes"/>
      <point x="265.13740999999993" y="480.57304999999997"/>
      <point x="257.2977399999999" y="481.57867999999996"/>
      <point x="249.6303699999999" y="480.95328" type="curve" smooth="yes"/>
      <point x="241.9629999999999" y="480.32787"/>
      <point x="234.46600999999993" y="478.09876"/>
      <point x="227.52419999999992" y="474.7835" type="curve" smooth="yes"/>
      <point x="213.64057999999991" y="468.15297"/>
      <point x="202.15806999999992" y="457.35218"/>
      <point x="192.1346499999999" y="445.67957" type="curve" smooth="yes"/>
      <point x="149.1214399999999" y="395.58927"/>
      <point x="130.3833799999999" y="328.42491"/>
      <point x="126.5253099999999" y="262.51368" type="curve" smooth="yes"/>
      <point x="123.0111999999999" y="202.47874000000002"/>
      <point x="130.7862499999999" y="142.44550000000004"/>
      <point x="136.2807399999999" y="82.55933000000005" type="curve" smooth="yes"/>
      <point x="137.7127699999999" y="66.95120000000009"/>
      <point x="138.9905699999999" y="51.32892000000004"/>
      <point x="140.1138999999999" y="35.69554000000005" type="curve" smooth="yes"/>
      <point x="140.7485199999999" y="26.86358000000007"/>
      <point x="134.1004999999999" y="18.702920000000063"/>
      <point x="125.3315999999999" y="17.472870000000057" type="curve" smooth="yes"/>
      <point x="16.77124" y="2.244609999999966" type="line" smooth="yes"/>
      <point x="8.0023464" y="1.0145599999999604"/>
      <point x="3.3505657" y="6.763090000000034"/>
      <point x="6.1843535" y="15.151970000000006" type="curve" smooth="yes"/>
      <point x="11.7645" y="31.67089999999996"/>
      <point x="16.777563" y="48.38140999999996"/>
      <point x="21.211323" y="65.24423999999999" type="curve" smooth="yes"/>
      <point x="38.732606" y="131.88260000000002"/>
      <point x="47.141184" y="200.65957000000003"/>
      <point x="50.687408" y="269.47155999999995" type="curve" smooth="yes"/>
      <point x="54.709005" y="347.50784"/>
      <point x="52.329278" y="427.09357"/>
      <point x="28.670839" y="501.56579" type="curve" smooth="yes"/>
      <point x="22.786901" y="520.0873"/>
      <point x="15.611003" y="538.19811"/>
      <point x="7.2157191" y="555.72479" type="curve" smooth="yes"/>
      <point x="3.3907204" y="563.7101700000001"/>
      <point x="6.9585683" y="571.86622"/>
      <point x="15.524659" y="574.10867" type="curve" smooth="yes"/>
      <point x="102.43612" y="596.86059" type="line" smooth="yes"/>
      <point x="106.12448154623138" y="597.8261403273953"/>
      <point x="110.05214866642574" y="597.0144675022963"/>
      <point x="113.05565292330576" y="594.6660083245896" type="curve" smooth="yes"/>
      <point x="116.05915718018576" y="592.317549146883"/>
      <point x="117.79412217397949" y="588.7015737249021"/>
      <point x="117.74661000000005" y="584.88922" type="curve" smooth="yes"/>
      <point x="114.4045" y="316.71367" type="line"/>
      <point x="83.204804" y="318.11015" type="line"/>
      <point x="97.656492" y="376.061"/>
      <point x="118.14584" y="432.50428"/>
      <point x="144.23397" y="486.23101" type="curve" smooth="yes"/>
      <point x="158.23003" y="515.05494"/>
      <point x="174.19339" y="543.57518"/>
      <point x="197.34289" y="565.72938" type="curve" smooth="yes"/>
      <point x="208.91764" y="576.80648"/>
      <point x="222.23718000000002" y="586.17598"/>
      <point x="236.97595" y="592.4565600000001" type="curve" smooth="yes"/>
      <point x="251.71473" y="598.73713"/>
      <point x="267.90343" y="601.86726"/>
      <point x="283.87366000000003" y="600.59096" type="curve" smooth="yes"/>
      <point x="304.50544" y="598.94212"/>
      <point x="324.23113" y="589.92935"/>
      <point x="340.07971000000003" y="576.61727" type="curve" smooth="yes"/>
      <point x="355.92829000000006" y="563.30519"/>
      <point x="368.01630000000006" y="545.84809"/>
      <point x="376.45466000000005" y="526.9488100000001" type="curve" smooth="yes"/>
      <point x="393.33138" y="489.15023"/>
      <point x="395.70079000000004" y="446.65042000000005"/>
      <point x="396.33946000000003" y="405.26023000000004" type="curve" smooth="yes"/>
      <point x="397.05449000000004" y="358.92123000000004"/>
      <point x="395.92256000000003" y="312.57660000000004"/>
      <point x="395.42338" y="266.23477" type="curve" smooth="yes"/>
      <point x="394.99533" y="226.49604"/>
      <point x="395.03962" y="186.63036"/>
      <point x="399.91008" y="147.1889" type="curve" smooth="yes"/>
      <point x="404.2781" y="111.81627000000003"/>
      <point x="412.53407" y="76.92581999999993"/>
      <point x="424.46861" y="43.34236999999996" type="curve" smooth="yes"/>
      <point x="427.43353" y="34.99919"/>
      <point x="423.05239" y="26.886319999999955"/>
      <point x="414.37757" y="25.11036999999999" type="curve"/>
    </contour>
  </outline>
</glyph>
<glyph name="n" format="2">
	<unicode hex="006E"/>
	<advance height="1024" width="482"/>
	<outline>
		<contour>
			<point x="481.88939" y="10.64683" type="line"/>
			<point x="368.74097" y="3.22719" type="line" smooth="yes"/>
			<point x="354.89438" y="2.3192"/>
			<point x="342.67592" y="12.79265"/>
			<point x="342.01114" y="26.65228" type="curve" smooth="yes"/>
			<point x="339.87295" y="71.22971"/>
			<point x="342.03604" y="116.01345"/>
			<point x="348.4752" y="160.17542" type="curve" smooth="yes"/>
			<point x="354.52111" y="201.64008"/>
			<point x="364.31357" y="242.5162"/>
			<point x="369.50873" y="284.09602" type="curve" smooth="yes"/>
			<point x="374.7039" y="325.67584"/>
			<point x="375.1553" y="368.63243"/>
			<point x="362.80299" y="408.67356" type="curve" smooth="yes"/>
			<point x="358.67683" y="422.04889"/>
			<point x="353.06714" y="435.13372"/>
			<point x="344.56392" y="446.25216" type="curve" smooth="yes"/>
			<point x="336.06069" y="457.3706"/>
			<point x="324.46141" y="466.45385"/>
			<point x="310.98805" y="470.24769" type="curve" smooth="yes"/>
			<point x="300.81167" y="473.11316"/>
			<point x="289.90524" y="472.87852"/>
			<point x="279.60518" y="470.49555" type="curve" smooth="yes"/>
			<point x="269.30513" y="468.11259"/>
			<point x="259.57418" y="463.64057"/>
			<point x="250.51745" y="458.18664" type="curve" smooth="yes"/>
			<point x="216.90399" y="437.94473"/>
			<point x="192.94974" y="404.71365"/>
			<point x="175.40104" y="369.61888" type="curve" smooth="yes"/>
			<point x="149.6717" y="318.16405"/>
			<point x="135.87147" y="261.12445"/>
			<point x="132.19949" y="203.71265" type="curve" smooth="yes"/>
			<point x="129.61067" y="163.23624"/>
			<point x="131.97094" y="122.51606"/>
			<point x="137.93269" y="82.39749" type="curve" smooth="yes"/>
			<point x="140.12176" y="67.66654"/>
			<point x="142.79545" y="53.00762"/>
			<point x="145.9474" y="38.45227" type="curve" smooth="yes"/>
			<point x="148.88407" y="24.89106"/>
			<point x="140.51669" y="12.96158"/>
			<point x="126.69961" y="11.68063" type="curve" smooth="yes"/>
			<point x="25.911785" y="2.33677" type="line" smooth="yes"/>
			<point x="12.094708" y="1.05582"/>
			<point x="4.8214424" y="10.56258"/>
			<point x="9.1697855" y="23.7393" type="curve" smooth="yes"/>
			<point x="13.680555" y="37.40821"/>
			<point x="17.793811" y="51.20832"/>
			<point x="21.502202" y="65.11638" type="curve" smooth="yes"/>
			<point x="59.202209" y="206.50763"/>
			<point x="54.264655" y="356.43706"/>
			<point x="29.068513" y="500.58258" type="curve" smooth="yes"/>
			<point x="25.640214" y="520.19566"/>
			<point x="21.843844" y="539.7444"/>
			<point x="17.682183" y="559.21506" type="curve" smooth="yes"/>
			<point x="14.781798" y="572.78474"/>
			<point x="23.384642" y="585.2482"/>
			<point x="37.136171" y="587.10505" type="curve" smooth="yes"/>
			<point x="105.83103" y="596.38081" type="line" smooth="yes"/>
			<point x="119.58256" y="598.23766"/>
			<point x="131.49015" y="588.51884"/>
			<point x="132.19166" y="574.66039" type="curve" smooth="yes"/>
			<point x="134.5019" y="529.02153"/>
			<point x="134.91584" y="483.28669"/>
			<point x="133.43088" y="437.61352" type="curve" smooth="yes"/>
			<point x="131.63492" y="382.37502"/>
			<point x="127.06129" y="327.22692"/>
			<point x="119.73304" y="272.44723" type="curve"/>
			<point x="67.288869" y="266.74055" type="line"/>
			<point x="93.2885" y="360.40963"/>
			<point x="139.77514" y="448.33454"/>
			<point x="202.54445" y="522.56318" type="curve" smooth="yes"/>
			<point x="221.06263" y="544.46209"/>
			<point x="241.29416" y="565.44032"/>
			<point x="265.8658" y="580.22949" type="curve" smooth="yes"/>
			<point x="290.43744" y="595.01867"/>
			<point x="319.93814" y="603.21201"/>
			<point x="348.12816" y="597.93868" type="curve" smooth="yes"/>
			<point x="370.35335" y="593.78115"/>
			<point x="390.59881" y="581.44736"/>
			<point x="406.25624" y="565.13512" type="curve" smooth="yes"/>
			<point x="421.91366" y="548.82288"/>
			<point x="433.19386" y="528.68223"/>
			<point x="441.2243" y="507.54562" type="curve" smooth="yes"/>
			<point x="454.98165" y="471.33544"/>
			<point x="459.47286" y="432.13205"/>
			<point x="458.98384" y="393.3996" type="curve" smooth="yes"/>
			<point x="458.49482" y="354.66715"/>
			<point x="453.15741" y="316.17828"/>
			<point x="447.81569" y="277.81283" type="curve" smooth="yes"/>
			<point x="442.52504" y="239.8142"/>
			<point x="437.20848" y="201.61778"/>
			<point x="438.08761" y="163.26268" type="curve" smooth="yes"/>
			<point x="438.85583" y="129.74627"/>
			<point x="444.5794" y="95.84069"/>
			<point x="458.46675" y="65.45373" type="curve" smooth="yes"/>
			<point x="461.79236" y="58.17695"/>
			<point x="468.11136" y="46.81633"/>
			<point x="472.56116" y="40.16738" type="curve" smooth="yes"/>
			<point x="476.77995" y="33.86361"/>
			<point x="481.4015" y="27.82929"/>
			<point x="486.38813" y="22.1136" type="curve" smooth="yes"/>
			<point x="491.64784" y="16.08493"/>
			<point x="489.87505" y="11.17048"/>
			<point x="481.88939" y="10.64683" type="curve"/>
		</contour>
	</outline>
	<anchor name="top" x="213.84598" y="657.25195"/>
</glyph>
<glyph name="p" format="2">
  <advance height="1024" width="492"/>
  <unicode hex="0070"/>
  <outline>
    <contour>
      <point x="21.257536" y="-1.6585099999999784" type="curve" smooth="yes"/>
      <point x="35.653686" y="183.04206999999997"/>
      <point x="30.600797" y="369.25169"/>
      <point x="6.2295262" y="552.90191" type="curve" smooth="yes"/>
      <point x="4.299947" y="567.44229"/>
      <point x="14.283761" y="581.4382"/>
      <point x="28.692246" y="584.18473" type="curve" smooth="yes"/>
      <point x="100.41632" y="597.85668" type="line" smooth="yes"/>
      <point x="114.82481" y="600.60321"/>
      <point x="124.96211" y="591.03927"/>
      <point x="123.20331999999999" y="576.47723" type="curve" smooth="yes"/>
      <point x="111.08828" y="476.17004000000003"/>
      <point x="104.06638999999998" y="375.24779"/>
      <point x="102.17605999999999" y="274.22929" type="curve" smooth="yes"/>
      <point x="99.35772599999999" y="123.61847"/>
      <point x="107.95889" y="-27.204470000000015"/>
      <point x="127.87378999999999" y="-176.51928999999996" type="curve" smooth="yes"/>
      <point x="129.81294999999997" y="-191.05840999999998"/>
      <point x="119.72222999999998" y="-201.2095999999999"/>
      <point x="105.19094999999999" y="-199.21222" type="curve" smooth="yes"/>
      <point x="26.860299" y="-188.44538" type="line" smooth="yes"/>
      <point x="12.329012" y="-186.44799999999998"/>
      <point x="2.3088821" y="-173.06867999999997"/>
      <point x="4.317094" y="-158.53895" type="curve" smooth="yes"/>
      <point x="11.519406" y="-106.42908"/>
      <point x="17.169714" y="-54.104690000000005"/>
    </contour>
    <contour>
      <point x="341.22707" y="589.82932" type="curve" smooth="yes"/>
      <point x="385.21609" y="573.13224"/>
      <point x="418.61687" y="535.6872900000001"/>
      <point x="441.20248000000004" y="494.41118" type="curve" smooth="yes"/>
      <point x="477.39911000000006" y="428.26038"/>
      <point x="489.48447000000004" y="350.46317999999997"/>
      <point x="482.63838000000004" y="275.36821" type="curve" smooth="yes"/>
      <point x="476.88724" y="212.28377"/>
      <point x="457.77229000000005" y="149.70246999999995"/>
      <point x="421.96405000000004" y="97.44835999999998" type="curve" smooth="yes"/>
      <point x="402.85003000000006" y="69.55571999999995"/>
      <point x="378.92978000000005" y="44.65215999999998"/>
      <point x="350.31199000000004" y="26.641959999999926" type="curve" smooth="yes"/>
      <point x="321.6942" y="8.631759999999872"/>
      <point x="288.23197000000005" y="-2.2711600000001226"/>
      <point x="254.42004000000003" y="-1.957360000000108" type="curve" smooth="yes"/>
      <point x="225.74843000000004" y="-1.6912600000000566"/>
      <point x="197.45925000000003" y="6.582009999999855"/>
      <point x="172.02008000000004" y="19.81000999999992" type="curve" smooth="yes"/>
      <point x="146.58090000000004" y="33.03800999999987"/>
      <point x="123.88217000000003" y="51.116559999999936"/>
      <point x="103.57647000000003" y="71.36032999999998" type="curve" smooth="yes"/>
      <point x="87.40233" y="87.48514999999998"/>
      <point x="72.654149" y="105.03976"/>
      <point x="59.560261" y="123.75238999999999" type="curve"/>
      <point x="86.060217" y="217.19736999999998" type="line"/>
      <point x="88.45996" y="206.60667"/>
      <point x="92.479447" y="196.38455999999996"/>
      <point x="97.93592" y="186.99581" type="curve" smooth="yes"/>
      <point x="111.86099" y="163.03547000000003"/>
      <point x="134.41431" y="145.44870000000003"/>
      <point x="157.21967999999998" y="129.70322" type="curve" smooth="yes"/>
      <point x="176.12042999999997" y="116.65359999999998"/>
      <point x="195.74944999999997" y="104.34808999999996"/>
      <point x="217.18687" y="96.10383000000002" type="curve" smooth="yes"/>
      <point x="238.6243" y="87.85955999999999"/>
      <point x="262.10361" y="83.81829000000005"/>
      <point x="284.74127" y="87.69995000000006" type="curve" smooth="yes"/>
      <point x="304.50737" y="91.08922000000007"/>
      <point x="322.99827" y="100.43604000000005"/>
      <point x="338.56086" y="113.08482000000004" type="curve" smooth="yes"/>
      <point x="354.12345" y="125.73361"/>
      <point x="366.86153" y="141.60628000000008"/>
      <point x="377.34051999999997" y="158.70531000000005" type="curve" smooth="yes"/>
      <point x="397.78650999999996" y="192.06792000000007"/>
      <point x="409.80715" y="230.18065"/>
      <point x="415.28457999999995" y="268.9246800000001" type="curve" smooth="yes"/>
      <point x="420.80539999999996" y="307.9756000000001"/>
      <point x="419.74836999999997" y="348.3145600000001"/>
      <point x="408.65391999999997" y="386.16118000000006" type="curve" smooth="yes"/>
      <point x="397.55947" y="424.00781000000006"/>
      <point x="376.04028" y="459.26923000000005"/>
      <point x="345.13521" y="483.77088000000003" type="curve" smooth="yes"/>
      <point x="327.26727999999997" y="497.93664"/>
      <point x="305.73353999999995" y="508.56476000000004"/>
      <point x="282.94595" y="509.37559000000005" type="curve" smooth="yes"/>
      <point x="257.58543" y="510.27797000000004"/>
      <point x="232.93426" y="498.84947000000005"/>
      <point x="213.63831" y="482.36806000000007" type="curve" smooth="yes"/>
      <point x="194.34235999999999" y="465.88666000000006"/>
      <point x="179.76342" y="444.6302300000001"/>
      <point x="166.53368999999998" y="422.9751100000001" type="curve" smooth="yes"/>
      <point x="148.54559999999998" y="393.5312600000001"/>
      <point x="132.59317" y="362.8175300000001"/>
      <point x="119.39808999999998" y="330.9364800000001" type="curve" smooth="yes"/>
      <point x="109.96018999999998" y="308.1332700000001"/>
      <point x="101.93745999999999" y="284.74445000000003"/>
      <point x="95.39138999999999" y="260.94929" type="curve"/>
      <point x="83.862352" y="413.85273" type="line"/>
      <point x="95.07406" y="438.35534"/>
      <point x="108.02479" y="462.06202"/>
      <point x="122.58489" y="484.73543" type="curve" smooth="yes"/>
      <point x="138.11427" y="508.91824"/>
      <point x="155.59768" y="532.0611"/>
      <point x="176.80026" y="551.46267" type="curve" smooth="yes"/>
      <point x="198.00283000000002" y="570.86423"/>
      <point x="223.11567000000002" y="586.46878"/>
      <point x="250.83897000000002" y="594.0443" type="curve" smooth="yes"/>
      <point x="280.42043" y="602.12757"/>
      <point x="312.55697000000004" y="600.71174"/>
    </contour>
  </outline>
</glyph>
<glyph name="q" format="2">
  <advance height="1024" width="499"/>
  <unicode hex="0071"/>
  <outline>
    <contour>
      <point x="469.92866" y="-1.6585099999999784" type="curve" smooth="yes"/>
      <point x="445.25064" y="179.98494000000005"/>
      <point x="450.87701999999996" y="365.70605"/>
      <point x="486.46375" y="545.52896" type="curve" smooth="yes"/>
      <point x="487.98582" y="553.2201"/>
      <point x="483.24839000000003" y="561.44838"/>
      <point x="475.80854" y="563.92212" type="curve" smooth="yes"/>
      <point x="384.29386" y="594.35061" type="line" smooth="yes"/>
      <point x="376.85401" y="596.82435"/>
      <point x="371.48237" y="592.50815"/>
      <point x="372.25982" y="584.70647" type="curve" smooth="yes"/>
      <point x="382.54062" y="481.53891"/>
      <point x="388.13204" y="377.90413"/>
      <point x="389.01014" y="274.22929" type="curve" smooth="yes"/>
      <point x="390.32050999999996" y="119.51766999999995"/>
      <point x="381.12568" y="-35.28197"/>
      <point x="361.51284999999996" y="-188.75092999999993" type="curve" smooth="yes"/>
      <point x="360.51896999999997" y="-196.52800999999988"/>
      <point x="365.87917999999996" y="-201.40869999999995"/>
      <point x="373.52128999999996" y="-199.65684999999996" type="curve" smooth="yes"/>
      <point x="487.92465" y="-173.43184999999994" type="line" smooth="yes"/>
      <point x="495.56676" y="-171.68003"/>
      <point x="500.25611" y="-164.0848699999999"/>
      <point x="498.47135" y="-156.45039999999995" type="curve" smooth="yes"/>
      <point x="486.52333" y="-105.34168999999997"/>
      <point x="476.99458" y="-53.66745000000003"/>
    </contour>
    <contour>
      <point x="241.78062" y="609.8242700000001" type="line"/>
      <point x="212.98218" y="612.97751"/>
      <point x="183.60298" y="605.16895"/>
      <point x="158.41219999999998" y="590.861" type="curve" smooth="yes"/>
      <point x="133.22141" y="576.55305"/>
      <point x="111.98431" y="556.01561"/>
      <point x="94.08359999999999" y="533.23717" type="curve" smooth="yes"/>
      <point x="43.00867599999999" y="468.24493"/>
      <point x="18.668848999999994" y="385.60222"/>
      <point x="10.233598999999984" y="303.37397" type="curve" smooth="yes"/>
      <point x="3.2959394999999843" y="235.74447999999995"/>
      <point x="7.112527299999984" y="164.43361000000004"/>
      <point x="39.44893699999999" y="104.63198" type="curve" smooth="yes"/>
      <point x="66.52384399999998" y="54.56075999999996"/>
      <point x="114.41026999999998" y="14.857970000000023"/>
      <point x="170.1103" y="3.1240699999999606" type="curve" smooth="yes"/>
      <point x="198.6504" y="-2.8882600000000593"/>
      <point x="228.58866999999998" y="-1.597120000000018"/>
      <point x="256.76347" y="5.943829999999934" type="curve" smooth="yes"/>
      <point x="284.93827" y="13.484779999999887"/>
      <point x="311.34565999999995" y="27.199469999999906"/>
      <point x="334.31681" y="45.17198999999994" type="curve" smooth="yes"/>
      <point x="376.58772999999997" y="78.24455999999998"/>
      <point x="407.0711" y="126.08114999999998"/>
      <point x="419.19317" y="178.36576999999988" type="curve"/>
      <point x="385.08468" y="333.0535" type="line"/>
      <point x="383.05631999999997" y="312.14561"/>
      <point x="379.60368" y="291.37602"/>
      <point x="374.75862" y="270.93637" type="curve" smooth="yes"/>
      <point x="361.23129" y="213.86918000000003"/>
      <point x="335.11025" y="157.30395999999996"/>
      <point x="288.81524" y="121.29804999999999" type="curve" smooth="yes"/>
      <point x="270.79996" y="107.28667999999993"/>
      <point x="249.93044000000003" y="96.67606999999998"/>
      <point x="227.60213000000002" y="91.95213000000001" type="curve" smooth="yes"/>
      <point x="205.27382000000003" y="87.22820000000002"/>
      <point x="181.46665000000002" y="88.57150000000001"/>
      <point x="160.36543" y="97.26677000000007" type="curve" smooth="yes"/>
      <point x="141.80582" y="104.91471000000001"/>
      <point x="125.75079" y="118.03722000000005"/>
      <point x="113.32009" y="133.79881000000012" type="curve" smooth="yes"/>
      <point x="100.88939" y="149.56041000000005"/>
      <point x="91.976859" y="167.90407000000005"/>
      <point x="85.759783" y="186.99067000000002" type="curve" smooth="yes"/>
      <point x="74.024724" y="223.01763000000005"/>
      <point x="71.769688" y="261.6793"/>
      <point x="75.536433" y="299.38162" type="curve" smooth="yes"/>
      <point x="79.332794" y="337.38037"/>
      <point x="89.312446" y="375.10838"/>
      <point x="108.0526" y="408.38186" type="curve" smooth="yes"/>
      <point x="126.79276" y="441.65533000000005"/>
      <point x="154.64454999999998" y="470.31498"/>
      <point x="189.04896" y="486.88767" type="curve" smooth="yes"/>
      <point x="209.59028" y="496.78248"/>
      <point x="232.94829" y="502.29482"/>
      <point x="255.36063000000001" y="498.10674" type="curve" smooth="yes"/>
      <point x="274.098" y="494.60538"/>
      <point x="291.18436" y="484.48119"/>
      <point x="305.02657" y="471.37616" type="curve" smooth="yes"/>
      <point x="318.86878" y="458.27113"/>
      <point x="329.67214" y="442.2663"/>
      <point x="338.91426" y="425.59502000000003" type="curve" smooth="yes"/>
      <point x="369.67367" y="370.11007000000006"/>
      <point x="383.96003" y="305.62419"/>
      <point x="379.51313" y="242.33955000000003" type="curve"/>
      <point x="412.58567" y="383.84186" type="line"/>
      <point x="405.44209" y="420.00853"/>
      <point x="393.92095" y="455.30844"/>
      <point x="378.35377" y="488.72583" type="curve" smooth="yes"/>
      <point x="364.91313" y="517.57827"/>
      <point x="348.21494" y="545.34146"/>
      <point x="325.46166" y="567.5990999999999" type="curve" smooth="yes"/>
      <point x="302.70838" y="589.85674"/>
      <point x="273.42098" y="606.35986"/>
      <point x="241.78062" y="609.82427" type="curve"/>
    </contour>
  </outline>
</glyph>
<glyph name="r" format="2">
	<unicode hex="0072"/>
	<advance height="1024" width="345"/>
	<outline>
		<contour>
			<point x="233.17986" y="392.09794" type="line"/>
			<point x="237.75047" y="416.25273"/>
			<point x="238.83505" y="441.06651"/>
			<point x="236.36958" y="465.52659" type="curve" smooth="yes"/>
			<point x="233.01478" y="498.80973"/>
			<point x="223.06454" y="531.41501"/>
			<point x="207.26419" y="560.90011" type="curve"/>
			<point x="276.06767" y="571.58635" type="line"/>
			<point x="255.07483" y="543.65164"/>
			<point x="236.24468" y="514.0921"/>
			<point x="219.80121" y="483.25934" type="curve" smooth="yes"/>
			<point x="195.23709" y="437.19975"/>
			<point x="176.02884" y="388.34244"/>
			<point x="161.76201" y="338.1295" type="curve" smooth="yes"/>
			<point x="149.63289" y="295.44035"/>
			<point x="141.04333" y="251.62719"/>
			<point x="138.3739" y="207.32873" type="curve" smooth="yes"/>
			<point x="134.51234" y="143.2471"/>
			<point x="143.20328" y="78.43659"/>
			<point x="163.76678" y="17.62354" type="curve" smooth="yes"/>
			<point x="165.4992" y="12.50022"/>
			<point x="162.63292" y="7.94303"/>
			<point x="157.25129" y="7.40577" type="curve" smooth="yes"/>
			<point x="35.812623" y="-4.71772" type="line" smooth="yes"/>
			<point x="30.43099" y="-5.25498"/>
			<point x="26.832205" y="-1.37317"/>
			<point x="27.737463" y="3.95891" type="curve" smooth="yes"/>
			<point x="40.315129" y="78.04277"/>
			<point x="47.586882" y="153.02705"/>
			<point x="49.476197" y="228.1473" type="curve" smooth="yes"/>
			<point x="51.57749" y="311.69589"/>
			<point x="46.961949" y="395.82618"/>
			<point x="28.598963" y="477.35889" type="curve" smooth="yes"/>
			<point x="21.468216" y="509.01982"/>
			<point x="12.278974" y="540.21689"/>
			<point x="1.1108734" y="570.68873" type="curve" smooth="yes"/>
			<point x="-1.5473435" y="577.9416"/>
			<point x="2.228662" y="585.37965"/>
			<point x="9.6957447" y="587.35819" type="curve" smooth="yes"/>
			<point x="96.854541" y="610.45254" type="line" smooth="yes"/>
			<point x="104.32162" y="612.43108"/>
			<point x="110.46014" y="607.77343"/>
			<point x="110.56534" y="600.04939" type="curve" smooth="yes"/>
			<point x="111.47654" y="533.1456"/>
			<point x="112.38996" y="466.24185"/>
			<point x="113.30559" y="399.33813" type="curve" smooth="yes"/>
			<point x="114.31397" y="325.65741"/>
			<point x="115.32503" y="251.97673"/>
			<point x="116.33878" y="178.29608" type="curve" smooth="yes"/>
			<point x="116.41078" y="173.06131"/>
			<point x="112.22888" y="168.64069"/>
			<point x="106.99817" y="168.42235" type="curve" smooth="yes"/>
			<point x="71.300727" y="166.93221" type="line" smooth="yes"/>
			<point x="66.070023" y="166.71387"/>
			<point x="63.032521" y="170.60688"/>
			<point x="64.492081" y="175.63457" type="curve" smooth="yes"/>
			<point x="76.624989" y="217.42824"/>
			<point x="87.517332" y="259.58206"/>
			<point x="97.149775" y="302.02184" type="curve" smooth="yes"/>
			<point x="114.83701" y="379.95039"/>
			<point x="128.80454" y="460.31894"/>
			<point x="167.33602" y="530.32624" type="curve" smooth="yes"/>
			<point x="176.68822" y="547.31812"/>
			<point x="187.42331" y="563.54854"/>
			<point x="199.39858" y="578.80564" type="curve" smooth="yes"/>
			<point x="201.47934" y="581.45664"/>
			<point x="205.88848" y="584.09611"/>
			<point x="209.19633" y="584.7409" type="curve" smooth="yes"/>
			<point x="281.66765" y="598.86751" type="line" smooth="yes"/>
			<point x="284.9755" y="599.5123"/>
			<point x="288.7296" y="597.52227"/>
			<point x="290.02417" y="594.41073" type="curve" smooth="yes"/>
			<point x="303.15728" y="562.8451"/>
			<point x="314.1151" y="530.37457"/>
			<point x="322.79285" y="497.30546" type="curve" smooth="yes"/>
			<point x="328.46249" y="475.69963"/>
			<point x="333.15966" y="453.83865"/>
			<point x="336.86597" y="431.81095" type="curve" smooth="yes"/>
			<point x="337.77941" y="426.38213"/>
			<point x="334.2693" y="420.41973"/>
			<point x="329.10713" y="418.50693" type="curve" smooth="yes"/>
			<point x="240.59304" y="385.70884" type="line" smooth="yes"/>
			<point x="235.35071" y="383.76634"/>
			<point x="232.1405" y="386.60514"/>
			<point x="233.17986" y="392.09794" type="curve"/>
		</contour>
	</outline>
	<anchor name="top" x="144.89188" y="595.03725"/>
</glyph>
<glyph name="y" format="2">
  <advance height="1024" width="473"/>
  <unicode hex="0079"/>
  <anchor x="233.84598" y="657.25195" name="top"/>
  <outline>
    <contour>
      <point x="392.13047" y="359.64879" type="line"/>
      <point x="381.70911" y="267.54742"/>
      <point x="352.65855" y="177.59324000000004"/>
      <point x="307.24181" y="96.79357000000005" type="curve" smooth="yes"/>
      <point x="292.27438" y="70.16543000000001"/>
      <point x="275.17354" y="44.09098000000006"/>
      <point x="251.64119999999997" y="24.61509000000001" type="curve" smooth="yes"/>
      <point x="239.87502999999998" y="14.877140000000054"/>
      <point x="226.55994999999996" y="6.895369999999957"/>
      <point x="212.11521999999997" y="1.9334900000000061" type="curve" smooth="yes"/>
      <point x="197.67049999999998" y="-3.028389999999945"/>
      <point x="182.07298999999998" y="-4.912169999999946"/>
      <point x="166.96555999999998" y="-2.668049999999994" type="curve" smooth="yes"/>
      <point x="146.31613" y="0.3993000000000393"/>
      <point x="127.28785999999998" y="11.07002"/>
      <point x="111.89653999999999" y="25.173729999999978" type="curve" smooth="yes"/>
      <point x="96.505211" y="39.277439999999956"/>
      <point x="84.503841" y="56.70804999999996"/>
      <point x="74.224288" y="74.87775999999997" type="curve" smooth="yes"/>
      <point x="17.401814" y="175.31479000000002"/>
      <point x="12.095367" y="296.44526"/>
      <point x="18.423263" y="411.6683" type="curve" smooth="yes"/>
      <point x="21.527974" y="468.20119"/>
      <point x="27.090099" y="524.59905"/>
      <point x="35.087692" y="580.6494299999999" type="curve" smooth="yes"/>
      <point x="36.500441" y="590.55054"/>
      <point x="45.360684" y="595.82831"/>
      <point x="54.775171" y="592.4525" type="curve" smooth="yes"/>
      <point x="146.51899" y="559.55537" type="line" smooth="yes"/>
      <point x="155.93348" y="556.17956"/>
      <point x="159.18131" y="546.6175"/>
      <point x="154.17957" y="537.95746" type="curve" smooth="yes"/>
      <point x="138.10676" y="510.12886999999995"/>
      <point x="125.16126000000001" y="480.49404999999996"/>
      <point x="115.68205" y="449.78682" type="curve" smooth="yes"/>
      <point x="91.93344400000001" y="372.85486"/>
      <point x="90.378049" y="289.42259"/>
      <point x="109.71167" y="211.26419999999996" type="curve" smooth="yes"/>
      <point x="113.95034" y="194.12887999999998"/>
      <point x="119.26433" y="177.02233999999999"/>
      <point x="128.53149" y="161.99884999999995" type="curve" smooth="yes"/>
      <point x="137.79864999999998" y="146.97534999999993"/>
      <point x="151.42595" y="134.07066999999995"/>
      <point x="168.2034" y="128.58407" type="curve" smooth="yes"/>
      <point x="181.60111999999998" y="124.20271000000002"/>
      <point x="196.38927999999999" y="124.79555000000005"/>
      <point x="209.78392" y="129.18629999999996" type="curve" smooth="yes"/>
      <point x="223.17856" y="133.57705999999996"/>
      <point x="235.21322" y="141.6302599999999"/>
      <point x="245.22289999999998" y="151.55504999999994" type="curve" smooth="yes"/>
      <point x="265.24226" y="171.40462999999988"/>
      <point x="276.94338" y="197.99122999999997"/>
      <point x="287.03893" y="224.3134799999999" type="curve" smooth="yes"/>
      <point x="317.63247" y="304.08039999999994"/>
      <point x="337.76929" y="388.3700399999999"/>
      <point x="340.42012" y="473.7614899999999" type="curve" smooth="yes"/>
      <point x="341.24703" y="500.3987399999999"/>
      <point x="340.37472" y="527.0885099999999"/>
      <point x="337.81329" y="553.6151799999999" type="curve" smooth="yes"/>
      <point x="336.85206" y="563.5699599999999"/>
      <point x="343.7067" y="573.4632799999999"/>
      <point x="353.44419" y="575.7458199999999" type="curve" smooth="yes"/>
      <point x="433.16098999999997" y="594.4320399999999" type="line" smooth="yes"/>
      <point x="442.89847999999995" y="596.71458"/>
      <point x="449.57520999999997" y="590.54838"/>
      <point x="448.25426" y="580.6346799999999" type="curve" smooth="yes"/>
      <point x="441.27699" y="528.27055"/>
      <point x="438.03328999999997" y="475.4090599999999"/>
      <point x="438.56031" y="422.5846899999999" type="curve" smooth="yes"/>
      <point x="440.06821" y="271.4437999999999"/>
      <point x="472.34851000000003" y="121.06023999999991"/>
      <point x="463.16813" y="-29.809110000000146" type="curve" smooth="yes"/>
      <point x="461.74244000000004" y="-53.23869000000013"/>
      <point x="459.29206" y="-76.74336000000017"/>
      <point x="452.97451" y="-99.35014000000012" type="curve" smooth="yes"/>
      <point x="446.65697" y="-121.95692000000008"/>
      <point x="436.30082" y="-143.75029000000018"/>
      <point x="420.52316" y="-161.12968000000012" type="curve" smooth="yes"/>
      <point x="406.57039000000003" y="-176.4989200000001"/>
      <point x="388.71455000000003" y="-188.03325000000007"/>
      <point x="369.58584" y="-196.09462000000008" type="curve" smooth="yes"/>
      <point x="350.45713" y="-204.15600000000006"/>
      <point x="330.0453" y="-208.84540000000004"/>
      <point x="309.48979" y="-211.73750000000007" type="curve" smooth="yes"/>
      <point x="243.27018000000004" y="-221.05450000000008"/>
      <point x="174.97734000000003" y="-211.78250000000003"/>
      <point x="112.27731000000003" y="-188.53311000000008" type="curve" smooth="yes"/>
      <point x="87.82345300000003" y="-179.46541000000013"/>
      <point x="64.14811300000002" y="-168.30019000000004"/>
      <point x="41.59229600000003" y="-155.20654000000013" type="curve" smooth="yes"/>
      <point x="32.943188000000035" y="-150.18574000000012"/>
      <point x="27.038024000000036" y="-137.75214000000017"/>
      <point x="28.176835000000032" y="-127.8157500000001" type="curve" smooth="yes"/>
      <point x="40.763821" y="-17.99141999999995" type="line" smooth="yes"/>
      <point x="41.902632" y="-8.055029999999988"/>
      <point x="47.499873" y="-6.636069999999904"/>
      <point x="53.801561" y="-14.40048999999999" type="curve" smooth="yes"/>
      <point x="66.433842" y="-29.964939999999956"/>
      <point x="80.64154500000001" y="-44.25105999999994"/>
      <point x="96.14428799999999" y="-56.959299999999985" type="curve" smooth="yes"/>
      <point x="144.31064999999998" y="-96.44326000000001"/>
      <point x="206.74018999999998" y="-120.40059999999994"/>
      <point x="268.81683" y="-115.35356999999999" type="curve" smooth="yes"/>
      <point x="296.30212" y="-113.11892999999998"/>
      <point x="324.45669999999996" y="-104.64265999999998"/>
      <point x="344.03438" y="-85.22232999999994" type="curve" smooth="yes"/>
      <point x="355.42551" y="-73.92274999999995"/>
      <point x="363.33331" y="-59.47214999999994"/>
      <point x="368.62912" y="-44.326439999999934" type="curve" smooth="yes"/>
      <point x="373.92494" y="-29.180729999999926"/>
      <point x="376.72567" y="-13.28374999999994"/>
      <point x="378.96259" y="2.604440000000068" type="curve" smooth="yes"/>
      <point x="384.95741" y="45.18393000000003"/>
      <point x="387.04904" y="88.26085000000012"/>
      <point x="386.49447" y="131.25670000000014" type="curve" smooth="yes"/>
      <point x="385.49906" y="208.43160000000012"/>
      <point x="375.96934999999996" y="285.49341000000015"/>
      <point x="358.13487999999995" y="360.58594000000016" type="curve"/>
    </contour>
  </outline>
</glyph>
<glyph name="z" format="2">
  <advance height="1024" width="471"/>
  <unicode hex="007A"/>
  <anchor x="229.01007" y="648.32217" name="top"/>
  <outline>
    <contour>
      <point x="80.293611" y="428.7265" type="line"/>
      <point x="7.4768061" y="500.84906" type="line" smooth="yes"/>
      <point x="1.7451899" y="506.52603"/>
      <point x="0.46799533" y="516.74824"/>
      <point x="5.2209688" y="523.26383" type="curve" smooth="yes"/>
      <point x="31.191357" y="558.8652099999999"/>
      <point x="70.050115" y="584.98392"/>
      <point x="112.95047" y="595.19998" type="curve" smooth="yes"/>
      <point x="164.69305" y="607.5216800000001"/>
      <point x="218.7049" y="597.2907700000001"/>
      <point x="271.59591" y="591.66408" type="curve" smooth="yes"/>
      <point x="334.41928" y="584.98076"/>
      <point x="397.94282" y="584.90399"/>
      <point x="460.78321" y="591.42223" type="curve" smooth="yes"/>
      <point x="470.3699" y="592.41663"/>
      <point x="474.29544" y="586.57898"/>
      <point x="469.55980999999997" y="578.18433" type="curve" smooth="yes"/>
      <point x="415.4043" y="482.18498"/>
      <point x="359.91004999999996" y="386.94084"/>
      <point x="303.09863999999993" y="292.48896" type="curve" smooth="yes"/>
      <point x="254.25097999999994" y="211.27723000000003"/>
      <point x="204.42956999999993" y="130.65119000000004"/>
      <point x="153.64872999999994" y="50.63403000000005" type="curve"/>
      <point x="148.84848999999994" y="93.7110100000001" type="line"/>
      <point x="209.22426999999993" y="77.55767000000014"/>
      <point x="273.64188999999993" y="76.75626000000011"/>
      <point x="334.40084999999993" y="91.40260000000012" type="curve" smooth="yes"/>
      <point x="374.26762999999994" y="101.01274000000012"/>
      <point x="412.53734999999995" y="117.20342000000016"/>
      <point x="447.2153199999999" y="139.09046000000012" type="curve" smooth="yes"/>
      <point x="453.3075899999999" y="142.93560000000014"/>
      <point x="457.3473199999999" y="140.45535000000007"/>
      <point x="456.3901999999999" y="133.3146200000001" type="curve" smooth="yes"/>
      <point x="440.45578999999987" y="14.434620000000109" type="line" smooth="yes"/>
      <point x="439.52977999999985" y="7.526030000000105"/>
      <point x="433.13423999999986" y="1.6632800000000998"/>
      <point x="426.16719999999987" y="1.4497300000001587" type="curve" smooth="yes"/>
      <point x="405.75644999999986" y="0.8241200000001072"/>
      <point x="385.32425999999987" y="0.8983700000001136"/>
      <point x="364.9186099999999" y="1.6726500000002034" type="curve" smooth="yes"/>
      <point x="288.65193999999985" y="4.566530000000171"/>
      <point x="212.85060999999988" y="17.226590000000215"/>
      <point x="136.5301799999999" y="16.81163000000015" type="curve" smooth="yes"/>
      <point x="95.38156199999989" y="16.587900000000104"/>
      <point x="54.25481599999989" y="12.5457600000002"/>
      <point x="13.84875599999988" y="4.761360000000195" type="curve" smooth="yes"/>
      <point x="6.145142299999881" y="3.277230000000145"/>
      <point x="3.915092799999881" y="6.881850000000213"/>
      <point x="8.803035399999882" y="13.01851000000022" type="curve" smooth="yes"/>
      <point x="78.461073" y="100.47199"/>
      <point x="143.83157" y="191.34038999999996"/>
      <point x="204.60027" y="285.18879000000004" type="curve" smooth="yes"/>
      <point x="257.06461" y="366.21231"/>
      <point x="306.09974" y="449.45622"/>
      <point x="351.53039" y="534.6229599999999" type="curve"/>
      <point x="344.30794000000003" y="482.55332" type="line"/>
      <point x="318.74565" y="507.36186"/>
      <point x="284.35026000000005" y="522.87633"/>
      <point x="248.83437000000004" y="525.61787" type="curve" smooth="yes"/>
      <point x="213.31848000000002" y="528.35941"/>
      <point x="176.94956000000002" y="518.30736"/>
      <point x="147.88275000000004" y="497.71574" type="curve" smooth="yes"/>
      <point x="124.64386000000005" y="481.25275999999997"/>
      <point x="106.17627000000005" y="458.17429999999996"/>
      <point x="95.03873200000004" y="431.97458" type="curve" smooth="yes"/>
      <point x="92.03108300000004" y="424.89945"/>
      <point x="85.75767500000003" y="423.31453"/>
      <point x="80.29361100000004" y="428.7265" type="curve"/>
    </contour>
  </outline>
</glyph>
<glyph name="copyright" format="2">
	<unicode hex="00A9"/>
	<advance height="1024" width="653"/>
	<outline>
		<contour>
			<point x="320.60938" y="701.177734" type="line"/>
			<point x="284.09989" y="700.847724"/>
			<point x="247.93958" y="691.88993"/>
			<point x="214.45395" y="677.33781" type="curve" smooth="yes"/>
			<point x="193.09228" y="668.0545"/>
			<point x="172.67622" y="656.46718"/>
			<point x="154.26986" y="642.19461" type="curve" smooth="yes"/>
			<point x="133.31001" y="625.94203"/>
			<point x="115.08741" y="606.30535"/>
			<point x="99.470777" y="584.86747" type="curve" smooth="yes"/>
			<point x="67.204266" y="540.5733"/>
			<point x="46.108943" y="488.69697"/>
			<point x="34.502851" y="435.13953" type="curve" smooth="yes"/>
			<point x="26.237587" y="396.99867"/>
			<point x="22.66526" y="357.70165"/>
			<point x="25.874004" y="318.80764" type="curve" smooth="yes"/>
			<point x="30.20839" y="266.26943"/>
			<point x="46.839553" y="215.29323"/>
			<point x="69.507762" y="167.69909" type="curve" smooth="yes"/>
			<point x="79.428768" y="146.86896"/>
			<point x="90.569509" y="126.5163"/>
			<point x="104.45362" y="108.08936" type="curve" smooth="yes"/>
			<point x="122.88226" y="83.63093"/>
			<point x="145.98682" y="62.83951"/>
			<point x="171.60496" y="46.06035" type="curve" smooth="yes"/>
			<point x="198.28682" y="28.58448"/>
			<point x="227.79525" y="15.37527"/>
			<point x="258.70419" y="7.50347" type="curve" smooth="yes"/>
			<point x="286.02683" y="0.54502"/>
			<point x="314.4609" y="-2.23585"/>
			<point x="342.57253" y="-0.07178" type="curve" smooth="yes"/>
			<point x="382.52747" y="3.004"/>
			<point x="421.37485" y="16.04506"/>
			<point x="456.55642" y="35.2314" type="curve" smooth="yes"/>
			<point x="484.24886" y="50.33353"/>
			<point x="510.04433" y="69.44085"/>
			<point x="530.39985" y="93.53646" type="curve" smooth="yes"/>
			<point x="540.68015" y="105.70565"/>
			<point x="549.49654" y="119.04432"/>
			<point x="557.67405" y="132.71553" type="curve" smooth="yes"/>
			<point x="585.3865" y="179.04539"/>
			<point x="606.07151" y="229.85529"/>
			<point x="615.7885" y="282.95911" type="curve" smooth="yes"/>
			<point x="621.98066" y="316.79957"/>
			<point x="623.69991" y="351.49402"/>
			<point x="620.3323" y="385.73112" type="curve" smooth="yes"/>
			<point x="615.15138" y="438.4034"/>
			<point x="598.00643" y="489.40752"/>
			<point x="574.6747" y="536.91375" type="curve" smooth="yes"/>
			<point x="564.84599" y="556.9262"/>
			<point x="553.86209" y="576.46606"/>
			<point x="540.31561" y="594.17467" type="curve" smooth="yes"/>
			<point x="521.7218" y="618.48139"/>
			<point x="498.45306" y="639.0704"/>
			<point x="472.67281" y="655.56055" type="curve" smooth="yes"/>
			<point x="447.23795" y="671.82977"/>
			<point x="419.29658" y="684.17911"/>
			<point x="390.13104" y="691.98879" type="curve" smooth="yes"/>
			<point x="367.48196" y="698.05355"/>
			<point x="344.05543" y="701.389663"/>
			<point x="320.60938" y="701.177734" type="curve"/>
		</contour>
		<contour>
			<point x="328.96484" y="603.78516" type="line"/>
			<point x="364.53699" y="601.89333"/>
			<point x="398.7885" y="589.27068"/>
			<point x="430.42283" y="572.89308" type="curve" smooth="yes"/>
			<point x="454.33585" y="560.51293"/>
			<point x="477.29274" y="545.76549"/>
			<point x="496.25575" y="526.6473" type="curve" smooth="yes"/>
			<point x="522.8396" y="499.8459"/>
			<point x="540.66555" y="465.26593"/>
			<point x="551.61711" y="429.14004" type="curve" smooth="yes"/>
			<point x="561.56202" y="396.33477"/>
			<point x="566.11589" y="361.8446"/>
			<point x="564.37116" y="327.60949" type="curve" smooth="yes"/>
			<point x="562.36695" y="288.28302"/>
			<point x="551.97724" y="249.33058"/>
			<point x="533.50891" y="214.55259" type="curve" smooth="yes"/>
			<point x="521.43456" y="191.8152"/>
			<point x="505.92779" y="170.86587"/>
			<point x="487.39791" y="152.99347" type="curve" smooth="yes"/>
			<point x="460.6958" y="127.23882"/>
			<point x="427.82707" y="108.07047"/>
			<point x="392.53677" y="96.62933" type="curve" smooth="yes"/>
			<point x="361.91136" y="86.70055"/>
			<point x="329.18285" y="82.53134"/>
			<point x="297.25923" y="86.70013" type="curve" smooth="yes"/>
			<point x="263.20099" y="91.14767"/>
			<point x="230.7822" y="104.97682"/>
			<point x="202.10173" y="123.87589" type="curve" smooth="yes"/>
			<point x="179.15121" y="138.9992"/>
			<point x="158.30459" y="157.48411"/>
			<point x="141.48731" y="179.22393" type="curve" smooth="yes"/>
			<point x="119.0929" y="208.17335"/>
			<point x="104.16544" y="242.52746"/>
			<point x="95.90913" y="278.18433" type="curve" smooth="yes"/>
			<point x="87.187964" y="315.84879"/>
			<point x="85.779016" y="355.23296"/>
			<point x="92.197484" y="393.35741" type="curve" smooth="yes"/>
			<point x="98.532817" y="430.98806"/>
			<point x="112.55709" y="467.43748"/>
			<point x="134.11012" y="498.92826" type="curve" smooth="yes"/>
			<point x="145.45764" y="515.50795"/>
			<point x="158.91326" y="530.74319"/>
			<point x="174.69558" y="543.17583" type="curve" smooth="yes"/>
			<point x="199.16397" y="562.45099"/>
			<point x="228.42073" y="574.45689"/>
			<point x="257.16068" y="586.46727" type="curve" smooth="yes"/>
			<point x="276.71602" y="594.63942"/>
			<point x="296.75562" y="603.04795"/>
			<point x="317.93225" y="603.91126" type="curve" smooth="yes"/>
			<point x="321.60833" y="604.06112"/>
			<point x="325.2909" y="603.98056"/>
			<point x="328.96484" y="603.78516" type="curve"/>
		</contour>
		<contour>
			<point x="348.90234" y="562.52344" type="line"/>
			<point x="339.88878" y="562.16338"/>
			<point x="330.93562" y="560.67053"/>
			<point x="322.22244" y="558.33507" type="curve" smooth="yes"/>
			<point x="294.35836" y="550.86643"/>
			<point x="269.303" y="534.8641"/>
			<point x="248.1605" y="515.23804" type="curve" smooth="yes"/>
			<point x="236.59197" y="504.49926"/>
			<point x="226.0787" y="492.64383"/>
			<point x="216.55937" y="480.05277" type="curve" smooth="yes"/>
			<point x="195.46467" y="452.15116"/>
			<point x="179.14841" y="420.28342"/>
			<point x="171.62062" y="386.12469" type="curve" smooth="yes"/>
			<point x="166.08882" y="361.02313"/>
			<point x="165.35578" y="334.98606"/>
			<point x="168.12663" y="309.43197" type="curve" smooth="yes"/>
			<point x="170.9032" y="283.8251"/>
			<point x="177.22905" y="258.47641"/>
			<point x="188.28534" y="235.21314" type="curve" smooth="yes"/>
			<point x="200.69755" y="209.09691"/>
			<point x="219.04126" y="185.83495"/>
			<point x="241.46984" y="167.58448" type="curve" smooth="yes"/>
			<point x="257.09165" y="154.87278"/>
			<point x="274.907" y="144.47894"/>
			<point x="294.40701" y="139.44131" type="curve" smooth="yes"/>
			<point x="309.13264" y="135.63709"/>
			<point x="324.53064" y="134.95338"/>
			<point x="339.70617" y="135.96315" type="curve" smooth="yes"/>
			<point x="364.97402" y="137.64445"/>
			<point x="390.37635" y="144.2099"/>
			<point x="411.38491" y="158.34962" type="curve" smooth="yes"/>
			<point x="418.3248" y="163.02049"/>
			<point x="424.71903" y="168.4667"/>
			<point x="430.73468" y="174.27971" type="curve" smooth="yes"/>
			<point x="435.35201" y="178.74151"/>
			<point x="439.75429" y="183.42578"/>
			<point x="443.92193" y="188.31026" type="curve" smooth="yes"/>
			<point x="448.6819" y="193.88894"/>
			<point x="451.55541" y="204.60224"/>
			<point x="450.75881" y="211.89362" type="curve" smooth="yes"/>
			<point x="443.54783" y="277.8974" type="line" smooth="yes"/>
			<point x="442.75123" y="285.18878"/>
			<point x="439.26052" y="285.86267"/>
			<point x="435.1479" y="279.79222" type="curve" smooth="yes"/>
			<point x="417.73735" y="254.09327"/>
			<point x="392.49041" y="233.7197"/>
			<point x="363.5948" y="222.33916" type="curve" smooth="yes"/>
			<point x="347.0948" y="215.84063"/>
			<point x="329.24708" y="212.19628"/>
			<point x="311.57677" y="213.69333" type="curve" smooth="yes"/>
			<point x="298.29768" y="214.81835"/>
			<point x="285.23923" y="218.87412"/>
			<point x="273.82265" y="225.74882" type="curve" smooth="yes"/>
			<point x="258.59408" y="234.91897"/>
			<point x="246.56782" y="248.94253"/>
			<point x="238.52662" y="264.79624" type="curve" smooth="yes"/>
			<point x="228.05851" y="285.43475"/>
			<point x="224.19735" y="309.04499"/>
			<point x="225.286" y="332.16087" type="curve" smooth="yes"/>
			<point x="226.03914" y="348.15271"/>
			<point x="229.09593" y="364.01991"/>
			<point x="234.13789" y="379.2148" type="curve" smooth="yes"/>
			<point x="242.56895" y="404.62338"/>
			<point x="256.49006" y="428.00406"/>
			<point x="273.30712" y="448.83349" type="curve" smooth="yes"/>
			<point x="280.44393" y="457.67307"/>
			<point x="288.15262" y="466.12195"/>
			<point x="297.0382" y="473.20141" type="curve" smooth="yes"/>
			<point x="303.05696" y="477.99678"/>
			<point x="309.62473" y="482.15822"/>
			<point x="316.74401" y="485.08001" type="curve" smooth="yes"/>
			<point x="324.22967" y="488.15217"/>
			<point x="332.33934" y="489.82832"/>
			<point x="340.42374" y="489.48813" type="curve" smooth="yes"/>
			<point x="346.75979" y="489.22151"/>
			<point x="353.04617" y="487.71299"/>
			<point x="358.79157" y="485.02841" type="curve" smooth="yes"/>
			<point x="369.88205" y="479.8463"/>
			<point x="378.68482" y="470.35066"/>
			<point x="384.04504" y="459.34516" type="curve" smooth="yes"/>
			<point x="388.3491" y="450.50814"/>
			<point x="390.54068" y="440.71887"/>
			<point x="391.02743" y="430.90149" type="curve" smooth="yes"/>
			<point x="391.46445" y="422.08718"/>
			<point x="390.53337" y="413.20933"/>
			<point x="388.30721" y="404.67008" type="curve" smooth="yes"/>
			<point x="386.45872" y="397.57951"/>
			<point x="389.92902" y="392.3751"/>
			<point x="397.25729" y="392.68361" type="curve" smooth="yes"/>
			<point x="446.99076" y="394.77733" type="line" smooth="yes"/>
			<point x="454.31903" y="395.08584"/>
			<point x="460.91663" y="401.25357"/>
			<point x="461.18224" y="408.58216" type="curve" smooth="yes"/>
			<point x="462.10086" y="433.9284"/>
			<point x="458.20157" y="459.44875"/>
			<point x="449.69994" y="483.34662" type="curve" smooth="yes"/>
			<point x="444.602" y="497.6768"/>
			<point x="437.82652" y="511.49627"/>
			<point x="428.67928" y="523.64827" type="curve" smooth="yes"/>
			<point x="418.24164" y="537.51454"/>
			<point x="404.57115" y="549.18864"/>
			<point x="388.54071" y="555.84018" type="curve" smooth="yes"/>
			<point x="376.0671" y="561.01588"/>
			<point x="362.39635" y="563.06248"/>
			<point x="348.90234" y="562.52344" type="curve"/>
		</contour>
	</outline>
</glyph>
<glyph name="macron" format="2">
	<unicode hex="00AF"/>
	<advance height="1024" width="445"/>
	<outline>
		<contour>
			<point x="35.186791" y="818.003091" type="line"/>
			<point x="430.55933" y="816.764319" type="line" smooth="yes"/>
			<point x="435.3276604355" y="816.749377741"/>
			<point x="439.853663745" y="814.661011992"/>
			<point x="442.9593701493" y="811.0427546609" type="curve" smooth="yes"/>
			<point x="446.0650765537" y="807.4244973299"/>
			<point x="447.4432874945" y="802.6342455556"/>
			<point x="446.7353" y="797.9187443" type="curve" smooth="yes"/>
			<point x="435.15387" y="720.781446" type="line" smooth="yes"/>
			<point x="433.5324357146" y="709.9819997153"/>
			<point x="424.2571983591" y="701.9918292698"/>
			<point x="413.33671" y="701.987013" type="curve" smooth="yes"/>
			<point x="19.722982" y="701.813447" type="line" smooth="yes"/>
			<point x="14.9289232412" y="701.8113330259"/>
			<point x="10.3671780178" y="703.8782539852"/>
			<point x="7.2078524677" y="707.484036275" type="curve" smooth="yes"/>
			<point x="4.0485269177" y="711.0898185647"/>
			<point x="2.5990166781" y="715.8836272593"/>
			<point x="3.231127" y="720.635831" type="curve" smooth="yes"/>
			<point x="13.685511" y="799.23184877" type="line" smooth="yes"/>
			<point x="15.1181610243" y="810.0025063339"/>
			<point x="24.3213231543" y="818.0371343014"/>
			<point x="35.186791" y="818.003091" type="curve" smooth="yes"/>
		</contour>
	</outline>
	<anchor name="top" x="225.00156" y="697.80533"/>
</glyph>
<glyph name="paragraph" format="2">
  <advance height="1024" width="493"/>
  <unicode hex="00B6"/>
  <outline>
    <contour>
      <point x="232.97553" y="0.0" type="curve" smooth="yes"/>
      <point x="141.0991" y="0.0" type="line" smooth="yes"/>
      <point x="129.44638999999998" y="0.0"/>
      <point x="121.25292999999999" y="9.363280000000032"/>
      <point x="122.65514999999999" y="20.931259999999952" type="curve" smooth="yes"/>
      <point x="133.5364" y="110.69871999999998"/>
      <point x="138.0142" y="201.24204999999995"/>
      <point x="136.03815" y="291.6450899999999" type="curve" smooth="yes"/>
      <point x="133.87602" y="390.56128999999993"/>
      <point x="123.98689" y="489.30761999999993"/>
      <point x="106.49054000000001" y="586.68815" type="curve"/>
      <point x="169.72002" y="454.07728" type="line"/>
      <point x="105.26575" y="493.72939"/>
      <point x="53.740104" y="554.03754"/>
      <point x="24.635445" y="623.8914" type="curve" smooth="yes"/>
      <point x="15.455244" y="645.92473"/>
      <point x="8.3958693" y="669.19791"/>
      <point x="7.7408036" y="693.05822" type="curve" smooth="yes"/>
      <point x="7.085738" y="716.918535"/>
      <point x="13.303508" y="741.533801"/>
      <point x="28.323189" y="760.085155" type="curve" smooth="yes"/>
      <point x="40.722685" y="775.400223"/>
      <point x="58.44634" y="785.812567"/>
      <point x="77.215482" y="791.8140755" type="curve" smooth="yes"/>
      <point x="95.984624" y="797.815584"/>
      <point x="115.84448" y="799.6536675"/>
      <point x="135.54673" y="800.0" type="curve" smooth="yes"/>
      <point x="190.65342" y="800.96868296"/>
      <point x="245.31172" y="790.5845267"/>
      <point x="300.35878" y="787.844557" type="curve" smooth="yes"/>
      <point x="351.51882" y="785.298064"/>
      <point x="403.00574" y="789.394976"/>
      <point x="453.11928" y="800.0" type="curve"/>
      <point x="423.10504" y="636.24068"/>
      <point x="416.19561" y="468.264"/>
      <point x="432.6593" y="302.59289" type="curve" smooth="yes"/>
      <point x="442.12503" y="207.341"/>
      <point x="459.28556" y="112.85512000000006"/>
      <point x="483.91171" y="20.356210000000033" type="curve" smooth="yes"/>
      <point x="486.90959" y="9.095810000000029"/>
      <point x="480.01431" y="0.0"/>
      <point x="468.3616" y="0.0" type="curve" smooth="yes"/>
      <point x="376.58529" y="0.0" type="line" smooth="yes"/>
      <point x="364.93258" y="0.0"/>
      <point x="354.56383" y="9.401479999999992"/>
      <point x="353.54149" y="21.009210000000053" type="curve" smooth="yes"/>
      <point x="349.63508" y="65.36283000000003"/>
      <point x="346.97922" y="109.82658000000004"/>
      <point x="345.57842" y="154.32985000000008" type="curve" smooth="yes"/>
      <point x="342.83931" y="241.3514500000001"/>
      <point x="344.89895" y="328.4448900000001"/>
      <point x="346.99241" y="415.48442000000006" type="curve" smooth="yes"/>
      <point x="349.61362" y="524.4662900000001"/>
      <point x="352.28764" y="633.44689"/>
      <point x="355.01445" y="742.4261630000001" type="curve"/>
      <point x="389.28329" y="700.0" type="line"/>
      <point x="169.47609" y="700.0" type="line"/>
      <point x="211.38746" y="745.297392" type="line"/>
      <point x="194.17933" y="619.98775"/>
      <point x="188.5313" y="493.09306"/>
      <point x="194.53847" y="366.75012" type="curve" smooth="yes"/>
      <point x="199.03708" y="272.13528999999994"/>
      <point x="210.09242" y="177.66877999999997"/>
      <point x="231.33613" y="85.36000999999999" type="curve" smooth="yes"/>
      <point x="236.36398" y="63.51283999999998"/>
      <point x="241.95979" y="41.796389999999974"/>
      <point x="248.11575" y="20.23991000000001" type="curve" smooth="yes"/>
      <point x="251.3155" y="9.035250000000019"/>
      <point x="244.62824" y="0.0"/>
    </contour>
  </outline>
</glyph>
<glyph name="tilde" format="2">
  <advance height="1024" width="319"/>
  <unicode hex="02DC"/>
  <anchor x="153.84598" y="694.90444" name="top"/>
  <outline>
    <contour>
      <point x="15.501732" y="713.893799" type="line"/>
      <point x="-0.86030674" y="799.83621155" type="line" smooth="yes"/>
      <point x="-1.7528809" y="804.5245013"/>
      <point x="0.44904174" y="810.882976"/>
      <point x="4.4299744" y="813.509884" type="curve" smooth="yes"/>
      <point x="19.55388" y="823.489734"/>
      <point x="38.432605" y="827.75871"/>
      <point x="56.360026" y="824.984303" type="curve" smooth="yes"/>
      <point x="76.656353" y="821.843289"/>
      <point x="94.58902" y="810.441312"/>
      <point x="111.76157" y="799.17586548" type="curve" smooth="yes"/>
      <point x="128.93413" y="787.910419"/>
      <point x="146.63411" y="776.261482"/>
      <point x="166.82695" y="772.512333" type="curve" smooth="yes"/>
      <point x="179.69482000000002" y="770.123192"/>
      <point x="193.08212" y="771.105602"/>
      <point x="205.70245" y="774.572189" type="curve" smooth="yes"/>
      <point x="218.32278" y="778.038777"/>
      <point x="230.19838" y="783.943793"/>
      <point x="241.0598" y="791.2458092" type="curve" smooth="yes"/>
      <point x="255.4847" y="800.94351194"/>
      <point x="268.20653" y="813.161801"/>
      <point x="278.50637" y="827.161697" type="curve" smooth="yes"/>
      <point x="281.9373" y="831.82513"/>
      <point x="286.13304" y="831.446619"/>
      <point x="288.24602" y="826.055157" type="curve" smooth="yes"/>
      <point x="313.65887" y="761.21197" type="line" smooth="yes"/>
      <point x="316.62169" y="753.652061"/>
      <point x="315.97443999999996" y="741.628756"/>
      <point x="310.99151" y="735.229642" type="curve" smooth="yes"/>
      <point x="304.28914000000003" y="726.622421"/>
      <point x="296.00954" y="719.240452"/>
      <point x="286.66079" y="713.616064" type="curve" smooth="yes"/>
      <point x="273.11213000000004" y="705.464934"/>
      <point x="257.35418000000004" y="701.027111"/>
      <point x="241.543" y="700.909794" type="curve" smooth="yes"/>
      <point x="224.19761" y="700.7810939999999"/>
      <point x="207.17243000000002" y="705.737436"/>
      <point x="191.13436000000002" y="712.344945" type="curve" smooth="yes"/>
      <point x="175.09628" y="718.952454"/>
      <point x="159.79832" y="727.227807"/>
      <point x="143.91372" y="734.196192" type="curve" smooth="yes"/>
      <point x="128.48213" y="740.965844"/>
      <point x="112.31892" y="746.536349"/>
      <point x="95.542352" y="748.120258" type="curve" smooth="yes"/>
      <point x="78.765782" y="749.704166"/>
      <point x="61.239654" y="747.064055"/>
      <point x="46.809868" y="738.360989" type="curve" smooth="yes"/>
      <point x="36.83466" y="732.344621"/>
      <point x="28.632531" y="723.481198"/>
      <point x="23.242518" y="713.161307" type="curve" smooth="yes"/>
      <point x="19.634007" y="706.252335"/>
      <point x="16.962609" y="706.220466"/>
      <point x="15.501732" y="713.893799" type="curve"/>
    </contour>
  </outline>
</glyph>
<glyph name="ml_candrabindu" format="2">
	<unicode hex="0D01"/>
	<advance height="1024"/>
	<outline>
		<contour>
			<point x="-116.59443" y="856.404719" type="line"/>
			<point x="-117.61974" y="845.405851"/>
			<point x="-116.28133" y="834.185716"/>
			<point x="-112.65156" y="823.750611" type="curve" smooth="yes"/>
			<point x="-108.56814" y="812.01132"/>
			<point x="-101.5811" y="801.2616185"/>
			<point x="-92.338658" y="792.951229" type="curve" smooth="yes"/>
			<point x="-83.096216" y="784.64084"/>
			<point x="-71.601249" y="778.810286"/>
			<point x="-59.386702" y="776.510256" type="curve" smooth="yes"/>
			<point x="-44.270955" y="773.663922"/>
			<point x="-28.072366" y="776.387035"/>
			<point x="-15.010472" y="784.509494" type="curve" smooth="yes"/>
			<point x="-1.9485778" y="792.6319521"/>
			<point x="7.7486298" y="806.1776974"/>
			<point x="10.678906" y="821.277396" type="curve" smooth="yes"/>
			<point x="12.968994" y="833.07821"/>
			<point x="11.046145" y="845.61721"/>
			<point x="5.5206425" y="856.278908" type="curve" smooth="yes"/>
			<point x="3.2505826" y="860.659088"/>
			<point x="4.4537857" y="865.352113"/>
			<point x="9.0230501" y="867.228555" type="curve" smooth="yes"/>
			<point x="110.46179" y="908.886" type="line" smooth="yes"/>
			<point x="114.631" y="910.59816"/>
			<point x="118.44106" y="908.35564"/>
			<point x="118.74874" y="903.85945" type="curve" smooth="yes"/>
			<point x="122.23322" y="852.93985"/>
			<point x="104.5598" y="800.79808402"/>
			<point x="70.572037" y="762.678632" type="curve" smooth="yes"/>
			<point x="53.400759" y="743.419946"/>
			<point x="32.200604" y="727.624295"/>
			<point x="8.4204474" y="717.611607" type="curve" smooth="yes"/>
			<point x="-15.359709" y="707.598918"/>
			<point x="-41.727088" y="703.470605"/>
			<point x="-67.321479" y="706.738163" type="curve" smooth="yes"/>
			<point x="-106.02939" y="711.679884"/>
			<point x="-141.26826" y="733.250731"/>
			<point x="-168.31213" y="761.381707" type="curve" smooth="yes"/>
			<point x="-193.86924" y="787.966151"/>
			<point x="-212.98911" y="820.687113"/>
			<point x="-223.66814" y="855.979718" type="curve" smooth="yes"/>
			<point x="-224.9734" y="860.293413"/>
			<point x="-222.23922" y="863.830956"/>
			<point x="-217.73214" y="863.830956" type="curve" smooth="yes"/>
			<point x="-123.0381" y="863.830956" type="line" smooth="yes"/>
			<point x="-118.89339" y="863.830956"/>
			<point x="-116.20989" y="860.529879"/>
			<point x="-116.59443" y="856.404719" type="curve"/>
		</contour>
		<contour>
			<point x="-7.8835373" y="846.677658" type="line"/>
			<point x="-7.8835373" y="836.102631"/>
			<point x="-11.52692" y="825.455763"/>
			<point x="-18.500323" y="817.505741" type="curve" smooth="yes"/>
			<point x="-25.473726" y="809.5557193"/>
			<point x="-35.817509" y="804.4971352"/>
			<point x="-46.392536" y="804.4971352" type="curve" smooth="yes"/>
			<point x="-56.967563" y="804.4971352"/>
			<point x="-67.311346" y="809.5557192"/>
			<point x="-74.284749" y="817.505741" type="curve" smooth="yes"/>
			<point x="-81.258152" y="825.455763"/>
			<point x="-84.901535" y="836.102631"/>
			<point x="-84.901535" y="846.677658" type="curve" smooth="yes"/>
			<point x="-84.901535" y="857.252685"/>
			<point x="-81.258152" y="867.899553"/>
			<point x="-74.284749" y="875.849575" type="curve" smooth="yes"/>
			<point x="-67.311346" y="883.799597"/>
			<point x="-56.967563" y="888.858181"/>
			<point x="-46.392536" y="888.858181" type="curve" smooth="yes"/>
			<point x="-35.817509" y="888.858181"/>
			<point x="-25.473726" y="883.799597"/>
			<point x="-18.500323" y="875.849575" type="curve" smooth="yes"/>
			<point x="-11.52692" y="867.899553"/>
			<point x="-7.8835373" y="857.252685"/>
			<point x="-7.8835373" y="846.677658" type="curve"/>
		</contour>
	</outline>
</glyph>
<glyph name="ml_anusvara" format="2">
  <advance height="1024" width="365"/>
  <unicode hex="0D02"/>
  <outline>
    <contour>
      <point x="325.29505" y="103.29597999999999" type="line"/>
      <point x="345.35074" y="146.94448"/>
      <point x="350.24865" y="197.41742"/>
      <point x="338.77985" y="244.06384000000003" type="curve" smooth="yes"/>
      <point x="330.9235" y="276.01752"/>
      <point x="315.39794" y="306.29838"/>
      <point x="292.63495" y="330.05983000000003" type="curve" smooth="yes"/>
      <point x="271.29975" y="352.33086000000003"/>
      <point x="243.69027" y="368.63189000000006"/>
      <point x="213.74452000000002" y="376.01033" type="curve" smooth="yes"/>
      <point x="189.25041000000002" y="382.04552"/>
      <point x="163.27756000000002" y="382.10797"/>
      <point x="138.81362000000001" y="375.95163" type="curve" smooth="yes"/>
      <point x="114.34967000000002" y="369.79533000000004"/>
      <point x="91.44945100000001" y="357.40873000000005"/>
      <point x="73.07499200000001" y="340.12394" type="curve" smooth="yes"/>
      <point x="51.46013800000001" y="319.79092"/>
      <point x="36.38276400000001" y="292.99645"/>
      <point x="28.19745000000001" y="264.47217" type="curve" smooth="yes"/>
      <point x="20.01213700000001" y="235.9479"/>
      <point x="18.53948200000001" y="205.73573999999996"/>
      <point x="21.80702200000001" y="176.24071000000004" type="curve" smooth="yes"/>
      <point x="26.62195500000001" y="132.77787"/>
      <point x="42.18095500000001" y="89.75764000000004"/>
      <point x="70.780415" y="56.67784000000006" type="curve" smooth="yes"/>
      <point x="85.080145" y="40.137950000000046"/>
      <point x="102.52764" y="26.23553000000004"/>
      <point x="122.17306" y="16.63826000000006" type="curve" smooth="yes"/>
      <point x="141.81849" y="7.040980000000104"/>
      <point x="163.6705" y="1.8068400000000793"/>
      <point x="185.53163" y="2.1828500000000304" type="curve" smooth="yes"/>
      <point x="215.85213000000002" y="2.704360000000065"/>
      <point x="245.57373" y="14.092550000000074"/>
      <point x="269.74049" y="32.41118000000006" type="curve" smooth="yes"/>
      <point x="293.90724" y="50.72982000000002"/>
      <point x="312.63386" y="75.74057000000005"/>
      <point x="325.29505" y="103.29594000000009" type="curve"/>
    </contour>
    <contour>
      <point x="99.577812" y="147.15250000000003" type="curve" smooth="yes"/>
      <point x="84.906042" y="173.75797"/>
      <point x="83.057048" y="207.27242999999999"/>
      <point x="95.5231" y="234.98000000000002" type="curve" smooth="yes"/>
      <point x="101.75613" y="248.83378000000005"/>
      <point x="111.38023" y="261.16265"/>
      <point x="123.38086" y="270.4773" type="curve" smooth="yes"/>
      <point x="135.38148999999999" y="279.79196"/>
      <point x="149.74226" y="286.06460000000004"/>
      <point x="164.7499" y="288.42014" type="curve" smooth="yes"/>
      <point x="191.81204" y="292.6677"/>
      <point x="220.4932" y="283.64405"/>
      <point x="240.75732" y="265.21128999999996" type="curve" smooth="yes"/>
      <point x="261.02144" y="246.77852999999993"/>
      <point x="272.66324" y="219.43085999999994"/>
      <point x="272.65852" y="192.0374099999999" type="curve" smooth="yes"/>
      <point x="272.65452" y="171.07693999999992"/>
      <point x="265.97721" y="150.08430999999996"/>
      <point x="253.42032" y="133.30139999999994" type="curve" smooth="yes"/>
      <point x="240.86344" y="116.51848999999993"/>
      <point x="222.42665" y="104.11255999999992"/>
      <point x="202.01748" y="99.33686999999998" type="curve" smooth="yes"/>
      <point x="182.31959" y="94.72762"/>
      <point x="161.10579" y="97.28607999999997"/>
      <point x="142.84641" y="105.99509999999998" type="curve" smooth="yes"/>
      <point x="124.58703" y="114.70411999999999"/>
      <point x="109.34682999999998" y="129.43758000000003"/>
    </contour>
  </outline>
</glyph>
<glyph name="ml_vedic_anusvara" format="2">
	<unicode hex="0D04"/>
	<advance height="1024" width="496"/>
	<outline>
		<contour>
			<point x="154.44297" y="459.70456" type="line"/>
			<point x="150.8478" y="443.36094"/>
			<point x="151.01972" y="426.19078"/>
			<point x="154.99865" y="409.9335" type="curve" smooth="yes"/>
			<point x="159.19395" y="392.79216"/>
			<point x="167.62627" y="376.65964"/>
			<point x="179.57407" y="363.67211" type="curve" smooth="yes"/>
			<point x="191.52188" y="350.68458"/>
			<point x="206.98655" y="340.8997"/>
			<point x="223.94242" y="336.00844" type="curve" smooth="yes"/>
			<point x="244.92565" y="329.9554"/>
			<point x="268.18734" y="331.62913"/>
			<point x="287.74052" y="341.35582" type="curve" smooth="yes"/>
			<point x="307.2937" y="351.08251"/>
			<point x="322.81931" y="368.92662"/>
			<point x="328.98884" y="389.8759" type="curve" smooth="yes"/>
			<point x="334.16445" y="407.45023"/>
			<point x="332.59308" y="426.87863"/>
			<point x="324.90722" y="443.48746" type="curve" smooth="yes"/>
			<point x="322.83404" y="447.96751"/>
			<point x="324.5001" y="452.52092"/>
			<point x="329.22635" y="453.95678" type="curve" smooth="yes"/>
			<point x="485.0706" y="501.3032" type="line" smooth="yes"/>
			<point x="489.38305" y="502.61335"/>
			<point x="492.95856" y="500.02151"/>
			<point x="492.89869" y="495.51501" type="curve" smooth="yes"/>
			<point x="491.92071" y="421.90249"/>
			<point x="459.77305" y="349.09935"/>
			<point x="405.77611" y="299.00615" type="curve" smooth="yes"/>
			<point x="378.91903" y="274.09072"/>
			<point x="346.83236" y="254.61117"/>
			<point x="311.87554" y="243.65205" type="curve" smooth="yes"/>
			<point x="276.91872" y="232.69293"/>
			<point x="239.09518" y="230.39856"/>
			<point x="203.3574" y="238.45413" type="curve" smooth="yes"/>
			<point x="149.30904" y="250.63705"/>
			<point x="102.39712" y="285.85867"/>
			<point x="67.949417" y="329.25226" type="curve" smooth="yes"/>
			<point x="34.685388" y="371.15479"/>
			<point x="11.781803" y="421.21099"/>
			<point x="1.7493484" y="473.75803" type="curve" smooth="yes"/>
			<point x="0.90413024" y="478.18503"/>
			<point x="3.9564596" y="481.44674"/>
			<point x="8.4433346" y="481.02046" type="curve" smooth="yes"/>
			<point x="148.83652" y="467.68215" type="line" smooth="yes"/>
			<point x="152.96265" y="467.29014"/>
			<point x="155.33323" y="463.75168"/>
			<point x="154.44297" y="459.70456" type="curve"/>
		</contour>
		<contour>
			<point x="300.90836" y="502.06331" type="curve" smooth="yes"/>
			<point x="300.12911" y="456.23311"/>
			<point x="285.57487" y="410.7252"/>
			<point x="259.61506" y="372.94819" type="curve"/>
			<point x="228.11819" y="375.30622" type="line"/>
			<point x="204.55154" y="413.13003"/>
			<point x="191.61651" y="457.50072"/>
			<point x="191.16571" y="502.06331" type="curve" smooth="yes"/>
			<point x="190.97841" y="520.57877"/>
			<point x="193.07149" y="539.67608"/>
			<point x="201.91938" y="555.94175" type="curve" smooth="yes"/>
			<point x="206.34332" y="564.07459"/>
			<point x="212.44528" y="571.36882"/>
			<point x="220.04594" y="576.65506" type="curve" smooth="yes"/>
			<point x="227.6466" y="581.9413"/>
			<point x="236.77886" y="585.15411"/>
			<point x="246.03704" y="585.17536" type="curve" smooth="yes"/>
			<point x="255.30945" y="585.19666"/>
			<point x="264.47067" y="582.01545"/>
			<point x="272.09935" y="576.74467" type="curve" smooth="yes"/>
			<point x="279.72803" y="571.47388"/>
			<point x="285.85647" y="564.17947"/>
			<point x="290.29278" y="556.03716" type="curve" smooth="yes"/>
			<point x="299.16538" y="539.75254"/>
			<point x="301.22363" y="520.60549"/>
		</contour>
	</outline>
</glyph>
<glyph name="ml_aa" format="2">
  <advance height="1024" width="1185"/>
  <unicode hex="0D06"/>
  <outline>
    <contour>
      <point x="31.219719" y="-51.622569999999996" type="line"/>
      <point x="42.450617" y="-13.21837000000005"/>
      <point x="50.415667" y="26.140729999999962"/>
      <point x="54.994484" y="65.89068999999995" type="curve" smooth="yes"/>
      <point x="63.257736" y="137.62622999999996"/>
      <point x="60.459804" y="210.45418999999993"/>
      <point x="49.161068" y="281.77464999999995" type="curve" smooth="yes"/>
      <point x="38.813898" y="347.08858999999995"/>
      <point x="21.363239" y="411.41026"/>
      <point x="16.729547000000004" y="477.37618" type="curve" smooth="yes"/>
      <point x="13.803973000000003" y="519.02508"/>
      <point x="16.200367000000004" y="561.78518"/>
      <point x="31.018624000000003" y="600.81862" type="curve" smooth="yes"/>
      <point x="45.83688" y="639.8520599999999"/>
      <point x="74.25653600000001" y="674.94941"/>
      <point x="112.66448" y="691.32073" type="curve" smooth="yes"/>
      <point x="132.26651999999999" y="699.67606"/>
      <point x="153.87738" y="702.959786"/>
      <point x="175.15775" y="701.8655759999999" type="curve" smooth="yes"/>
      <point x="196.43812" y="700.771365"/>
      <point x="217.39309" y="695.36943"/>
      <point x="236.99752999999998" y="687.01971" type="curve" smooth="yes"/>
      <point x="276.20639" y="670.32029"/>
      <point x="309.53175999999996" y="642.2568699999999"/>
      <point x="339.3431" y="611.80215" type="curve" smooth="yes"/>
      <point x="367.96859" y="582.55887"/>
      <point x="394.19135" y="550.36871"/>
      <point x="412.01524" y="513.5326299999999" type="curve" smooth="yes"/>
      <point x="429.83914" y="476.69655"/>
      <point x="438.88906000000003" y="434.78614"/>
      <point x="432.3008" y="394.39823" type="curve" smooth="yes"/>
      <point x="426.48789999999997" y="358.76351"/>
      <point x="407.87142" y="324.69446"/>
      <point x="378.7024" y="303.41556" type="curve" smooth="yes"/>
      <point x="364.61367" y="293.13779000000005"/>
      <point x="348.28991" y="285.94050000000004"/>
      <point x="331.19933000000003" y="282.4710600000001" type="curve"/>
      <point x="328.4608" y="312.71726000000007" type="line"/>
      <point x="350.92108" y="310.6833900000001"/>
      <point x="373.01074" y="304.62257000000005"/>
      <point x="393.36405" y="294.9095000000001" type="curve" smooth="yes"/>
      <point x="424.86013" y="279.87885000000006"/>
      <point x="452.24953000000005" y="255.79457000000014"/>
      <point x="469.68167000000005" y="225.56141000000014" type="curve" smooth="yes"/>
      <point x="487.11381000000006" y="195.3282600000001"/>
      <point x="494.23384000000004" y="158.95266000000015"/>
      <point x="487.78218000000004" y="124.65544000000011" type="curve" smooth="yes"/>
      <point x="481.22759" y="89.81101000000012"/>
      <point x="460.58797000000004" y="57.82877000000008"/>
      <point x="431.54633" y="37.48964000000012" type="curve" smooth="yes"/>
      <point x="402.50469" y="17.150510000000168"/>
      <point x="365.39977" y="8.687350000000151"/>
      <point x="330.40866" y="14.407400000000166" type="curve" smooth="yes"/>
      <point x="291.98926" y="20.687880000000177"/>
      <point x="257.40957000000003" y="43.40124000000014"/>
      <point x="232.25354" y="73.11098000000015" type="curve" smooth="yes"/>
      <point x="207.09751" y="102.82072000000005"/>
      <point x="190.76051" y="139.16539999999998"/>
      <point x="179.98151" y="176.57272" type="curve" smooth="yes"/>
      <point x="167.03408" y="221.50531"/>
      <point x="161.71622" y="268.82398"/>
      <point x="166.446" y="315.34497" type="curve" smooth="yes"/>
      <point x="171.17579" y="361.86596"/>
      <point x="186.10379" y="407.55613999999997"/>
      <point x="211.50846" y="446.81395999999995" type="curve" smooth="yes"/>
      <point x="237.10757" y="486.37226"/>
      <point x="273.80257" y="519.3846699999999"/>
      <point x="317.5581" y="536.8668399999999" type="curve" smooth="yes"/>
      <point x="361.31364" y="554.3490099999999"/>
      <point x="412.18177000000003" y="555.41298"/>
      <point x="455.13319" y="536.03905" type="curve" smooth="yes"/>
      <point x="491.52986" y="519.62175"/>
      <point x="520.66717" y="489.62059999999997"/>
      <point x="541.12558" y="455.33213" type="curve" smooth="yes"/>
      <point x="561.58398" y="421.04367"/>
      <point x="573.93807" y="382.51474"/>
      <point x="583.11513" y="343.65568" type="curve" smooth="yes"/>
      <point x="589.41864" y="316.96431"/>
      <point x="594.30439" y="289.93818"/>
      <point x="597.74491" y="262.72924" type="curve"/>
      <point x="562.76868" y="258.90783999999996" type="line"/>
      <point x="563.34856" y="285.3823"/>
      <point x="564.66898" y="311.84052999999994"/>
      <point x="566.72788" y="338.24116999999995" type="curve" smooth="yes"/>
      <point x="573.01248" y="418.8268499999999"/>
      <point x="586.8643900000001" y="500.8458099999999"/>
      <point x="626.81336" y="571.11407" type="curve" smooth="yes"/>
      <point x="646.19289" y="605.2017099999999"/>
      <point x="671.73772" y="636.1664499999999"/>
      <point x="703.60177" y="659.0184899999999" type="curve" smooth="yes"/>
      <point x="735.46581" y="681.8705399999999"/>
      <point x="773.86752" y="696.3139799999999"/>
      <point x="813.07531" y="696.84539" type="curve" smooth="yes"/>
      <point x="862.9943" y="697.52198"/>
      <point x="911.7449899999999" y="675.4545999999999"/>
      <point x="948.4221799999999" y="641.58503" type="curve" smooth="yes"/>
      <point x="985.0993599999999" y="607.7154699999999"/>
      <point x="1010.3582999999999" y="562.7832199999999"/>
      <point x="1026.1880999999998" y="515.4357699999999" type="curve" smooth="yes"/>
      <point x="1043.6755999999998" y="463.1300999999999"/>
      <point x="1050.1899999999998" y="407.42607999999996"/>
      <point x="1047.7613" y="352.3280199999999" type="curve" smooth="yes"/>
      <point x="1045.2017999999998" y="294.2621099999999"/>
      <point x="1032.5119" y="235.98168999999996"/>
      <point x="1004.8899999999999" y="184.84236999999996" type="curve" smooth="yes"/>
      <point x="988.3920299999999" y="154.2979899999999"/>
      <point x="966.3663499999999" y="126.25941"/>
      <point x="938.0645599999999" y="106.15590999999995" type="curve" smooth="yes"/>
      <point x="909.76276" y="86.0524099999999"/>
      <point x="874.8462799999999" y="74.31398999999999"/>
      <point x="840.2453199999999" y="77.12743999999998" type="curve" smooth="yes"/>
      <point x="810.7706899999998" y="79.52405999999996"/>
      <point x="782.6190299999998" y="92.35513000000003"/>
      <point x="759.7865199999999" y="111.14805999999999" type="curve" smooth="yes"/>
      <point x="736.9540199999999" y="129.94098999999994"/>
      <point x="719.2558899999999" y="154.48495000000003"/>
      <point x="706.2555599999998" y="181.04598999999996" type="curve" smooth="yes"/>
      <point x="684.5522199999998" y="225.38819"/>
      <point x="675.6653799999998" y="276.11461999999995"/>
      <point x="682.3101199999999" y="325.03407999999996" type="curve" smooth="yes"/>
      <point x="688.9548699999999" y="373.95352999999994"/>
      <point x="711.3018099999998" y="420.81613999999996"/>
      <point x="746.0694799999999" y="455.86574999999993" type="curve" smooth="yes"/>
      <point x="780.8349599999999" y="490.9131499999999"/>
      <point x="827.3610599999998" y="513.5943299999999"/>
      <point x="876.0645599999999" y="521.65212" type="curve" smooth="yes"/>
      <point x="918.8932399999999" y="528.73795"/>
      <point x="963.54828" y="524.72252"/>
      <point x="1004.3223999999999" y="509.82374999999996" type="curve" smooth="yes"/>
      <point x="1045.0965999999999" y="494.92499"/>
      <point x="1081.8798" y="469.14761999999996"/>
      <point x="1109.5665999999999" y="435.71191" type="curve" smooth="yes"/>
      <point x="1154.5904999999998" y="381.33916"/>
      <point x="1173.9865" y="308.92098999999996"/>
      <point x="1173.5475999999999" y="238.32808999999997" type="curve" smooth="yes"/>
      <point x="1172.9707999999998" y="145.55053999999996"/>
      <point x="1138.7314" y="52.51097000000004"/>
      <point x="1075.3749999999998" y="-15.267900000000054" type="curve" smooth="yes"/>
      <point x="1012.0185999999998" y="-83.04677000000004"/>
      <point x="919.4248299999997" y="-123.84349000000009"/>
      <point x="826.7213499999998" y="-120.0923600000001" type="curve" smooth="yes"/>
      <point x="780.9937799999998" y="-118.24205000000006"/>
      <point x="735.7360599999998" y="-105.84474000000012"/>
      <point x="695.4005399999999" y="-84.23545000000013" type="curve" smooth="yes"/>
      <point x="688.0652399999999" y="-80.30565000000013"/>
      <point x="684.5536899999998" y="-70.42845000000011"/>
      <point x="687.3314599999999" y="-62.58317000000011" type="curve" smooth="yes"/>
      <point x="731.3697699999999" y="61.79485999999986" type="line" smooth="yes"/>
      <point x="734.1475399999999" y="69.64013999999986"/>
      <point x="739.9771299999999" y="70.26018999999985"/>
      <point x="745.0699199999999" y="63.68143999999984" type="curve" smooth="yes"/>
      <point x="760.5257399999999" y="43.71591999999987"/>
      <point x="780.5166399999999" y="27.26016999999979"/>
      <point x="803.1350799999999" y="16.02841999999987" type="curve" smooth="yes"/>
      <point x="835.8242799999999" y="-0.20422000000007756"/>
      <point x="873.5997799999999" y="-5.351910000000089"/>
      <point x="909.7503599999999" y="-0.3302200000001676" type="curve" smooth="yes"/>
      <point x="945.9009499999999" y="4.691479999999842"/>
      <point x="980.3885499999999" y="19.64546999999982"/>
      <point x="1009.9366999999999" y="41.069499999999834" type="curve" smooth="yes"/>
      <point x="1041.5242999999998" y="63.97221999999988"/>
      <point x="1067.7404" y="94.42664999999988"/>
      <point x="1084.8132999999998" y="129.50974999999983" type="curve" smooth="yes"/>
      <point x="1101.8861999999997" y="164.59285999999986"/>
      <point x="1109.6852" y="204.27617999999984"/>
      <point x="1106.1885999999997" y="243.13596999999982" type="curve" smooth="yes"/>
      <point x="1101.6480999999997" y="293.5977199999998"/>
      <point x="1077.7065999999998" y="342.0536799999998"/>
      <point x="1040.4438999999998" y="376.3829199999998" type="curve" smooth="yes"/>
      <point x="1014.4660999999998" y="400.3156699999998"/>
      <point x="982.0701699999997" y="417.4882899999998"/>
      <point x="947.3910499999997" y="424.19517999999977" type="curve" smooth="yes"/>
      <point x="912.7119399999997" y="430.9020799999998"/>
      <point x="875.8364199999997" y="426.92529999999977"/>
      <point x="843.9503599999997" y="411.72983999999974" type="curve" smooth="yes"/>
      <point x="820.7533199999997" y="400.67516999999975"/>
      <point x="800.2911199999998" y="383.73464999999976"/>
      <point x="785.6852099999998" y="362.59283999999974" type="curve" smooth="yes"/>
      <point x="771.0793099999997" y="341.45103999999975"/>
      <point x="762.4417999999997" y="316.11644999999976"/>
      <point x="761.8010399999997" y="290.42796999999973" type="curve" smooth="yes"/>
      <point x="761.1066799999998" y="262.59060999999974"/>
      <point x="770.1227999999998" y="234.24815999999976"/>
      <point x="788.4146299999998" y="213.2526899999997" type="curve" smooth="yes"/>
      <point x="806.7064599999998" y="192.25721999999973"/>
      <point x="834.4612099999997" y="179.26611999999966"/>
      <point x="862.2701699999998" y="180.70210999999972" type="curve" smooth="yes"/>
      <point x="879.8783199999998" y="181.61134999999967"/>
      <point x="896.9490099999998" y="188.08268999999973"/>
      <point x="911.6847499999998" y="197.76418999999976" type="curve" smooth="yes"/>
      <point x="926.4204899999997" y="207.44569999999976"/>
      <point x="938.9205299999998" y="220.25068999999974"/>
      <point x="949.6085999999998" y="234.2734899999998" type="curve" smooth="yes"/>
      <point x="972.5204599999998" y="264.3339599999998"/>
      <point x="987.4038299999997" y="300.3823799999998"/>
      <point x="992.8566999999998" y="337.7835999999998" type="curve" smooth="yes"/>
      <point x="998.3095699999998" y="375.18481999999983"/>
      <point x="994.3690899999998" y="413.8613399999998"/>
      <point x="981.9475899999998" y="449.55855999999983" type="curve" smooth="yes"/>
      <point x="970.2395299999997" y="483.20547999999985"/>
      <point x="950.7908599999997" y="514.4920299999999"/>
      <point x="923.9009599999997" y="537.8613999999998" type="curve" smooth="yes"/>
      <point x="897.0110599999997" y="561.2307699999999"/>
      <point x="862.4780099999997" y="576.3246399999998"/>
      <point x="826.8715799999998" y="577.4977499999998" type="curve" smooth="yes"/>
      <point x="801.4082599999998" y="578.3366799999999"/>
      <point x="775.8930999999998" y="572.1139399999998"/>
      <point x="753.1127499999998" y="560.7060399999998" type="curve" smooth="yes"/>
      <point x="730.3324099999998" y="549.2981299999999"/>
      <point x="710.2546299999998" y="532.7987199999998"/>
      <point x="693.7056699999998" y="513.4282199999998" type="curve" smooth="yes"/>
      <point x="667.0220099999998" y="482.1950899999998"/>
      <point x="649.5597499999998" y="443.68367999999987"/>
      <point x="640.4028599999998" y="403.63773999999984" type="curve" smooth="yes"/>
      <point x="631.2459799999998" y="363.59178999999983"/>
      <point x="630.1674399999998" y="321.9949799999998"/>
      <point x="633.8996099999998" y="281.0853599999998" type="curve" smooth="yes"/>
      <point x="638.1330899999998" y="234.6807299999998"/>
      <point x="648.5298099999998" y="188.84347999999977"/>
      <point x="664.7098099999998" y="145.14612999999986" type="curve" smooth="yes"/>
      <point x="667.5995799999998" y="137.3417099999998"/>
      <point x="663.4067899999999" y="131.45904999999982"/>
      <point x="655.0966399999999" y="131.91287999999986" type="curve" smooth="yes"/>
      <point x="525.7925899999999" y="138.97430999999983" type="line" smooth="yes"/>
      <point x="517.4824399999999" y="139.42813999999987"/>
      <point x="513.3776099999999" y="146.0157599999999"/>
      <point x="516.1166" y="153.8734099999998" type="curve" smooth="yes"/>
      <point x="535.8351899999999" y="210.44241999999986"/>
      <point x="536.0107599999999" y="273.7175199999998"/>
      <point x="516.2559" y="330.3044499999998" type="curve" smooth="yes"/>
      <point x="508.07694" y="353.7327399999998"/>
      <point x="496.53907" y="376.1236499999998"/>
      <point x="480.93461" y="395.4182299999998" type="curve" smooth="yes"/>
      <point x="465.33015" y="414.71281999999985"/>
      <point x="445.56599" y="430.8542899999998"/>
      <point x="422.86373000000003" y="440.8736299999998" type="curve" smooth="yes"/>
      <point x="399.1761" y="451.32784999999984"/>
      <point x="372.52277000000004" y="454.91326999999984"/>
      <point x="346.89564" y="451.21937999999983" type="curve" smooth="yes"/>
      <point x="321.2685" y="447.5254899999998"/>
      <point x="296.74406" y="436.57960999999983"/>
      <point x="276.79787" y="420.0706999999998" type="curve" smooth="yes"/>
      <point x="246.88557" y="395.3131199999998"/>
      <point x="227.95792" y="358.5702999999998"/>
      <point x="221.80621" y="320.2318099999998" type="curve" smooth="yes"/>
      <point x="215.65451" y="281.8933199999998"/>
      <point x="221.74991" y="242.1407899999998"/>
      <point x="235.91103999999999" y="205.9862999999998" type="curve" smooth="yes"/>
      <point x="245.23253999999997" y="182.18768999999975"/>
      <point x="258.17618" y="159.52818999999977"/>
      <point x="276.06194999999997" y="141.26994999999977" type="curve" smooth="yes"/>
      <point x="293.94771999999995" y="123.01170999999977"/>
      <point x="317.02536" y="109.33300999999972"/>
      <point x="342.22619" y="105.06893999999977" type="curve" smooth="yes"/>
      <point x="357.5612" y="102.47419999999977"/>
      <point x="373.69404999999995" y="103.44785999999976"/>
      <point x="388.08405999999997" y="109.34896999999978" type="curve" smooth="yes"/>
      <point x="402.47407" y="115.25006999999982"/>
      <point x="414.97076" y="126.31578999999977"/>
      <point x="421.21851999999996" y="140.5587099999998" type="curve" smooth="yes"/>
      <point x="425.96128999999996" y="151.37071999999978"/>
      <point x="426.98459999999994" y="163.69948999999974"/>
      <point x="424.54768999999993" y="175.25175999999976" type="curve" smooth="yes"/>
      <point x="422.11078999999995" y="186.80402999999978"/>
      <point x="416.28423999999995" y="197.55674999999974"/>
      <point x="408.2811499999999" y="206.2368399999998" type="curve" smooth="yes"/>
      <point x="392.2749899999999" y="223.5970299999998"/>
      <point x="368.12729999999993" y="232.11144999999976"/>
      <point x="344.5146099999999" y="232.23153999999977" type="curve" smooth="yes"/>
      <point x="329.1485899999999" y="232.3097399999998"/>
      <point x="313.7739799999999" y="229.07890999999972"/>
      <point x="299.7390799999999" y="222.82254999999975" type="curve"/>
      <point x="287.83496" y="342.9095" type="line"/>
      <point x="299.25697" y="340.06973999999997"/>
      <point x="311.45875" y="340.43849"/>
      <point x="322.68843000000004" y="343.96281" type="curve" smooth="yes"/>
      <point x="333.91811" y="347.48713"/>
      <point x="344.14248000000003" y="354.15659"/>
      <point x="351.89357000000007" y="363.01363" type="curve" smooth="yes"/>
      <point x="361.1785300000001" y="373.62339"/>
      <point x="366.7893700000001" y="387.1563"/>
      <point x="369.06423000000007" y="401.07041" type="curve" smooth="yes"/>
      <point x="371.33909000000006" y="414.98452"/>
      <point x="370.39747000000006" y="429.2877"/>
      <point x="367.6503000000001" y="443.11631" type="curve" smooth="yes"/>
      <point x="362.13554000000005" y="470.8763"/>
      <point x="349.2905400000001" y="497.09186"/>
      <point x="331.06567000000007" y="518.74558" type="curve" smooth="yes"/>
      <point x="312.8408100000001" y="540.39931"/>
      <point x="289.30055000000004" y="557.47981"/>
      <point x="263.22947000000005" y="568.49472" type="curve" smooth="yes"/>
      <point x="242.88643000000005" y="577.08956"/>
      <point x="220.82355000000004" y="582.04602"/>
      <point x="198.75286000000006" y="581.27484" type="curve" smooth="yes"/>
      <point x="176.68216000000007" y="580.5036600000001"/>
      <point x="154.61537000000004" y="573.8239100000001"/>
      <point x="136.74870000000004" y="560.8434500000001" type="curve" smooth="yes"/>
      <point x="122.56126000000005" y="550.53602"/>
      <point x="111.27720000000005" y="536.47914"/>
      <point x="103.32167000000004" y="520.85108" type="curve" smooth="yes"/>
      <point x="95.36614400000003" y="505.22302"/>
      <point x="90.67072400000004" y="488.04968"/>
      <point x="88.49543100000004" y="470.64868" type="curve" smooth="yes"/>
      <point x="84.14484600000004" y="435.84669"/>
      <point x="89.73702800000004" y="400.61413000000005"/>
      <point x="96.47273000000004" y="366.19413000000003" type="curve" smooth="yes"/>
      <point x="119.07110000000004" y="250.71455000000003"/>
      <point x="154.63888000000003" y="138.17054000000007"/>
      <point x="193.44847000000004" y="27.084820000000036" type="curve" smooth="yes"/>
      <point x="198.48550000000003" y="12.667190000000005"/>
      <point x="203.57843000000005" y="-1.7309099999999944"/>
      <point x="208.72710000000004" y="-16.10904999999991" type="curve" smooth="yes"/>
      <point x="211.53285000000002" y="-23.944369999999935"/>
      <point x="207.19872000000004" y="-31.556609999999864"/>
      <point x="199.02426000000003" y="-33.119469999999865" type="curve" smooth="yes"/>
      <point x="41.63704800000002" y="-63.209969999999885" type="line" smooth="yes"/>
      <point x="33.462580000000024" y="-64.77282999999989"/>
      <point x="28.883769000000022" y="-59.61037999999985"/>
      <point x="31.21971900000002" y="-51.62256999999988" type="curve"/>
    </contour>
  </outline>
</glyph>
<glyph name="ml_u" format="2">
  <advance height="1024" width="570"/>
  <unicode hex="0D09"/>
  <outline>
    <contour>
      <point x="345.23202" y="401.15693" type="curve" smooth="yes"/>
      <point x="366.12842" y="366.50972"/>
      <point x="375.76014999999995" y="324.71769"/>
      <point x="369.58912999999995" y="284.7301" type="curve" smooth="yes"/>
      <point x="363.4181" y="244.74251000000004"/>
      <point x="340.91191" y="207.04746"/>
      <point x="307.1961299999999" y="184.67927999999995" type="curve" smooth="yes"/>
      <point x="273.30891999999994" y="162.19736999999998"/>
      <point x="230.03146999999993" y="156.14626999999996"/>
      <point x="190.07802999999993" y="163.72929999999997" type="curve" smooth="yes"/>
      <point x="147.26706" y="171.85468000000003"/>
      <point x="107.77012" y="195.00585"/>
      <point x="78.261773" y="227.06920000000002" type="curve" smooth="yes"/>
      <point x="48.753425" y="259.13255000000004"/>
      <point x="29.120459" y="299.81039"/>
      <point x="20.374568" y="342.49892" type="curve" smooth="yes"/>
      <point x="10.263098" y="391.85281"/>
      <point x="14.43196" y="443.2335"/>
      <point x="25.136088" y="492.46226" type="curve" smooth="yes"/>
      <point x="37.889578" y="551.11612"/>
      <point x="61.161131" y="609.70117"/>
      <point x="104.82397" y="650.88956" type="curve" smooth="yes"/>
      <point x="140.4541" y="684.50047"/>
      <point x="188.09178" y="704.403206"/>
      <point x="236.8464" y="709.113509" type="curve" smooth="yes"/>
      <point x="290.08263999999997" y="714.256792"/>
      <point x="344.51052" y="701.675665"/>
      <point x="391.39234" y="675.93378" type="curve" smooth="yes"/>
      <point x="438.27416999999997" y="650.1919"/>
      <point x="477.66312" y="611.6218799999999"/>
      <point x="506.63426" y="566.66387" type="curve" smooth="yes"/>
      <point x="540.116" y="514.70623"/>
      <point x="559.92236" y="453.92211999999995"/>
      <point x="562.81133" y="392.17848" type="curve" smooth="yes"/>
      <point x="565.70029" y="330.43484"/>
      <point x="551.58663" y="267.89427"/>
      <point x="521.87491" y="213.69245" type="curve" smooth="yes"/>
      <point x="488.01209" y="151.91798000000006"/>
      <point x="433.48657000000003" y="101.20335"/>
      <point x="368.32947" y="74.42034999999998" type="curve" smooth="yes"/>
      <point x="313.48536" y="51.87653"/>
      <point x="253.09913" y="46.43583000000001"/>
      <point x="196.975" y="27.299960000000056" type="curve" smooth="yes"/>
      <point x="175.81615" y="20.085720000000038"/>
      <point x="155.31793" y="10.935169999999971"/>
      <point x="135.82012" y="0.0" type="curve"/>
      <point x="125.54077000000001" y="61.604330000000004" type="line"/>
      <point x="152.94491000000002" y="56.38196000000005"/>
      <point x="180.32279" y="51.02175"/>
      <point x="207.67301" y="45.52395999999999" type="curve" smooth="yes"/>
      <point x="250.09792" y="36.99594999999999"/>
      <point x="292.92967" y="28.093250000000012"/>
      <point x="336.18307000000004" y="29.413369999999986" type="curve" smooth="yes"/>
      <point x="372.35688000000005" y="30.517420000000016"/>
      <point x="407.96416000000005" y="38.769360000000006"/>
      <point x="442.60045" y="49.26179000000002" type="curve" smooth="yes"/>
      <point x="479.34035" y="60.39147000000003"/>
      <point x="515.30282" y="74.08627000000001"/>
      <point x="550.14094" y="90.21053000000006" type="curve" smooth="yes"/>
      <point x="557.5157" y="93.62382000000002"/>
      <point x="563.67683" y="89.92612000000008"/>
      <point x="563.9708" y="81.80497000000003" type="curve" smooth="yes"/>
      <point x="568.17627" y="-34.37166000000002" type="line" smooth="yes"/>
      <point x="568.47024" y="-42.49280999999996"/>
      <point x="562.4825500000001" y="-51.23613"/>
      <point x="554.71189" y="-53.613140000000044" type="curve" smooth="yes"/>
      <point x="501.72003000000007" y="-69.82311000000004"/>
      <point x="445.70254000000006" y="-76.11364000000003"/>
      <point x="390.43717000000004" y="-71.99898000000007" type="curve" smooth="yes"/>
      <point x="312.48208" y="-66.19500000000005"/>
      <point x="236.6038" y="-40.03511000000003"/>
      <point x="158.43344" y="-39.75738999999999" type="curve" smooth="yes"/>
      <point x="121.82266" y="-39.627320000000054"/>
      <point x="85.199756" y="-45.26202999999998"/>
      <point x="50.311327" y="-56.35595999999998" type="curve" smooth="yes"/>
      <point x="42.567534" y="-58.818359999999984"/>
      <point x="35.31896" y="-54.60731999999996"/>
      <point x="34.001858" y="-46.588300000000004" type="curve" smooth="yes"/>
      <point x="15.218455" y="67.77221999999995" type="line" smooth="yes"/>
      <point x="13.901353" y="75.7912399999999"/>
      <point x="18.592475" y="85.4994099999999"/>
      <point x="25.880745" y="89.09237999999993" type="curve" smooth="yes"/>
      <point x="50.571206000000004" y="101.26428999999996"/>
      <point x="76.793674" y="110.32836999999995"/>
      <point x="103.73478" y="115.98316999999997" type="curve" smooth="yes"/>
      <point x="176.57112" y="131.27113999999995"/>
      <point x="254.05176" y="121.76474999999994"/>
      <point x="324.43841" y="145.94269999999995" type="curve" smooth="yes"/>
      <point x="358.97560999999996" y="157.80629"/>
      <point x="390.81300999999996" y="177.71150999999998"/>
      <point x="416.06708" y="204.08943999999997" type="curve" smooth="yes"/>
      <point x="441.32113999999996" y="230.46736999999996"/>
      <point x="459.89079999999996" y="263.32025999999996"/>
      <point x="468.74469999999997" y="298.74866" type="curve" smooth="yes"/>
      <point x="482.88577" y="355.33338999999995"/>
      <point x="471.47139999999996" y="417.0234"/>
      <point x="441.58624" y="467.11010999999996" type="curve" smooth="yes"/>
      <point x="420.93895999999995" y="501.71439"/>
      <point x="391.52301" y="531.3321699999999"/>
      <point x="356.08036999999996" y="550.50469" type="curve" smooth="yes"/>
      <point x="320.63773" y="569.67721"/>
      <point x="279.14892999999995" y="578.10366"/>
      <point x="239.26552999999996" y="572.35212" type="curve" smooth="yes"/>
      <point x="193.37688999999995" y="565.73457"/>
      <point x="150.34592999999995" y="539.84642"/>
      <point x="124.00886999999996" y="501.68991" type="curve" smooth="yes"/>
      <point x="100.05532999999996" y="466.98658"/>
      <point x="90.33512899999997" y="422.77147"/>
      <point x="97.46669899999996" y="381.21146" type="curve" smooth="yes"/>
      <point x="104.49556999999996" y="340.24993"/>
      <point x="128.38422999999997" y="301.75009"/>
      <point x="163.92724999999996" y="280.21069" type="curve" smooth="yes"/>
      <point x="174.11099999999996" y="274.03923999999995"/>
      <point x="185.19586999999996" y="269.24609"/>
      <point x="196.84044999999998" y="266.75625" type="curve" smooth="yes"/>
      <point x="208.48502999999997" y="264.26641000000006"/>
      <point x="220.70523999999997" y="264.12331000000006"/>
      <point x="232.25122" y="267.03634999999997" type="curve" smooth="yes"/>
      <point x="245.72759" y="270.43642"/>
      <point x="258.13701" y="278.0582999999999"/>
      <point x="267.10976999999997" y="288.67256" type="curve" smooth="yes"/>
      <point x="276.08254" y="299.28682"/>
      <point x="281.54558" y="312.85832999999997"/>
      <point x="282.22797999999995" y="326.74024" type="curve" smooth="yes"/>
      <point x="282.86429999999996" y="339.68467999999996"/>
      <point x="279.39613999999995" y="352.68114999999995"/>
      <point x="273.16783999999996" y="364.04650999999996" type="curve" smooth="yes"/>
      <point x="266.93952999999993" y="375.41187999999994"/>
      <point x="258.02477999999996" y="385.18721999999997"/>
      <point x="247.81912999999994" y="393.17520999999994" type="curve" smooth="yes"/>
      <point x="229.90264999999994" y="407.19848999999994"/>
      <point x="208.01358999999994" y="415.77084999999994"/>
      <point x="185.51440999999994" y="419.1531099999999" type="curve" smooth="yes"/>
      <point x="163.01522999999995" y="422.5353799999999"/>
      <point x="139.91623999999993" y="420.8511299999999"/>
      <point x="117.74685999999994" y="415.7353499999999" type="curve" smooth="yes"/>
      <point x="97.60527399999994" y="411.0874999999999"/>
      <point x="78.11709599999995" y="403.6172699999999"/>
      <point x="60.02947999999994" y="393.61105999999995" type="curve"/>
      <point x="82.061296" y="533.0820699999999" type="line"/>
      <point x="111.71643" y="530.44273"/>
      <point x="141.14260000000002" y="525.23565"/>
      <point x="169.90268" y="517.5382" type="curve" smooth="yes"/>
      <point x="204.6391" y="508.24121999999994"/>
      <point x="238.59647999999999" y="495.21025"/>
      <point x="269.11102" y="476.18616" type="curve" smooth="yes"/>
      <point x="299.62556" y="457.16207999999995"/>
      <point x="326.66067" y="431.9491"/>
    </contour>
  </outline>
</glyph>
<glyph name="ml_vocalic_l" format="2">
  <advance height="1024" width="845"/>
  <unicode hex="0D0C"/>
  <outline>
    <contour>
      <point x="33.164985" y="407.42395" type="line"/>
      <point x="109.52283" y="427.46846999999997"/>
      <point x="194.7024" y="410.55935"/>
      <point x="257.61395" y="362.86825" type="curve" smooth="yes"/>
      <point x="297.65944" y="332.51113"/>
      <point x="328.6972" y="290.26691"/>
      <point x="345.05628" y="242.75293999999997" type="curve" smooth="yes"/>
      <point x="361.41535" y="195.23897"/>
      <point x="362.93004" y="142.62793999999997"/>
      <point x="348.68010000000004" y="94.43939999999998" type="curve" smooth="yes"/>
      <point x="343.73509" y="77.71704"/>
      <point x="336.89196000000004" y="61.442980000000034"/>
      <point x="327.11050000000006" y="47.00645999999995" type="curve" smooth="yes"/>
      <point x="317.32903000000005" y="32.56993"/>
      <point x="304.5100100000001" y="19.997109999999907"/>
      <point x="289.13147000000004" y="11.775739999999928" type="curve" smooth="yes"/>
      <point x="265.88454" y="-0.6520700000000943"/>
      <point x="237.84624000000002" y="-2.43220000000008"/>
      <point x="212.19744000000003" y="3.6512999999998783" type="curve" smooth="yes"/>
      <point x="186.54864000000003" y="9.734809999999925"/>
      <point x="163.11396000000002" y="23.2121699999999"/>
      <point x="142.50783" y="39.651669999999854" type="curve" smooth="yes"/>
      <point x="95.137869" y="77.44326000000001"/>
      <point x="61.873185" y="130.86473999999998"/>
      <point x="41.112588" y="187.79552999999999" type="curve" smooth="yes"/>
      <point x="20.351991" y="244.72632"/>
      <point x="11.427537" y="305.30424"/>
      <point x="6.5508225" y="365.70569" type="curve" smooth="yes"/>
      <point x="1.6422609" y="426.50159"/>
      <point x="0.8679776" y="488.82533"/>
      <point x="18.606566" y="547.1826599999999" type="curve" smooth="yes"/>
      <point x="27.47586" y="576.36132"/>
      <point x="40.99709" y="604.28972"/>
      <point x="59.855375" y="628.2568699999999" type="curve" smooth="yes"/>
      <point x="78.71366" y="652.22401"/>
      <point x="103.0202" y="672.14795"/>
      <point x="130.98878" y="684.30597" type="curve" smooth="yes"/>
      <point x="173.40366" y="702.743839"/>
      <point x="222.86910999999998" y="702.377922"/>
      <point x="266.48395" y="686.99211" type="curve" smooth="yes"/>
      <point x="310.09878" y="671.60629"/>
      <point x="347.94074" y="641.9245599999999"/>
      <point x="376.60194" y="605.627" type="curve" smooth="yes"/>
      <point x="425.14884" y="544.14549"/>
      <point x="447.25686" y="466.05723"/>
      <point x="461.54333" y="389.03337" type="curve" smooth="yes"/>
      <point x="464.23285000000004" y="374.53314"/>
      <point x="466.68579" y="359.98903"/>
      <point x="468.90084" y="345.40878" type="curve"/>
      <point x="424.4922" y="345.36778" type="line"/>
      <point x="427.45726" y="359.17719999999997"/>
      <point x="430.33296" y="373.00579999999997"/>
      <point x="433.11905" y="386.85242999999997" type="curve" smooth="yes"/>
      <point x="445.27257000000003" y="447.25437"/>
      <point x="455.96919" y="508.78774"/>
      <point x="482.15493000000004" y="564.5587899999999" type="curve" smooth="yes"/>
      <point x="503.97106" y="611.02333"/>
      <point x="537.3447600000001" y="653.34861"/>
      <point x="582.17454" y="678.3523799999999" type="curve" smooth="yes"/>
      <point x="604.58942" y="690.8542699999999"/>
      <point x="629.6432599999999" y="698.8389099999999"/>
      <point x="655.25356" y="700.5232179999999" type="curve" smooth="yes"/>
      <point x="680.86386" y="702.2075229999999"/>
      <point x="707.00643" y="697.4855299999999"/>
      <point x="729.94525" y="685.9731499999999" type="curve" smooth="yes"/>
      <point x="765.79252" y="667.98236"/>
      <point x="792.03094" y="634.42669"/>
      <point x="808.09685" y="597.67643" type="curve" smooth="yes"/>
      <point x="824.16276" y="560.92617"/>
      <point x="830.99879" y="520.86925"/>
      <point x="836.10637" y="481.08725" type="curve" smooth="yes"/>
      <point x="845.48987" y="408.00088999999997"/>
      <point x="849.47093" y="333.58856"/>
      <point x="838.1131899999999" y="260.78287" type="curve" smooth="yes"/>
      <point x="826.7554399999999" y="187.97717999999998"/>
      <point x="799.2897399999999" y="116.49311"/>
      <point x="751.34129" y="60.54123000000004" type="curve" smooth="yes"/>
      <point x="734.9992599999999" y="41.471430000000055"/>
      <point x="716.0920699999999" y="24.112250000000017"/>
      <point x="693.59762" y="12.944490000000087" type="curve" smooth="yes"/>
      <point x="671.10318" y="1.7767400000001317"/>
      <point x="644.66658" y="-2.7762299999999414"/>
      <point x="620.48667" y="4.009850000000142" type="curve" smooth="yes"/>
      <point x="599.89688" y="9.788360000000125"/>
      <point x="582.04401" y="23.457320000000095"/>
      <point x="568.94827" y="40.36390000000017" type="curve" smooth="yes"/>
      <point x="555.85253" y="57.27047000000016"/>
      <point x="547.24646" y="77.29492000000016"/>
      <point x="541.3577" y="97.85345000000018" type="curve" smooth="yes"/>
      <point x="525.37445" y="153.65331000000015"/>
      <point x="529.13283" y="214.79677000000015"/>
      <point x="551.2556000000001" y="268.4593500000002" type="curve" smooth="yes"/>
      <point x="573.37837" y="322.1219300000002"/>
      <point x="613.62931" y="368.0177600000002"/>
      <point x="663.6316400000001" y="397.4941200000002" type="curve" smooth="yes"/>
      <point x="709.45441" y="424.5066300000002"/>
      <point x="763.27341" y="437.7569100000002"/>
      <point x="816.3994200000001" y="435.10566000000017" type="curve"/>
      <point x="826.3522100000001" y="291.61665000000016" type="line"/>
      <point x="799.1576000000001" y="314.27030000000013"/>
      <point x="763.0010800000001" y="325.85208000000017"/>
      <point x="727.7054300000001" y="323.21552000000014" type="curve" smooth="yes"/>
      <point x="694.7113300000001" y="320.75089000000014"/>
      <point x="662.7169800000001" y="305.90075000000013"/>
      <point x="639.8411500000001" y="281.9971700000001" type="curve" smooth="yes"/>
      <point x="616.9653200000001" y="258.0935800000001"/>
      <point x="603.50669" y="225.31051000000014"/>
      <point x="603.4093300000001" y="192.22463000000005" type="curve" smooth="yes"/>
      <point x="603.3640300000001" y="176.83255000000008"/>
      <point x="606.21888" y="161.1641800000001"/>
      <point x="613.77332" y="147.75342" type="curve" smooth="yes"/>
      <point x="621.32776" y="134.34266000000002"/>
      <point x="633.94628" y="123.39404000000002"/>
      <point x="648.93166" y="119.87887" type="curve" smooth="yes"/>
      <point x="662.20114" y="116.76621"/>
      <point x="676.41978" y="119.63702"/>
      <point x="688.49115" y="125.96551999999997" type="curve" smooth="yes"/>
      <point x="700.56251" y="132.29400999999996"/>
      <point x="710.66464" y="141.87577"/>
      <point x="719.33178" y="152.39472" type="curve" smooth="yes"/>
      <point x="742.50024" y="180.51332000000002"/>
      <point x="756.0602799999999" y="215.55946000000006"/>
      <point x="763.30479" y="251.26590999999996" type="curve" smooth="yes"/>
      <point x="770.5493" y="286.97235"/>
      <point x="771.80888" y="323.59177999999997"/>
      <point x="772.6927900000001" y="360.01500999999996" type="curve" smooth="yes"/>
      <point x="773.5388" y="394.8764"/>
      <point x="774.00297" y="430.26356999999996"/>
      <point x="765.1534300000001" y="463.99364999999995" type="curve" smooth="yes"/>
      <point x="760.7286700000001" y="480.85868999999997"/>
      <point x="753.9560100000001" y="497.19892999999996"/>
      <point x="744.20135" y="511.6507399999999" type="curve" smooth="yes"/>
      <point x="734.4467000000001" y="526.10255"/>
      <point x="721.6426600000001" y="538.6341799999999"/>
      <point x="706.41503" y="547.1269599999999" type="curve" smooth="yes"/>
      <point x="691.69965" y="555.3340499999999"/>
      <point x="674.91262" y="559.6454799999999"/>
      <point x="658.07054" y="560.1386" type="curve" smooth="yes"/>
      <point x="641.22847" y="560.63172"/>
      <point x="624.34644" y="557.35335"/>
      <point x="608.6824" y="551.1455699999999" type="curve" smooth="yes"/>
      <point x="577.35432" y="538.7299899999999"/>
      <point x="551.43404" y="514.8838099999999"/>
      <point x="532.43512" y="487.05152999999996" type="curve" smooth="yes"/>
      <point x="509.34416" y="453.22464999999994"/>
      <point x="495.82311" y="413.45414999999997"/>
      <point x="489.66713" y="372.96273999999994" type="curve" smooth="yes"/>
      <point x="483.51114" y="332.47132999999997"/>
      <point x="484.50439" y="291.1696099999999"/>
      <point x="488.70097" y="250.4284899999999" type="curve" smooth="yes"/>
      <point x="491.21763999999996" y="225.99621999999988"/>
      <point x="494.88009" y="201.68201999999985"/>
      <point x="499.67125" y="177.59230999999988" type="curve" smooth="yes"/>
      <point x="501.28463999999997" y="169.4802699999999"/>
      <point x="496.10002" y="163.91739999999993"/>
      <point x="487.91866" y="165.1321499999999" type="curve" smooth="yes"/>
      <point x="401.79025" y="177.92026999999996" type="line" smooth="yes"/>
      <point x="393.60889000000003" y="179.13501999999994"/>
      <point x="388.95643" y="186.52875999999992"/>
      <point x="391.06687" y="194.52553999999998" type="curve" smooth="yes"/>
      <point x="397.26473" y="218.01022999999998"/>
      <point x="401.33652" y="242.05603999999994"/>
      <point x="403.20869" y="266.27266" type="curve" smooth="yes"/>
      <point x="407.82054999999997" y="325.92731999999995"/>
      <point x="398.62103" y="387.47261"/>
      <point x="370.73285" y="440.40838999999994" type="curve" smooth="yes"/>
      <point x="355.68088" y="468.97918999999996"/>
      <point x="335.42168" y="494.67650999999995"/>
      <point x="312.02891999999997" y="516.9392799999999" type="curve" smooth="yes"/>
      <point x="293.78882999999996" y="534.29827"/>
      <point x="273.31210999999996" y="549.79977"/>
      <point x="249.92005999999998" y="559.11897" type="curve" smooth="yes"/>
      <point x="226.52800999999997" y="568.4381699999999"/>
      <point x="199.9226" y="571.1862699999999"/>
      <point x="176.03620999999998" y="563.2190999999999" type="curve" smooth="yes"/>
      <point x="159.87785" y="557.8295699999999"/>
      <point x="145.5144" y="547.7602999999999"/>
      <point x="133.72609999999997" y="535.46494" type="curve" smooth="yes"/>
      <point x="121.93780999999997" y="523.16958"/>
      <point x="112.62040999999998" y="508.68485999999996"/>
      <point x="104.82340999999997" y="493.54067" type="curve" smooth="yes"/>
      <point x="79.28733299999996" y="443.94169"/>
      <point x="69.81843399999997" y="386.58858"/>
      <point x="75.72743999999997" y="331.11575999999997" type="curve" smooth="yes"/>
      <point x="81.63644499999997" y="275.64293999999995"/>
      <point x="102.63633999999998" y="222.13853999999992"/>
      <point x="134.10073999999997" y="176.07183999999995" type="curve" smooth="yes"/>
      <point x="144.71563999999998" y="160.53067999999996"/>
      <point x="156.80512" y="145.52188999999998"/>
      <point x="172.61001999999996" y="135.30381999999997" type="curve" smooth="yes"/>
      <point x="180.51246999999995" y="130.19477999999992"/>
      <point x="189.29424999999998" y="126.35399999999993"/>
      <point x="198.53425999999996" y="124.57264999999995" type="curve" smooth="yes"/>
      <point x="207.77425999999997" y="122.79129999999998"/>
      <point x="217.48114999999996" y="123.11374"/>
      <point x="226.42500999999996" y="126.03918999999996" type="curve" smooth="yes"/>
      <point x="234.84978999999996" y="128.79485"/>
      <point x="242.47804999999997" y="133.82575999999995"/>
      <point x="248.56211999999996" y="140.27204999999992" type="curve" smooth="yes"/>
      <point x="254.64619999999996" y="146.7183399999999"/>
      <point x="259.19965999999994" y="154.55467999999996"/>
      <point x="262.09099" y="162.93386999999996" type="curve" smooth="yes"/>
      <point x="267.87365" y="179.69224999999994"/>
      <point x="266.92794999999995" y="198.28248999999994"/>
      <point x="261.78457" y="215.24798999999996" type="curve" smooth="yes"/>
      <point x="254.76274999999998" y="238.40956999999992"/>
      <point x="239.97155999999998" y="259.09443"/>
      <point x="220.50018999999998" y="273.46907999999996" type="curve" smooth="yes"/>
      <point x="201.02882999999997" y="287.84372999999994"/>
      <point x="177.00325999999998" y="295.87425999999994"/>
      <point x="152.80632999999997" y="296.39682999999997" type="curve" smooth="yes"/>
      <point x="115.87901999999997" y="297.19433"/>
      <point x="78.98138199999997" y="279.94943"/>
      <point x="55.90622199999997" y="251.10849999999994" type="curve"/>
    </contour>
  </outline>
</glyph>
